<svg width="36" height="36" viewBox="0 0 36 36" fill="none" xmlns="http://www.w3.org/2000/svg">
<circle r="18" transform="matrix(-1 0 0 1 18 18)" fill="#003DA6"/>
<path d="M17.6835 25.9336C16.9838 26.6332 15.8494 26.6332 15.1497 25.9336C14.45 25.2339 14.45 24.0994 15.1497 23.3998L17.6835 25.9336ZM22.5833 18.5L23.8502 17.2331C24.5498 17.9328 24.5498 19.0672 23.8502 19.7669L22.5833 18.5ZM15.1497 13.6002C14.45 12.9005 14.45 11.7661 15.1497 11.0664C15.8494 10.3667 16.9838 10.3667 17.6835 11.0664L15.1497 13.6002ZM15.1497 23.3998L21.3164 17.2331L23.8502 19.7669L17.6835 25.9336L15.1497 23.3998ZM21.3164 19.7669L15.1497 13.6002L17.6835 11.0664L23.8502 17.2331L21.3164 19.7669Z" fill="white"/>
</svg>
