<svg width="72" height="23" viewBox="0 0 72 23" fill="none" xmlns="http://www.w3.org/2000/svg">
<path d="M8.23178 10.232C8.48822 9.42851 8.73612 8.63354 8.97546 7.84712C9.2319 7.0607 9.47125 6.33411 9.6935 5.66736C9.93285 4.98352 10.1636 4.37661 10.3859 3.84663C10.6081 3.29955 10.8218 2.87215 11.027 2.56442C10.2235 2.68409 9.50544 2.89779 8.87289 3.20552C8.24033 3.51325 7.67616 3.86372 7.18037 4.25693C6.70168 4.63305 6.28282 5.02626 5.92381 5.43657C5.56479 5.84687 5.25706 6.21444 5.00062 6.53927C4.70998 6.89828 4.45354 7.18892 4.23129 7.41117C4.00904 7.63342 3.77824 7.74454 3.5389 7.74454C3.16278 7.74454 2.87215 7.61632 2.66699 7.35988C2.46184 7.10344 2.35926 6.8128 2.35926 6.48798C2.35926 6.31702 2.37636 6.16315 2.41055 6.02638C2.6499 5.15448 3.14569 4.35096 3.89792 3.61583C4.65014 2.8807 5.50495 2.24814 6.46233 1.71816C7.43681 1.17109 8.44548 0.75223 9.48835 0.461596C10.5312 0.153865 11.4629 0 12.2836 0C13.4974 0 14.583 0.213702 15.5404 0.641105C16.4978 1.05141 17.3013 1.62413 17.9509 2.35926C18.6177 3.0944 19.122 3.9663 19.4639 4.97497C19.8059 5.98364 19.9768 7.06925 19.9768 8.23178C19.9768 9.12078 19.917 10.0867 19.7973 11.1296C19.6947 12.1553 19.5067 13.1811 19.2331 14.2069C18.9596 15.2326 18.6006 16.2242 18.1561 17.1816C17.7287 18.139 17.1816 18.9852 16.5149 19.7204C15.8652 20.4555 15.0959 21.0368 14.2069 21.4642C13.335 21.9087 12.3178 22.1309 11.1552 22.1309C10.3346 22.1309 9.53963 22.0027 8.77031 21.7463C8.00098 21.5069 7.2744 21.1564 6.59055 20.6949C6.19734 21.1223 5.73575 21.4642 5.20577 21.7206C4.67579 21.9942 4.09452 22.1309 3.46196 22.1309C3.06875 22.1309 2.66699 22.0625 2.25669 21.9258C1.86348 21.789 1.49591 21.5924 1.15399 21.336C0.812064 21.0795 0.53853 20.7718 0.333377 20.4128C0.111127 20.0537 0 19.652 0 19.2075C0 18.7459 0.111127 18.3698 0.333377 18.0791C0.53853 17.7714 0.80352 17.5321 1.12835 17.3611C1.45317 17.1901 1.81219 17.079 2.2054 17.0277C2.59861 16.9594 2.96618 16.9252 3.3081 16.9252C3.7184 16.9252 4.13726 16.9594 4.56466 17.0277C4.99207 17.0961 5.40237 17.1987 5.79559 17.3355C5.98364 16.9252 6.1717 16.4465 6.35975 15.8994C6.56491 15.3523 6.77006 14.771 6.97522 14.1556C7.18037 13.5401 7.38552 12.899 7.59067 12.2323C7.81292 11.5655 8.02662 10.8988 8.23178 10.232ZM17.4637 8.48822C17.4637 7.73599 17.3782 7.0265 17.2072 6.35976C17.0534 5.67591 16.8055 5.069 16.4636 4.53902C16.1216 4.00904 15.6857 3.57309 15.1557 3.23117C14.6257 2.87215 13.9932 2.64135 13.258 2.53877C13.2922 2.62426 13.3179 2.70119 13.335 2.76957C13.3521 2.83796 13.3606 2.91489 13.3606 3.00037C13.3606 3.13714 13.2495 3.55599 13.0272 4.25693C12.8221 4.95787 12.5486 5.81268 12.2066 6.82135C11.8647 7.81293 11.48 8.90708 11.0526 10.1038C10.6423 11.2834 10.232 12.4289 9.82172 13.5401C9.42851 14.6343 9.06094 15.6344 8.71902 16.5405C8.39419 17.4466 8.1463 18.1219 7.97534 18.5664C8.43693 18.857 8.92418 19.1049 9.43706 19.3101C9.94994 19.4981 10.4799 19.5921 11.027 19.5921C11.8476 19.5921 12.5742 19.4126 13.2067 19.0536C13.8393 18.6775 14.3949 18.1903 14.8736 17.5919C15.3523 16.9764 15.7541 16.2841 16.0789 15.5147C16.4037 14.7283 16.6687 13.9248 16.8739 13.1042C17.079 12.2836 17.2243 11.4715 17.3098 10.668C17.4124 9.86446 17.4637 9.13787 17.4637 8.48822ZM3.61583 19.6178C3.70131 19.6178 3.78679 19.6007 3.87227 19.5665C3.97485 19.5323 4.06033 19.4981 4.12871 19.4639C4.02613 19.4468 3.91501 19.4383 3.79534 19.4383C3.69276 19.4383 3.58164 19.4383 3.46196 19.4383C3.37648 19.4383 3.2739 19.4468 3.15423 19.4639C3.05165 19.4639 2.94908 19.4725 2.8465 19.4896C2.96618 19.5409 3.08585 19.5751 3.20552 19.5921C3.34229 19.6092 3.47906 19.6178 3.61583 19.6178Z" fill="white"/>
<path d="M23.2348 9.6935C23.5938 9.6935 23.8759 9.83027 24.0811 10.1038C24.3033 10.3773 24.4145 10.668 24.4145 10.9757C24.4145 11.2151 24.3375 11.5484 24.1837 11.9758C24.0298 12.4032 23.8588 12.8477 23.6708 13.3093C23.5169 13.6683 23.363 14.053 23.2092 14.4633C23.0553 14.8565 22.91 15.2583 22.7732 15.6686C22.6536 16.0789 22.551 16.4892 22.4655 16.8995C22.38 17.2927 22.3373 17.6688 22.3373 18.0279C22.3373 18.1133 22.3373 18.233 22.3373 18.3869C22.3373 18.5236 22.3458 18.669 22.3629 18.8228C22.38 18.9767 22.3971 19.1135 22.4142 19.2331C22.4484 19.3357 22.4911 19.387 22.5424 19.387C23.2092 19.387 23.8075 19.1818 24.3375 18.7715C24.8675 18.3612 25.3462 17.8398 25.7736 17.2072C26.2181 16.5747 26.6113 15.8823 26.9532 15.1301C27.2951 14.3607 27.6114 13.6342 27.9021 12.9503C28.2782 12.0442 28.6372 11.2834 28.9791 10.668C29.321 10.0354 29.7057 9.71914 30.1331 9.71914C30.5263 9.71914 30.8255 9.86446 31.0307 10.1551C31.2529 10.4457 31.364 10.762 31.364 11.1039C31.364 11.5142 31.2358 12.0186 30.9794 12.6169C30.7229 13.2153 30.4408 13.8735 30.1331 14.5915C29.945 15.0018 29.757 15.4122 29.5689 15.8225C29.398 16.2328 29.2356 16.6345 29.0817 17.0277C28.9449 17.4038 28.8338 17.7629 28.7483 18.1048C28.6628 18.4296 28.6201 18.7117 28.6201 18.951C28.6201 19.0194 28.6201 19.0878 28.6201 19.1562C28.6201 19.2246 28.6286 19.2759 28.6457 19.3101C29.039 19.3101 29.4493 19.1733 29.8767 18.8998C30.3041 18.6091 30.7144 18.3185 31.1076 18.0279C31.4495 17.7714 31.7572 17.5492 32.0308 17.3611C32.3214 17.1731 32.612 17.079 32.9027 17.079C33.2788 17.079 33.501 17.1901 33.5694 17.4124C33.6549 17.6346 33.6976 17.8654 33.6976 18.1048C33.6976 18.5322 33.501 18.9681 33.1078 19.4126C32.7146 19.84 32.2445 20.2333 31.6974 20.5923C31.1503 20.9513 30.5862 21.2419 30.0049 21.4642C29.4407 21.7035 28.9706 21.8232 28.5945 21.8232C27.9961 21.8232 27.5174 21.6693 27.1584 21.3616C26.7994 21.071 26.5515 20.6949 26.4147 20.2333C25.9702 20.6778 25.4573 21.0624 24.876 21.3872C24.3119 21.7121 23.6879 21.8745 23.004 21.8745C21.8415 21.8745 21.0209 21.5668 20.5422 20.9513C20.0806 20.3358 19.8498 19.4896 19.8498 18.4125C19.8498 17.9167 19.9011 17.3868 20.0037 16.8226C20.1233 16.2413 20.2686 15.66 20.4396 15.0788C20.6106 14.4804 20.7986 13.8906 21.0038 13.3093C21.2089 12.7281 21.4055 12.181 21.5936 11.6681V11.6937C21.662 11.4886 21.7304 11.2834 21.7987 11.0783C21.8842 10.856 21.9612 10.6423 22.0295 10.4372C22.115 10.1978 22.2774 10.0183 22.5168 9.89865C22.7732 9.76188 23.0126 9.6935 23.2348 9.6935Z" fill="white"/>
<path d="M42.3077 17.3098C42.3419 17.1218 42.3846 16.9166 42.4359 16.6944C42.5043 16.4721 42.5641 16.2413 42.6154 16.002C42.1709 16.549 41.6495 17.156 41.0511 17.8227C40.4698 18.4895 39.8715 19.1135 39.256 19.6947C38.6577 20.2589 38.0849 20.729 37.5379 21.1052C36.9908 21.4984 36.5377 21.695 36.1787 21.695C35.7171 21.695 35.3068 21.6009 34.9478 21.4129C34.6059 21.2248 34.3152 20.9855 34.0759 20.6949C33.8366 20.3871 33.657 20.0367 33.5374 19.6434C33.4177 19.2502 33.3579 18.8485 33.3579 18.4382C33.3579 18.2159 33.3921 17.9851 33.4604 17.7458C33.5288 17.5064 33.6314 17.2842 33.7682 17.079C33.9049 16.8739 34.0759 16.7029 34.2811 16.5661C34.4862 16.4294 34.7341 16.361 35.0247 16.361C35.3154 16.361 35.5376 16.4721 35.6915 16.6944C35.8454 16.8995 35.9223 17.1132 35.9223 17.3355C35.9223 17.438 35.9052 17.5492 35.871 17.6688C35.8368 17.7885 35.8026 17.9082 35.7684 18.0279C35.7171 18.1646 35.6915 18.3099 35.6915 18.4638C35.6915 18.5835 35.7257 18.7459 35.7941 18.951C35.8795 19.1562 35.965 19.2588 36.0505 19.2588C36.3069 19.2588 36.6403 19.0878 37.0506 18.7459C37.4609 18.3869 37.914 17.9338 38.4098 17.3868C38.9227 16.8226 39.4441 16.1986 39.9741 15.5147C40.5211 14.8309 41.0511 14.1641 41.564 13.5145C41.9743 13.0016 42.359 12.5229 42.718 12.0784C43.0941 11.6168 43.436 11.2151 43.7438 10.8731C44.0515 10.5141 44.3336 10.232 44.59 10.0269C44.8465 9.82172 45.0602 9.71914 45.2311 9.71914C45.6243 9.71914 45.9235 9.83882 46.1287 10.0782C46.3509 10.3175 46.462 10.6167 46.462 10.9757C46.462 11.0954 46.4364 11.292 46.3851 11.5655C46.3338 11.822 46.2569 12.1297 46.1543 12.4887C46.0688 12.8477 45.9663 13.2495 45.8466 13.694C45.7269 14.1214 45.6072 14.5659 45.4876 15.0275C45.4021 15.3523 45.3337 15.5831 45.2824 15.7199C45.2482 15.8566 45.214 15.9763 45.1798 16.0789C45.1627 16.1644 45.1371 16.267 45.1029 16.3866C45.0858 16.5063 45.0431 16.7029 44.9747 16.9764L46.4877 14.9249C46.9835 14.2582 47.4707 13.6085 47.9494 12.976C48.4281 12.3434 48.8811 11.7878 49.3085 11.3091C49.7359 10.8304 50.1206 10.4457 50.4625 10.1551C50.8216 9.86446 51.1207 9.71914 51.3601 9.71914C51.7533 9.71914 52.0525 9.83882 52.2576 10.0782C52.4799 10.3175 52.591 10.6167 52.591 10.9757C52.591 11.2663 52.4884 11.6681 52.2833 12.181C52.0781 12.6768 51.8302 13.2495 51.5396 13.8991C51.3344 14.3436 51.1293 14.7967 50.9241 15.2583C50.7361 15.7199 50.5566 16.1815 50.3856 16.6431C50.2146 17.0876 50.0779 17.5064 49.9753 17.8996C49.8727 18.2928 49.8214 18.6348 49.8214 18.9254C49.8214 18.9938 49.8214 19.0622 49.8214 19.1306C49.8214 19.1989 49.8385 19.2588 49.8727 19.3101C50.2659 19.3101 50.6762 19.1733 51.1036 18.8998C51.531 18.6091 51.9413 18.3185 52.3346 18.0279C52.6765 17.7714 52.9842 17.5492 53.2578 17.3611C53.5484 17.1731 53.839 17.079 54.1296 17.079C54.4716 17.079 54.6853 17.1901 54.7708 17.4124C54.8733 17.6346 54.9246 17.8654 54.9246 18.1048C54.9246 18.5322 54.728 18.9681 54.3348 19.4126C53.9416 19.84 53.4715 20.2333 52.9244 20.5923C52.3773 20.9513 51.8131 21.2419 51.2319 21.4642C50.6677 21.7035 50.1975 21.8232 49.8214 21.8232C49.4453 21.8232 49.0948 21.7377 48.77 21.5668C48.4623 21.4129 48.1887 21.2077 47.9494 20.9513C47.7271 20.6778 47.5476 20.37 47.4109 20.0281C47.2912 19.6862 47.2314 19.3443 47.2314 19.0023C47.2314 18.4724 47.2912 17.9766 47.4109 17.515L47.257 17.7458C46.8125 18.3441 46.3253 18.9596 45.7953 19.5921C45.2653 20.2247 44.6413 20.7889 43.9233 21.2847C43.5813 21.4385 43.3078 21.4898 43.1027 21.4385C42.8975 21.4043 42.718 21.3445 42.5641 21.259C42.2906 21.1223 42.1025 20.9427 42 20.7205C41.8974 20.4982 41.8461 20.2247 41.8461 19.8999C41.8461 19.558 41.8888 19.1818 41.9743 18.7715C42.0598 18.3441 42.1709 17.8569 42.3077 17.3098Z" fill="white"/>
<path d="M54.3448 18.2074C54.7209 17.7629 55.097 17.3184 55.4732 16.8739C55.8664 16.4123 56.2596 15.9592 56.6528 15.5147C57.0973 15.0189 57.5247 14.5232 57.935 14.0274C58.3624 13.5316 58.7898 13.0272 59.2172 12.5144C59.542 12.1211 59.9267 11.7536 60.3712 11.4117C60.8328 11.0697 61.32 10.7706 61.8329 10.5141C62.3458 10.2577 62.8758 10.0611 63.4229 9.9243C63.9699 9.77043 64.4999 9.6935 65.0128 9.6935C65.4744 9.6935 65.9189 9.79608 66.3463 10.0012C66.7908 10.2064 67.1755 10.4543 67.5003 10.7449C67.637 10.5056 67.7995 10.2919 67.9875 10.1038C68.1927 9.89865 68.4662 9.79608 68.8081 9.79608C69.1842 9.79608 69.4749 9.94139 69.68 10.232C69.8852 10.5056 69.9878 10.8047 69.9878 11.1296C69.9878 11.3176 69.9365 11.557 69.8339 11.8476C69.7313 12.1382 69.5946 12.4716 69.4236 12.8477C69.2697 13.2068 69.0902 13.6 68.8851 14.0274C68.6799 14.4548 68.4662 14.8822 68.244 15.3096C68.0217 15.7541 67.7995 16.19 67.5772 16.6174C67.3721 17.0448 67.184 17.4466 67.013 17.8227C66.8421 18.1988 66.7053 18.5407 66.6027 18.8485C66.5002 19.1562 66.4489 19.3955 66.4489 19.5665C66.8763 19.5665 67.3379 19.4041 67.8337 19.0793C68.3294 18.7544 68.7996 18.4211 69.2441 18.0791C69.5689 17.8398 69.8596 17.6346 70.116 17.4637C70.3724 17.2756 70.6203 17.1816 70.8597 17.1816C71.0135 17.1816 71.1503 17.2329 71.27 17.3355C71.3896 17.4209 71.4922 17.5321 71.5777 17.6688C71.6632 17.8056 71.723 17.9509 71.7572 18.1048C71.8085 18.2416 71.8341 18.3612 71.8341 18.4638C71.8341 18.6861 71.723 18.9254 71.5008 19.1818C71.2785 19.4383 70.9964 19.7033 70.6545 19.9768C70.3126 20.2333 69.9279 20.4897 69.5005 20.7461C69.0902 20.9855 68.6799 21.1992 68.2696 21.3872C67.8593 21.5753 67.4832 21.7292 67.1413 21.8488C66.7993 21.9685 66.5344 22.0283 66.3463 22.0283C65.9189 22.0283 65.5 21.9172 65.0897 21.695C64.6794 21.4898 64.3631 21.2077 64.1409 20.8487C63.5254 21.2248 62.8501 21.5582 62.115 21.8488C61.397 22.1395 60.6704 22.2848 59.9352 22.2848C59.4224 22.2848 58.9693 22.1908 58.5761 22.0027C58.2 21.8146 57.8752 21.5582 57.6016 21.2334C57.3281 20.9256 57.1144 20.5752 56.9605 20.182C56.8238 19.7717 56.7383 19.3443 56.7041 18.8998C56.4818 19.1562 56.2425 19.387 55.986 19.5921C55.7296 19.7802 55.4561 19.8742 55.1654 19.8742C54.8748 19.8742 54.6354 19.7717 54.4474 19.5665C54.2593 19.3443 54.1653 19.0964 54.1653 18.8228C54.1653 18.7373 54.1653 18.669 54.1653 18.6177C54.1824 18.5493 54.1995 18.4895 54.2166 18.4382V18.5407C54.2166 18.5236 54.2166 18.5151 54.2166 18.5151C54.2337 18.498 54.2422 18.4809 54.2422 18.4638L54.3448 18.2074ZM64.1665 17.9253L64.4743 17.6945C64.5598 17.5064 64.6538 17.3098 64.7564 17.1047C64.8589 16.8824 64.97 16.6516 65.0897 16.4123C65.3291 15.9165 65.5599 15.4036 65.7821 14.8736C66.0215 14.3436 66.1411 13.8906 66.1411 13.5145C66.1411 13.1726 66.0471 12.8648 65.8591 12.5913C65.671 12.3178 65.406 12.181 65.0641 12.181C64.2606 12.181 63.4998 12.369 62.7817 12.7452C62.0808 13.1213 61.4568 13.6085 60.9097 14.2069C60.3797 14.8052 59.9523 15.4891 59.6275 16.2584C59.3198 17.0277 59.1659 17.7971 59.1659 18.5664C59.1659 19.3528 59.5506 19.746 60.3199 19.746C60.6789 19.746 61.0208 19.6947 61.3457 19.5921C61.6876 19.4725 62.021 19.3272 62.3458 19.1562C62.6706 18.9852 62.9784 18.7886 63.269 18.5664C63.5767 18.3441 63.8759 18.1219 64.1665 17.8996V17.9253Z" fill="white"/>
</svg>
