<svg width="202" height="58" viewBox="0 0 202 58" fill="none" xmlns="http://www.w3.org/2000/svg">
<path d="M38.0609 34.6031V30.6796L38.771 31.3009H35.3623C34.2853 31.3009 33.3562 31.1234 32.575 30.7683C31.7939 30.4133 31.1961 29.8984 30.7819 29.2238C30.3676 28.5491 30.1605 27.7443 30.1605 26.8093C30.1605 25.8387 30.3795 25.0102 30.8174 24.3237C31.2672 23.6254 31.8945 23.0928 32.6993 22.7259C33.5041 22.359 34.451 22.1756 35.5399 22.1756H40.9015V34.6031H38.0609ZM30.196 34.6031L33.2852 30.1469H36.1968L33.2319 34.6031H30.196ZM38.0609 29.7564V23.7734L38.771 24.519H35.6109C34.7942 24.519 34.1669 24.7084 33.729 25.0872C33.3029 25.4659 33.0899 26.0281 33.0899 26.7738C33.0899 27.4957 33.297 28.052 33.7112 28.4426C34.1255 28.8332 34.735 29.0285 35.5399 29.0285H38.771L38.0609 29.7564ZM52.061 34.7807C52.9606 34.7807 53.7654 34.6623 54.4755 34.4256C55.1975 34.177 55.7656 33.8279 56.1799 33.3781C56.606 32.9165 56.819 32.378 56.819 31.7625C56.819 31.0406 56.5172 30.4724 55.9136 30.0582C55.31 29.6321 54.4815 29.419 53.4281 29.419L53.3571 29.9694C53.9607 29.9694 54.5051 29.8688 54.9904 29.6676C55.4757 29.4546 55.8544 29.1646 56.1266 28.7977C56.4107 28.4308 56.5527 28.0165 56.5527 27.5549C56.5527 26.975 56.3456 26.4838 55.9313 26.0814C55.5289 25.6789 54.9726 25.3712 54.2625 25.1582C53.5524 24.9451 52.7534 24.8504 51.8658 24.8741C51.2621 24.8859 50.6526 24.9688 50.0371 25.1227C49.4217 25.2765 48.8003 25.4837 48.173 25.744L48.8476 27.6614C49.3802 27.4484 49.901 27.2886 50.41 27.1821C50.9189 27.0637 51.4101 27.0046 51.8835 27.0046C52.2978 27.0046 52.641 27.046 52.9132 27.1288C53.1854 27.1998 53.3926 27.3064 53.5346 27.4484C53.6766 27.5904 53.7476 27.762 53.7476 27.9632C53.7476 28.1526 53.6885 28.3183 53.5701 28.4604C53.4636 28.5905 53.2979 28.6911 53.073 28.7622C52.8481 28.8332 52.5759 28.8687 52.2563 28.8687H50.5342V30.5908H52.4871C52.9842 30.5908 53.363 30.6736 53.6234 30.8393C53.8838 30.9932 54.0139 31.224 54.0139 31.5317C54.0139 31.7685 53.9311 31.9697 53.7654 32.1354C53.5997 32.3011 53.3571 32.4313 53.0375 32.5259C52.7298 32.6088 52.3629 32.6502 51.9368 32.6502C51.345 32.6502 50.7591 32.591 50.1792 32.4727C49.611 32.3425 49.0843 32.159 48.5991 31.9223L47.8534 33.8575C48.4689 34.1652 49.1376 34.396 49.8596 34.5499C50.5934 34.7037 51.3272 34.7807 52.061 34.7807ZM64.5157 34.6031V32.739L64.3381 32.3307V28.993C64.3381 28.4012 64.1547 27.9396 63.7878 27.6082C63.4327 27.2768 62.8823 27.1111 62.1367 27.1111C61.6277 27.1111 61.1247 27.1939 60.6276 27.3596C60.1423 27.5135 59.7281 27.7265 59.3848 27.9988L58.3906 26.0636C58.9114 25.6967 59.5387 25.4126 60.2725 25.2114C61.0063 25.0102 61.752 24.9096 62.5095 24.9096C63.9653 24.9096 65.0956 25.2529 65.9004 25.9393C66.7053 26.6258 67.1077 27.6969 67.1077 29.1527V34.6031H64.5157ZM61.6041 34.7451C60.8584 34.7451 60.2193 34.6209 59.6867 34.3723C59.154 34.1119 58.7457 33.7628 58.4617 33.3249C58.1776 32.8869 58.0356 32.3957 58.0356 31.8513C58.0356 31.2832 58.1717 30.7861 58.4439 30.36C58.728 29.9339 59.1718 29.6025 59.7754 29.3658C60.379 29.1172 61.1661 28.993 62.1367 28.993H64.6754V30.6085H62.4385C61.7875 30.6085 61.3377 30.7151 61.0892 30.9281C60.8525 31.1412 60.7341 31.4075 60.7341 31.727C60.7341 32.0821 60.8702 32.3662 61.1425 32.5792C61.4265 32.7804 61.8112 32.881 62.2964 32.881C62.758 32.881 63.1723 32.7745 63.5392 32.5614C63.9061 32.3366 64.1724 32.0111 64.3381 31.585L64.7642 32.8633C64.563 33.4787 64.1961 33.9462 63.6635 34.2658C63.1309 34.5854 62.4444 34.7451 61.6041 34.7451ZM81.3056 34.6031L78.11 30.0759L80.3647 28.7444L84.5723 34.6031H81.3056ZM74.5415 34.6031V25.0516H77.311V34.6031H74.5415ZM76.4944 30.9814V28.7622H79.8321V30.9814H76.4944ZM80.631 30.1469L78.0389 29.8629L81.3944 25.0516H84.3415L80.631 30.1469ZM90.1114 34.7451C89.0936 34.7451 88.1881 34.5321 87.3951 34.106C86.614 33.6799 85.9926 33.1 85.531 32.3662C85.0812 31.6205 84.8564 30.7742 84.8564 29.8274C84.8564 28.8687 85.0812 28.0224 85.531 27.2886C85.9926 26.543 86.614 25.963 87.3951 25.5488C88.1881 25.1227 89.0936 24.9096 90.1114 24.9096C91.1175 24.9096 92.017 25.1227 92.81 25.5488C93.603 25.963 94.2244 26.537 94.6741 27.2709C95.1239 28.0047 95.3488 28.8569 95.3488 29.8274C95.3488 30.7742 95.1239 31.6205 94.6741 32.3662C94.2244 33.1 93.603 33.6799 92.81 34.106C92.017 34.5321 91.1175 34.7451 90.1114 34.7451ZM90.1114 32.4727C90.573 32.4727 90.9873 32.3662 91.3542 32.1531C91.7211 31.9401 92.0111 31.6383 92.2241 31.2477C92.4372 30.8453 92.5437 30.3718 92.5437 29.8274C92.5437 29.2711 92.4372 28.7977 92.2241 28.4071C92.0111 28.0165 91.7211 27.7147 91.3542 27.5017C90.9873 27.2886 90.573 27.1821 90.1114 27.1821C89.6498 27.1821 89.2356 27.2886 88.8687 27.5017C88.5018 27.7147 88.2059 28.0165 87.981 28.4071C87.768 28.7977 87.6614 29.2711 87.6614 29.8274C87.6614 30.3718 87.768 30.8453 87.981 31.2477C88.2059 31.6383 88.5018 31.9401 88.8687 32.1531C89.2356 32.3662 89.6498 32.4727 90.1114 32.4727ZM97.2537 34.6031V25.0516H100.148L103.752 31.585H102.598L106.45 25.0516H109.042L109.078 34.6031H106.574V27.8922L107 28.1763L103.716 33.6799H102.544L99.2421 27.981L99.7569 27.8567V34.6031H97.2537ZM118.157 34.8162C118.134 34.8162 118.069 34.8162 117.962 34.8162C117.856 34.8162 117.755 34.8162 117.66 34.8162C117.566 34.8162 117.5 34.8162 117.465 34.8162C115.394 34.7807 113.79 34.3368 112.654 33.4846C111.517 32.6325 110.949 31.4015 110.949 29.7919C110.949 28.2059 111.512 26.9986 112.636 26.1701C113.772 25.3298 115.4 24.9037 117.518 24.8919C117.542 24.8919 117.601 24.8919 117.696 24.8919C117.802 24.8919 117.903 24.8919 117.998 24.8919C118.092 24.8919 118.151 24.8919 118.175 24.8919C120.317 24.8919 121.974 25.3061 123.146 26.1346C124.33 26.9631 124.922 28.1822 124.922 29.7919C124.922 31.4252 124.33 32.6739 123.146 33.5379C121.974 34.3901 120.311 34.8162 118.157 34.8162ZM118.069 32.6857C119.051 32.6857 119.85 32.5851 120.465 32.3839C121.081 32.1709 121.531 31.8513 121.815 31.4252C122.111 30.9873 122.258 30.4428 122.258 29.7919C122.258 29.1646 122.116 28.6497 121.832 28.2473C121.548 27.8331 121.093 27.5253 120.465 27.3241C119.85 27.1229 119.051 27.0223 118.069 27.0223C118.033 27.0223 117.962 27.0223 117.856 27.0223C117.749 27.0223 117.678 27.0223 117.643 27.0223C116.696 27.0223 115.926 27.1288 115.335 27.3419C114.743 27.5549 114.311 27.8626 114.039 28.2651C113.766 28.6675 113.63 29.1764 113.63 29.7919C113.63 30.431 113.766 30.9636 114.039 31.3897C114.311 31.8158 114.743 32.1354 115.335 32.3484C115.926 32.5614 116.696 32.6739 117.643 32.6857C117.678 32.6857 117.749 32.6857 117.856 32.6857C117.962 32.6857 118.033 32.6857 118.069 32.6857ZM116.666 38.0473V21.4299H119.205V38.0473H116.666ZM131.271 34.7451C130.253 34.7451 129.347 34.5321 128.554 34.106C127.773 33.6799 127.152 33.1 126.69 32.3662C126.241 31.6205 126.016 30.7742 126.016 29.8274C126.016 28.8687 126.241 28.0224 126.69 27.2886C127.152 26.543 127.773 25.963 128.554 25.5488C129.347 25.1227 130.253 24.9096 131.271 24.9096C132.277 24.9096 133.176 25.1227 133.969 25.5488C134.762 25.963 135.384 26.537 135.833 27.2709C136.283 28.0047 136.508 28.8569 136.508 29.8274C136.508 30.7742 136.283 31.6205 135.833 32.3662C135.384 33.1 134.762 33.6799 133.969 34.106C133.176 34.5321 132.277 34.7451 131.271 34.7451ZM131.271 32.4727C131.732 32.4727 132.147 32.3662 132.514 32.1531C132.88 31.9401 133.17 31.6383 133.383 31.2477C133.597 30.8453 133.703 30.3718 133.703 29.8274C133.703 29.2711 133.597 28.7977 133.383 28.4071C133.17 28.0165 132.88 27.7147 132.514 27.5017C132.147 27.2886 131.732 27.1821 131.271 27.1821C130.809 27.1821 130.395 27.2886 130.028 27.5017C129.661 27.7147 129.365 28.0165 129.14 28.4071C128.927 28.7977 128.821 29.2711 128.821 29.8274C128.821 30.3718 128.927 30.8453 129.14 31.2477C129.365 31.6383 129.661 31.9401 130.028 32.1531C130.395 32.3662 130.809 32.4727 131.271 32.4727ZM144.041 34.7451C143.236 34.7451 142.532 34.5676 141.928 34.2125C141.325 33.8575 140.851 33.3189 140.508 32.597C140.177 31.8631 140.011 30.9399 140.011 29.8274C140.011 28.703 140.171 27.7798 140.49 27.0578C140.81 26.3358 141.271 25.7973 141.875 25.4422C142.479 25.0872 143.201 24.9096 144.041 24.9096C144.94 24.9096 145.745 25.1167 146.455 25.531C147.177 25.9334 147.746 26.5015 148.16 27.2353C148.586 27.9692 148.799 28.8332 148.799 29.8274C148.799 30.8334 148.586 31.7034 148.16 32.4372C147.746 33.171 147.177 33.7391 146.455 34.1415C145.745 34.5439 144.94 34.7451 144.041 34.7451ZM138.395 38.0473V25.0516H141.041V27.0046L140.987 29.8451L141.165 32.668V38.0473H138.395ZM143.562 32.4727C144.023 32.4727 144.432 32.3662 144.787 32.1531C145.154 31.9401 145.443 31.6383 145.657 31.2477C145.881 30.8453 145.994 30.3718 145.994 29.8274C145.994 29.2711 145.881 28.7977 145.657 28.4071C145.443 28.0165 145.154 27.7147 144.787 27.5017C144.432 27.2886 144.023 27.1821 143.562 27.1821C143.1 27.1821 142.686 27.2886 142.319 27.5017C141.952 27.7147 141.662 28.0165 141.449 28.4071C141.236 28.7977 141.129 29.2711 141.129 29.8274C141.129 30.3718 141.236 30.8453 141.449 31.2477C141.662 31.6383 141.952 31.9401 142.319 32.1531C142.686 32.3662 143.1 32.4727 143.562 32.4727ZM152.435 34.6031V26.685L153.056 27.3241H149.204V25.0516H158.418V27.3241H154.565L155.187 26.685V34.6031H152.435ZM159.935 34.7451C159.461 34.7451 159.053 34.5854 158.71 34.2658C158.379 33.9344 158.213 33.5142 158.213 33.0053C158.213 32.4964 158.379 32.088 158.71 31.7803C159.053 31.4607 159.461 31.3009 159.935 31.3009C160.42 31.3009 160.829 31.4607 161.16 31.7803C161.491 32.088 161.657 32.4964 161.657 33.0053C161.657 33.5142 161.491 33.9344 161.16 34.2658C160.829 34.5854 160.42 34.7451 159.935 34.7451ZM164.581 34.7451C164.108 34.7451 163.7 34.5854 163.356 34.2658C163.025 33.9344 162.859 33.5142 162.859 33.0053C162.859 32.4964 163.025 32.088 163.356 31.7803C163.7 31.4607 164.108 31.3009 164.581 31.3009C165.067 31.3009 165.475 31.4607 165.806 31.7803C166.138 32.088 166.303 32.4964 166.303 33.0053C166.303 33.5142 166.138 33.9344 165.806 34.2658C165.475 34.5854 165.067 34.7451 164.581 34.7451ZM169.228 34.7451C168.754 34.7451 168.346 34.5854 168.003 34.2658C167.671 33.9344 167.506 33.5142 167.506 33.0053C167.506 32.4964 167.671 32.088 168.003 31.7803C168.346 31.4607 168.754 31.3009 169.228 31.3009C169.713 31.3009 170.121 31.4607 170.453 31.7803C170.784 32.088 170.95 32.4964 170.95 33.0053C170.95 33.5142 170.784 33.9344 170.453 34.2658C170.121 34.5854 169.713 34.7451 169.228 34.7451Z" fill="white"/>
<rect x="0.657543" y="0.657543" width="200.551" height="55.8912" rx="27.9456" stroke="white" stroke-width="1.31509"/>
</svg>
