<svg width="76" height="32" viewBox="0 0 76 32" fill="none" xmlns="http://www.w3.org/2000/svg">
<path d="M23.9773 18.8485C23.9773 18.1475 24.0371 17.3953 24.1568 16.5918C24.2936 15.7883 24.4645 14.9677 24.6697 14.1299C24.8749 13.2751 25.1056 12.4289 25.3621 11.5912C25.6185 10.7535 25.875 9.94139 26.1314 9.15497L16.9508 21.8232C16.8482 21.9429 16.6858 22.0454 16.4636 22.1309C16.2584 22.2335 16.0874 22.2848 15.9507 22.2848C15.7968 22.2848 15.6344 22.2421 15.4634 22.1566C15.3096 22.0711 15.1643 21.9514 15.0275 21.7976C14.9078 21.6608 14.8138 21.5069 14.7454 21.336C14.6941 21.165 14.6856 20.994 14.7198 20.8231L18.5407 6.00074C18.233 6.44524 17.8996 6.93248 17.5406 7.46246C17.1987 7.99244 16.8311 8.55661 16.4379 9.15497C15.8396 10.0611 15.207 11.0184 14.5402 12.0271C13.8735 13.0187 13.1897 13.9932 12.4887 14.9506C11.7878 15.8908 11.0783 16.7969 10.3602 17.6688C9.64221 18.5236 8.92418 19.2759 8.20614 19.9255C7.4881 20.5752 6.77861 21.0881 6.07767 21.4642C5.39383 21.8574 4.73562 22.054 4.10307 22.054C3.74405 22.054 3.3252 21.9856 2.8465 21.8488C2.38491 21.7121 1.94041 21.5155 1.51301 21.259C1.08561 21.0026 0.726586 20.6949 0.435952 20.3358C0.145318 19.9768 0 19.5751 0 19.1306C0 18.7886 0.111127 18.4809 0.333377 18.2074C0.53853 17.9338 0.837711 17.7971 1.23092 17.7971C1.48736 17.7971 1.69251 17.8911 1.84638 18.0791C2.01734 18.2501 2.17976 18.4553 2.33362 18.6946C2.47039 18.9169 2.6328 19.1306 2.82086 19.3357C3.00892 19.5409 3.29955 19.6434 3.69276 19.6434C4.15435 19.6434 4.65014 19.481 5.18012 19.1562C5.7101 18.8314 6.26573 18.3869 6.847 17.8227C7.42826 17.2585 8.02663 16.6003 8.64209 15.8481C9.25755 15.0959 9.87301 14.2924 10.4885 13.4375C11.121 12.5656 11.745 11.6681 12.3605 10.7449C12.9931 9.82172 13.6085 8.90708 14.2069 8.00098C14.9249 6.94103 15.6088 5.93235 16.2584 4.97497C16.9252 4.00049 17.5492 3.14569 18.1304 2.41055C18.7288 1.67542 19.2759 1.09415 19.7717 0.666749C20.2674 0.22225 20.7034 0 21.0795 0C21.4043 0 21.6779 0.119673 21.9001 0.359019C22.1395 0.581268 22.2591 0.854806 22.2591 1.17963C22.2591 1.35059 22.1993 1.71816 22.0796 2.28233C21.96 2.82941 21.7976 3.49616 21.5924 4.28258C21.4043 5.069 21.1906 5.9409 20.9513 6.89828C20.712 7.85567 20.4641 8.8216 20.2076 9.79608C19.9512 10.7706 19.6947 11.7194 19.4383 12.6426C19.1989 13.5487 18.9852 14.3607 18.7972 15.0788L29.2856 0.589816C29.3882 0.418855 29.5335 0.282087 29.7216 0.17951C29.9268 0.059837 30.1405 0 30.3627 0C30.6875 0 30.9611 0.119673 31.1833 0.359019C31.4227 0.581268 31.5423 0.854806 31.5423 1.17963C31.5423 1.38479 31.5081 1.63268 31.4398 1.92331C31.3714 2.21395 31.2773 2.52168 31.1577 2.84651C31.0551 3.17133 30.944 3.50471 30.8243 3.84663C30.7046 4.17145 30.5935 4.46209 30.4909 4.71853V4.66724C30.4567 4.75272 30.4225 4.84675 30.3883 4.94933C30.3542 5.0519 30.32 5.14593 30.2858 5.23141C30.1832 5.52205 30.0635 5.83833 29.9268 6.18025C29.5506 7.17182 29.166 8.22323 28.7728 9.33448C28.3796 10.4286 28.0205 11.5399 27.6957 12.6682C27.3709 13.7795 27.0973 14.8907 26.8751 16.002C26.6699 17.0961 26.5674 18.139 26.5674 19.1306C26.5674 19.2673 26.5759 19.4126 26.593 19.5665C26.6272 19.7033 26.6956 19.7717 26.7982 19.7717C26.9862 19.7717 27.2427 19.6862 27.5675 19.5152C27.9094 19.3443 28.2684 19.1391 28.6445 18.8998C29.0207 18.6433 29.3882 18.3869 29.7472 18.1304C30.1063 17.874 30.414 17.6517 30.6704 17.4637L31.0294 17.2072C31.3885 17.2072 31.7048 17.3269 31.9783 17.5663C32.2518 17.8056 32.3886 18.0962 32.3886 18.4382C32.3886 18.6433 32.2775 18.8827 32.0552 19.1562C31.833 19.4126 31.5509 19.6862 31.209 19.9768C30.867 20.2504 30.4824 20.5324 30.055 20.8231C29.6276 21.0966 29.2087 21.336 28.7984 21.5411C28.4052 21.7634 28.0376 21.9429 27.6957 22.0796C27.3538 22.2164 27.0888 22.2848 26.9007 22.2848C26.3537 22.2848 25.8921 22.1993 25.516 22.0283C25.1398 21.8574 24.8321 21.618 24.5928 21.3103C24.3705 21.0026 24.2081 20.6436 24.1055 20.2333C24.02 19.8059 23.9773 19.3443 23.9773 18.8485Z" fill="white"/>
<path d="M37.5455 18.1048C37.5455 18.2416 37.5455 18.3869 37.5455 18.5407C37.5455 18.6946 37.5626 18.8399 37.5968 18.9767C37.631 19.1135 37.6822 19.2331 37.7506 19.3357C37.819 19.4212 37.9216 19.4639 38.0584 19.4639C38.6738 19.4639 39.2294 19.2673 39.7252 18.8741C40.221 18.4809 40.6655 17.9766 41.0587 17.3611C41.469 16.7456 41.828 16.0704 42.1358 15.3352C42.4606 14.6001 42.7598 13.8906 43.0333 13.2068C43.2214 12.7281 43.4009 12.2836 43.5719 11.8733C43.7599 11.4459 43.948 11.0783 44.136 10.7706C44.3241 10.4457 44.5207 10.1978 44.7258 10.0269C44.931 9.83882 45.1532 9.74479 45.3926 9.74479C45.7174 9.74479 45.9995 9.86446 46.2388 10.1038C46.4953 10.3261 46.6235 10.6081 46.6235 10.9501C46.6235 11.1552 46.5551 11.5313 46.4184 12.0784C46.2816 12.6255 46.1106 13.258 45.9055 13.9761C45.7003 14.6941 45.4781 15.4378 45.2387 16.2071C44.9994 16.9764 44.7857 17.6774 44.5976 18.3099L44.3412 19.1306C44.8028 18.8741 45.2815 18.5835 45.7773 18.2587C46.2901 17.9338 46.7774 17.5919 47.239 17.2329H47.4954C47.8202 17.2329 48.1109 17.344 48.3673 17.5663C48.6238 17.7714 48.752 18.0535 48.752 18.4125C48.752 18.6519 48.6152 18.9254 48.3417 19.2331C48.0681 19.5238 47.7177 19.8315 47.2903 20.1563C46.88 20.4641 46.4269 20.7718 45.9311 21.0795C45.4353 21.3872 44.9737 21.6779 44.5463 21.9514C44.2557 22.1224 44.0078 22.2677 43.8027 22.3874C43.5975 22.5241 43.4351 22.6353 43.3154 22.7207L43.2385 23.0285C43.1188 23.4901 42.9735 24.02 42.8025 24.6184C42.6487 25.2339 42.4606 25.8579 42.2384 26.4904C42.0161 27.1401 41.7597 27.7812 41.469 28.4137C41.1784 29.0463 40.845 29.6019 40.4689 30.0806C40.0928 30.5764 39.6739 30.9782 39.2123 31.2859C38.7507 31.5936 38.2464 31.7475 37.6993 31.7475C36.7591 31.7475 36.0752 31.5423 35.6478 31.132C35.2204 30.7217 35.0067 30.0379 35.0067 29.0805C35.0067 28.636 35.1093 28.1744 35.3144 27.6957C35.5367 27.217 35.8188 26.7298 36.1607 26.234C36.5197 25.7553 36.9215 25.2766 37.366 24.7979C37.8105 24.3192 38.2635 23.8662 38.7251 23.4388C39.1867 23.0114 39.6227 22.6182 40.033 22.2591C40.4604 21.9001 40.8365 21.5838 41.1613 21.3103C41.2126 21.1223 41.2382 21.0111 41.2382 20.9769C41.2553 20.9427 41.2639 20.9256 41.2639 20.9256C41.281 20.9086 41.2981 20.8829 41.3152 20.8487C41.3323 20.7974 41.3665 20.6692 41.4177 20.4641C40.9732 20.8573 40.4775 21.1992 39.9304 21.4898C39.3833 21.7976 38.8106 21.9514 38.2122 21.9514C37.0497 21.9514 36.2291 21.6437 35.7504 21.0282C35.2888 20.4299 35.058 19.5921 35.058 18.5151C35.058 18.3612 35.058 18.2159 35.058 18.0791C35.0751 17.9253 35.0922 17.7714 35.1093 17.6175C34.6819 18.1988 34.1946 18.7202 33.6476 19.1818C33.1176 19.6263 32.4679 19.8486 31.6986 19.8486C31.5447 19.8486 31.3994 19.8059 31.2627 19.7204C31.143 19.6178 31.0319 19.5067 30.9293 19.387C30.8267 19.2502 30.7498 19.1135 30.6985 18.9767C30.6472 18.8228 30.6215 18.6861 30.6215 18.5664C30.6215 18.2245 30.7754 17.9766 31.0831 17.8227C31.4422 17.6688 31.8439 17.3868 32.2884 16.9764C32.7329 16.549 33.186 16.0618 33.6476 15.5147C34.1263 14.9506 34.5964 14.3607 35.058 13.7453C35.5367 13.1298 35.9726 12.5571 36.3658 12.0271C36.8445 11.4117 37.2634 10.8817 37.6224 10.4372C37.9814 9.99268 38.255 9.77043 38.443 9.77043C38.7849 9.77043 39.0756 9.89865 39.3149 10.1551C39.5543 10.3944 39.6739 10.6851 39.6739 11.027C39.6739 11.3176 39.597 11.6681 39.4431 12.0784C39.3064 12.4716 39.1269 12.9161 38.9046 13.4119C38.7507 13.7709 38.5883 14.1556 38.4174 14.5659C38.2635 14.9591 38.1182 15.3609 37.9814 15.7712C37.8618 16.1644 37.7592 16.5661 37.6737 16.9764C37.5882 17.3697 37.5455 17.7458 37.5455 18.1048ZM37.5711 29.0549C37.5711 29.1916 37.6395 29.26 37.7763 29.26C37.9472 29.26 38.1182 29.1489 38.2892 28.9266C38.4601 28.7215 38.6311 28.4565 38.802 28.1317C38.973 27.8068 39.1354 27.4393 39.2893 27.029C39.4602 26.6358 39.6141 26.2511 39.7509 25.875C39.4944 26.1485 39.238 26.4306 38.9815 26.7212C38.7251 27.0119 38.4858 27.294 38.2635 27.5675C38.0584 27.8581 37.8874 28.1317 37.7506 28.3881C37.631 28.6445 37.5711 28.8668 37.5711 29.0549Z" fill="white"/>
<path d="M57.8953 9.66786C58.1005 9.66786 58.3655 9.70205 58.6903 9.77043C59.0151 9.82172 59.3229 9.91575 59.6135 10.0525C59.9041 10.1722 60.152 10.3432 60.3572 10.5654C60.5794 10.7877 60.6905 11.0526 60.6905 11.3604C60.6905 11.7194 60.5538 12.01 60.2802 12.2323C60.0238 12.4374 59.7332 12.54 59.4083 12.54L58.998 12.5144C58.8613 12.4289 58.7245 12.3519 58.5877 12.2836C58.4681 12.1981 58.3484 12.1553 58.2287 12.1553C57.5278 12.1553 56.8354 12.3434 56.1515 12.7195C55.4677 13.0785 54.8522 13.5487 54.3051 14.1299C53.7581 14.6941 53.3136 15.3352 52.9717 16.0533C52.6468 16.7713 52.4844 17.4722 52.4844 18.1561C52.4844 18.3441 52.4844 18.5236 52.4844 18.6946C52.4844 18.8485 52.5015 18.9938 52.5357 19.1306C52.5699 19.1647 52.5955 19.2075 52.6126 19.2588C52.6297 19.293 52.6554 19.3272 52.6896 19.3614C52.8263 19.3955 52.9717 19.4212 53.1255 19.4383C53.2794 19.4554 53.4418 19.4639 53.6128 19.4639C54.0231 19.4639 54.4248 19.4041 54.818 19.2844C55.2283 19.1647 55.613 19.0194 55.972 18.8485C56.3481 18.6775 56.6986 18.498 57.0234 18.3099C57.3654 18.1048 57.6645 17.9167 57.921 17.7458C58.1945 17.5577 58.4253 17.4124 58.6134 17.3098C58.8185 17.2072 58.9895 17.156 59.1263 17.156C59.2801 17.156 59.4083 17.2072 59.5109 17.3098C59.6135 17.4124 59.699 17.5321 59.7674 17.6688C59.8357 17.8056 59.887 17.9509 59.9212 18.1048C59.9554 18.2416 59.9725 18.3527 59.9725 18.4382C59.9725 18.7288 59.8443 19.028 59.5879 19.3357C59.3314 19.6263 58.998 19.8999 58.5877 20.1563C58.1945 20.4128 57.75 20.6521 57.2542 20.8744C56.7755 21.0966 56.2883 21.2847 55.7925 21.4385C55.3138 21.6095 54.8693 21.7377 54.459 21.8232C54.0487 21.9258 53.7239 21.9771 53.4845 21.9771C51.3988 21.9771 50.2363 21.0282 49.9969 19.1306C49.7576 19.3699 49.5268 19.558 49.3045 19.6947C49.0823 19.8144 48.8686 19.8742 48.6634 19.8742C48.3386 19.8742 48.0907 19.746 47.9198 19.4896C47.7488 19.2331 47.6633 18.9767 47.6633 18.7202C47.6633 18.5664 47.6804 18.4382 47.7146 18.3356C47.7488 18.233 47.8001 18.1219 47.8685 18.0022C47.9539 17.8654 48.0651 17.7287 48.2018 17.5919C48.3557 17.438 48.501 17.2927 48.6378 17.156C48.8258 16.985 48.9968 16.814 49.1507 16.6431L50.2277 15.1814C50.4671 14.8736 50.7064 14.5402 50.9458 14.1812C51.1851 13.8222 51.433 13.4974 51.6894 13.2068C52.4075 12.181 53.2965 11.3347 54.3564 10.668C55.4335 10.0012 56.6131 9.66786 57.8953 9.66786Z" fill="white"/>
<path d="M71.6077 9.6935C71.8813 9.6935 72.1548 9.79608 72.4284 10.0012C72.7019 10.2064 72.8387 10.4628 72.8387 10.7706C72.8387 11.2151 72.7104 11.745 72.454 12.3605C72.2147 12.9589 71.9411 13.6085 71.6334 14.3095C71.4453 14.7198 71.2573 15.1301 71.0692 15.5404C70.8812 15.9507 70.7102 16.361 70.5563 16.7713C70.4196 17.1645 70.2999 17.5406 70.1973 17.8996C70.1118 18.2587 70.0691 18.592 70.0691 18.8998C70.0691 18.9681 70.0691 19.0365 70.0691 19.1049C70.0691 19.1733 70.0862 19.2331 70.1204 19.2844C70.5136 19.2844 70.9154 19.1477 71.3257 18.8741C71.7531 18.5835 72.1634 18.2928 72.5566 18.0022C72.8985 17.7458 73.2148 17.5235 73.5054 17.3355C73.7961 17.1474 74.0867 17.0534 74.3773 17.0534C74.7192 17.0534 74.933 17.173 75.0184 17.4124C75.121 17.6346 75.1723 17.8569 75.1723 18.0791C75.1723 18.5065 74.9757 18.9425 74.5825 19.387C74.1893 19.8315 73.7191 20.2333 73.1721 20.5923C72.625 20.9513 72.0608 21.2419 71.4795 21.4642C70.9154 21.6864 70.4452 21.7976 70.0691 21.7976C69.693 21.7976 69.3425 21.7121 69.0177 21.5411C68.71 21.3872 68.4364 21.1821 68.1971 20.9256C67.9748 20.6521 67.7953 20.3444 67.6586 20.0025C67.5389 19.6605 67.479 19.3186 67.479 18.9767C67.479 18.5493 67.5218 18.139 67.6073 17.7458C67.2141 18.2074 66.7867 18.669 66.3251 19.1306C65.8806 19.5922 65.4275 20.011 64.9659 20.3871C64.5214 20.7632 64.0855 21.071 63.6581 21.3103C63.2478 21.5497 62.8802 21.6693 62.5554 21.6693C62.0938 21.6693 61.6835 21.5753 61.3244 21.3872C60.9825 21.1992 60.6919 20.9513 60.4525 20.6436C60.2132 20.3358 60.0337 19.9939 59.914 19.6178C59.7943 19.2246 59.7345 18.8228 59.7345 18.4125C59.7345 18.1903 59.7687 17.9595 59.8371 17.7201C59.9055 17.4637 60.008 17.2329 60.1448 17.0277C60.2987 16.8226 60.4782 16.6602 60.6833 16.5405C60.8885 16.4037 61.1278 16.3353 61.4014 16.3353C61.692 16.3353 61.9143 16.4465 62.0681 16.6687C62.222 16.8739 62.2989 17.0876 62.2989 17.3098C62.2989 17.4124 62.2818 17.5235 62.2476 17.6432C62.2134 17.7458 62.1792 17.8569 62.1451 17.9766C62.0938 18.1133 62.0681 18.2672 62.0681 18.4382C62.0681 18.5578 62.1023 18.7202 62.1707 18.9254C62.2391 19.1306 62.3246 19.2331 62.4271 19.2331C62.5981 19.2331 62.8118 19.1477 63.0682 18.9767C63.3247 18.8057 63.5897 18.592 63.8632 18.3356C64.1367 18.0791 64.4017 17.8142 64.6582 17.5406C64.9146 17.25 65.1454 16.985 65.3506 16.7456C64.7009 16.4721 64.2308 16.0704 63.9401 15.5404C63.6666 14.9933 63.5298 14.3607 63.5298 13.6427C63.5298 12.9076 63.641 12.2665 63.8632 11.7194C64.1026 11.1723 64.4274 10.7193 64.8377 10.3602C65.2651 9.98413 65.7694 9.7106 66.3507 9.53963C66.932 9.35158 67.5645 9.25755 68.2484 9.25755C68.6929 9.25755 69.1374 9.33448 69.5819 9.48835C70.0264 9.62511 70.4196 9.83882 70.7615 10.1294C70.8812 10.0269 71.0179 9.93285 71.1718 9.84736C71.3257 9.74479 71.471 9.6935 71.6077 9.6935ZM66.8892 14.8223C67.0773 14.583 67.2653 14.3436 67.4534 14.1043C67.6415 13.865 67.8295 13.6256 68.0176 13.3863L69.1716 11.9758C69.069 11.8562 68.9322 11.7707 68.7613 11.7194C68.5903 11.651 68.4279 11.6168 68.274 11.6168C67.5731 11.6168 67.026 11.7792 66.6328 12.1041C66.2567 12.4289 66.0686 12.9503 66.0686 13.6683C66.0686 13.959 66.1455 14.2069 66.2994 14.412C66.4533 14.6001 66.6499 14.7369 66.8892 14.8223Z" fill="white"/>
</svg>
