<svg width="202" height="206" viewBox="0 0 202 206" fill="none" xmlns="http://www.w3.org/2000/svg">
<g clip-path="url(#clip0_1519_2209)">
<path d="M179.86 50.0919C213.075 92.5671 205.696 153.825 163.379 186.915C121.062 220.005 67.8595 206.121 34.6453 163.645C1.4311 121.17 -17.8438 79.6771 24.4728 46.5868C66.7894 13.4966 146.646 7.61677 179.86 50.0919Z" fill="#52B7CE"/>
<mask id="mask0_1519_2209" style="mask-type:alpha" maskUnits="userSpaceOnUse" x="0" y="19" width="204" height="188">
<path d="M182.312 49.3296C215.833 92.1971 208.256 154.122 165.388 187.643C122.521 221.165 68.7268 207.229 35.2058 164.362C1.68485 121.494 -17.7371 79.5939 25.1306 46.0727C67.9983 12.5515 148.791 6.46216 182.312 49.3296Z" fill="#52B7CE"/>
</mask>
<g mask="url(#mask0_1519_2209)">
<path d="M61.5681 163.776L61.4488 163.718C51.2794 158.833 30.4734 145.775 28.8852 119.642L28.8852 119.642C27.8706 102.386 27.1075 90.8424 24.9163 81.4226C22.7269 72.0107 19.1111 64.7177 12.3829 55.9704C5.63781 47.2012 3.1661 40.5917 3.17767 35.7025C3.18926 30.802 5.69526 27.6501 8.84292 25.8083C10.4481 24.869 13.1811 24.8218 16.4403 25.8341C19.7074 26.8487 23.5297 28.9353 27.3357 32.3063C34.9492 39.0499 42.5008 50.936 45.4223 69.6854L45.4223 69.6854C46.826 78.7236 47.2341 87.5519 47.483 95.9527C47.5268 97.4306 47.5657 98.895 47.6042 100.345C47.7845 107.14 47.9564 113.618 48.5873 119.664C50.1177 134.332 54.3452 146.428 67.9184 154.298L68.0577 154.379L67.9507 154.499L66.6086 156.008L61.5681 163.776ZM61.5681 163.776L61.6247 163.656M61.5681 163.776L61.6247 163.656M61.6247 163.656C62.8843 160.989 64.5381 158.368 66.6081 156.009L61.6247 163.656Z" fill="#F5F0EB" stroke="#B1B1B1" stroke-width="0.263017"/>
<mask id="mask1_1519_2209" style="mask-type:alpha" maskUnits="userSpaceOnUse" x="3" y="25" width="65" height="139">
<path d="M67.6473 154.445L66.4115 155.834L66.4109 155.835C64.354 158.179 62.7056 160.778 61.4437 163.424C51.2523 158.504 30.7207 145.507 29.1478 119.627C28.1336 102.378 27.3699 90.8092 25.1725 81.363C22.9733 71.909 19.3388 64.5824 12.5913 55.81C5.86072 47.0596 3.42932 40.5071 3.44069 35.7031C3.45202 30.9105 5.89498 27.8379 8.97576 26.0353C10.4848 25.1523 13.1275 25.0806 16.3623 26.0852C19.5892 27.0874 23.3794 29.1535 27.1613 32.5032C34.7235 39.2012 42.2492 51.0292 45.1624 69.7258C46.5634 78.747 46.9712 87.5617 47.2201 95.9605C47.2639 97.4362 47.3027 98.8992 47.3411 100.348C47.5215 107.144 47.6937 113.634 48.3257 119.692C49.8548 134.347 54.079 146.512 67.6473 154.445Z" fill="#F5F0EB" stroke="#B1B1B1" stroke-width="0.263017"/>
</mask>
<g mask="url(#mask1_1519_2209)">
<path d="M-2.51497 39.5416C-1.70037 24.4888 14.013 16.6869 20.6743 16.0632C34.6683 12.7118 63.1883 66.3259 45.7936 51.8132C20.7253 30.8985 8.58359 53.6818 20.142 68.6681C17.6855 69.423 -3.32956 54.5944 -2.51497 39.5416Z" fill="#393023"/>
</g>
<path d="M127.558 37.0744C128.178 36.5652 128.624 36.2984 129.201 36.0523C129.267 36.0626 129.277 35.9969 129.343 36.0072C130.194 35.7366 131.419 35.6595 134.108 35.2734C138.654 34.6401 145.239 29.6105 141.88 30.8346C141.88 30.8346 139.051 32.5462 134.4 32.5567C129.749 32.5672 127.406 32.4686 126.785 35.1336C126.775 35.1994 126.765 35.2651 126.754 35.3309C126.754 35.3309 126.754 35.3309 126.744 35.3966C126.078 37.9198 125.93 38.4356 127.558 37.0744Z" fill="#191818"/>
<path d="M125.966 41.2039C127.251 38.1716 128.396 36.4647 129.191 36.118C128.624 36.2984 128.243 36.5756 127.548 37.1401C125.919 38.5013 126.078 37.9198 126.658 35.5178C126.402 36.2862 124.566 42.3988 123.993 44.3302C123.465 46.4034 124.585 44.4232 125.966 41.2039Z" fill="#3A2823"/>
<path d="M99.213 35.653C101.919 36.0108 103.124 36.0652 103.968 36.2653C104.034 36.2756 104.1 36.2859 104.1 36.2859C104.615 36.4343 105.1 36.78 105.696 37.2779C107.316 38.5431 107.191 38.0519 106.601 35.8031C106.601 35.8031 106.612 35.7373 106.546 35.7269L106.556 35.6612C106.501 35.5851 106.521 35.4536 106.466 35.3775C105.73 32.7689 103.422 32.8779 98.7611 32.9542C94.0999 33.0304 91.2611 31.3716 91.2611 31.3716C87.945 30.1768 94.5997 34.9956 99.213 35.653Z" fill="#191818"/>
<path d="M110.857 48.6001C110.892 48.8077 111.058 49.0359 111.411 49.3609C112.415 50.2599 113.925 51.373 114.933 52.6768C115.941 53.9806 116.771 53.8415 116.771 53.8415C116.771 53.8415 117.56 53.9655 118.577 52.6429C119.593 51.3202 120.994 50.1252 122.004 49.2732C122.318 48.9857 122.491 48.7434 122.588 48.5565C122.716 48.1723 122.407 47.9891 122.407 47.9891C122.407 47.9891 122.044 47.7298 121.117 48.0558C121.051 48.0455 121.041 48.1112 120.975 48.1009C119.83 48.5274 117.937 48.567 116.722 48.5783C115.508 48.5896 113.559 48.553 112.473 48.1801C112.407 48.1698 112.341 48.1595 112.341 48.1595C111.452 47.8176 111.071 48.0946 111.071 48.0946C111.071 48.0946 110.722 48.1745 110.857 48.6001Z" fill="#191818"/>
<path d="M104.1 36.2859C104.858 36.6072 106.001 38.3366 107.419 41.3219C108.871 44.5147 110.049 46.4517 109.428 44.4001C108.852 42.4904 106.938 36.6644 106.677 35.7476C107.267 37.9964 107.392 38.4877 105.772 37.2224C105.1 36.78 104.605 36.5001 104.1 36.2859Z" fill="#3A2823"/>
<path d="M97.1421 56.5522C97.1768 56.7598 98.8209 61.7347 107.452 62.5517C107.846 62.6137 108.251 62.6098 108.58 62.6615C109.051 62.6681 109.456 62.6643 109.784 62.716C114.172 62.6642 116.019 61.2024 116.786 60.1776C117.573 61.177 119.435 62.6152 123.813 62.6291C124.218 62.6254 124.557 62.6113 125.028 62.6179C125.432 62.6141 125.782 62.5342 126.187 62.5305C134.823 61.5965 136.352 56.5811 136.383 56.3839C136.491 56.1312 136.335 55.8371 136.016 55.7197C135.763 55.6126 135.459 55.8343 135.352 56.087C135.321 56.2843 133.895 60.6421 126.013 61.4925C118.262 62.3635 117.159 59.0908 117.17 59.025C117.17 59.025 117.17 59.0249 117.114 58.9489C117.125 58.8831 117.059 58.8728 117.059 58.8728C117.059 58.8728 116.993 58.8625 117.003 58.7967C116.938 58.7864 116.948 58.7206 116.882 58.7103L116.816 58.7L116.751 58.6896C116.751 58.6896 116.751 58.6896 116.685 58.6793L116.619 58.669C116.553 58.6586 116.553 58.6586 116.477 58.7141C116.412 58.7037 116.401 58.7695 116.335 58.7591C116.335 58.7591 116.335 58.7591 116.259 58.8145C116.249 58.8803 116.183 58.87 116.173 58.9358L116.163 59.0015L116.152 59.0673C116.142 59.133 115.089 62.4039 107.389 61.6658C99.4155 60.9521 97.9725 56.4132 97.9725 56.4132C97.8823 56.1295 97.5742 55.9463 97.3563 56.0468C97.2351 55.9604 97.0519 56.2685 97.1421 56.5522Z" fill="#513934"/>
<path d="M91.9054 22.9829C92.1891 22.8927 92.4831 22.7368 92.7113 22.5705C92.4831 22.7368 92.1891 22.8927 91.9054 22.9829Z" fill="#D7B397"/>
<path d="M83.9666 22.4769C84.0323 22.4872 84.0878 22.5633 84.2193 22.5839C84.0878 22.5633 84.022 22.553 83.9666 22.4769Z" fill="#D7B397"/>
<path d="M151.028 33.0804C150.847 32.513 150.667 31.9456 150.421 31.3679C150.934 32.3918 151.028 33.0804 151.028 33.0804ZM92.7113 22.5705C92.483 22.7368 92.1994 22.8269 91.9054 22.9829C92.189 22.8927 92.483 22.7368 92.7113 22.5705ZM82.8181 31.9316C82.5936 32.5028 82.3691 33.074 82.2104 33.6554C82.2104 33.6554 82.2479 32.9875 82.8181 31.9316Z" fill="#D7B397"/>
<mask id="path-15-inside-1_1519_2209" fill="white">
<path d="M35.6003 217.96C31.8002 208.266 22.8422 168.79 59.0742 152.179C60.3818 151.576 61.2563 150.299 61.276 148.887C61.3182 145.188 61.5096 137.536 62.1772 128.141C65.8117 129.453 69.2366 128.239 69.5108 124.779C70.0977 118.47 74.375 95.9633 75.4394 98.6236C75.4394 98.6236 79.8792 112.393 88.4566 110.978C92.6086 110.282 94.3792 108.876 94.8902 107.339C94.8902 107.339 95.607 107.924 96.9325 108.065C98.1818 108.261 100.03 108.079 102.184 106.801C104.339 105.522 105.203 103.03 104.533 100.432C104.609 100.376 105.542 99.5799 106.427 98.2365C107.851 96.0346 109.118 92.2583 106.011 87.5926C100.949 79.9246 97.7283 80.6987 92.1859 77.8065C87.7097 75.4188 80.3271 73.5177 72.7943 74.2882C72.9013 74.0355 73.0085 73.7828 73.1813 73.5405C75.6866 73.4624 78.3441 73.2735 81.0532 72.7558C88.229 71.2555 85.425 69.8042 85.425 69.8042C82.7214 68.5709 79.3341 69.1168 76.5648 67.8732C73.1586 66.3947 70.5601 62.3479 71.1628 49.5058C72.2039 26.1539 80.8376 21.3788 80.8376 21.3788C80.8376 21.3788 81.7271 21.7207 82.9868 21.8512C83.0423 21.9273 83.0423 21.9273 83.0977 22.0034C83.1531 22.0795 83.1531 22.0795 83.2085 22.1556C83.264 22.2317 83.3852 22.3181 83.4406 22.3942C83.496 22.4703 83.6172 22.5567 83.683 22.567C83.7487 22.5773 83.8041 22.6534 83.8699 22.6637C83.9356 22.6741 83.9911 22.7501 84.0568 22.7605C84.178 22.8469 84.3752 22.8779 84.5725 22.9089C84.704 22.9296 84.8356 22.9503 84.9671 22.9709C85.0986 22.9916 85.2301 23.0123 85.3616 23.0329C85.4931 23.0536 85.6246 23.0742 85.7561 23.0949C85.8877 23.1156 86.0191 23.1362 86.2164 23.1672C86.4794 23.2085 86.8186 23.1944 87.1474 23.246C87.2789 23.2667 87.3446 23.277 87.4761 23.2977C87.881 23.2939 88.2756 23.3559 88.7359 23.4282C88.9331 23.4592 89.1304 23.4902 89.3277 23.5212C89.4592 23.5419 89.5907 23.5626 89.7222 23.5832C89.788 23.5935 89.8537 23.6039 89.9195 23.6142C90.1825 23.6555 90.4558 23.6311 90.7292 23.6067C90.9368 23.5719 91.1444 23.5371 91.352 23.5024C91.5596 23.4676 91.7775 23.3671 91.9194 23.322C92.203 23.2318 92.4971 23.0759 92.7254 22.9096C92.8015 22.8542 92.8775 22.7987 92.9536 22.7433C93.0297 22.6879 93.1058 22.6325 93.1819 22.5771C93.2476 22.5874 93.2579 22.5216 93.334 22.4662C93.4101 22.4108 93.4102 22.4108 93.4759 22.4211C93.552 22.3657 93.6281 22.3102 93.6384 22.2445C93.7145 22.1891 93.8009 22.0679 93.877 22.0125C93.9531 21.9571 94.0292 21.9016 94.1052 21.8462C94.1917 21.725 94.3335 21.6799 94.4199 21.5587L94.5063 21.4376C94.5824 21.3822 94.6586 21.3267 94.6689 21.261C94.745 21.2055 94.7553 21.1397 94.8314 21.0843C94.9075 21.0289 94.9835 20.9735 95.0042 20.842C95.0803 20.7866 95.0906 20.7208 95.1667 20.6654C95.2428 20.61 95.2531 20.5442 95.3292 20.4887C95.4156 20.3676 95.5021 20.2464 95.5782 20.191C95.7613 19.8828 95.9445 19.5748 96.0516 19.3221C96.0619 19.2563 96.0722 19.1905 96.0722 19.1905C96.0826 19.1248 96.1032 18.9932 96.1136 18.9275C97.5386 18.0059 98.5549 16.6833 98.5549 16.6833C103.418 13.6067 116.44 13.4964 116.44 13.4964C116.44 13.4964 129.461 13.3861 134.381 16.3826C134.381 16.3826 135.389 17.6864 136.874 18.5261C136.864 18.5919 136.919 18.668 136.909 18.7338C136.898 18.7995 136.964 18.8098 136.954 18.8756C136.943 18.9413 137.009 18.9517 136.999 19.0175C136.988 19.0832 137.054 19.0935 137.044 19.1593C137.099 19.2354 137.089 19.3011 137.155 19.3114C137.2 19.4533 137.321 19.5397 137.366 19.6815C137.411 19.8234 137.532 19.9098 137.643 20.062C137.754 20.2142 137.865 20.3663 137.986 20.4527C138.042 20.5288 138.097 20.605 138.163 20.6153C138.395 20.8539 138.682 21.1686 138.98 21.4175C139.035 21.4936 139.101 21.5039 139.222 21.5903C139.222 21.5903 139.288 21.6006 139.278 21.6664C139.278 21.6664 139.344 21.6768 139.333 21.7425C139.399 21.7529 139.454 21.8289 139.51 21.905C139.631 21.9914 139.752 22.0779 139.808 22.154C139.873 22.1643 139.929 22.2404 139.995 22.2507C140.182 22.3474 140.368 22.4441 140.49 22.5306C140.555 22.5409 140.677 22.6274 140.742 22.6377C140.874 22.6584 140.995 22.7448 141.126 22.7654C141.192 22.7758 141.248 22.8518 141.379 22.8725C141.511 22.8932 141.576 22.9035 141.708 22.9242C141.905 22.9551 142.103 22.9861 142.3 23.0171C142.366 23.0275 142.431 23.0378 142.563 23.0585C142.892 23.1101 143.307 23.0406 143.712 23.0368C144.334 22.9325 145.013 22.9043 145.57 22.7897C145.777 22.755 146.051 22.7305 146.248 22.7615C146.379 22.7821 146.456 22.7267 146.587 22.7474C146.795 22.7126 147.002 22.6779 147.2 22.7089L147.265 22.7192C147.407 22.6741 147.539 22.6948 147.681 22.6497C147.822 22.6046 147.954 22.6253 148.096 22.5802C148.369 22.5557 148.587 22.4552 148.795 22.4204C148.936 22.3753 149.013 22.32 149.089 22.2645C149.154 22.2749 149.165 22.209 149.23 22.2194C149.307 22.1639 149.306 22.164 149.383 22.1086C149.459 22.0531 149.535 21.9977 149.611 21.9422C149.687 21.8868 149.763 21.8315 149.839 21.776C149.839 21.776 149.849 21.7103 149.915 21.7206C149.991 21.6652 150.002 21.5994 150.012 21.5336C151.247 21.3908 152.109 21.0545 152.185 20.999C152.185 20.999 160.895 25.6018 162.349 48.9414C163.144 61.4641 160.797 65.6772 157.508 67.3165C154.664 68.689 151.169 68.2072 148.467 69.5347C148.467 69.5347 143.624 71.1993 151.702 73.8162C155.029 74.9452 158.47 76.6314 161.631 78.8125C163.154 83.7009 164.961 89.7795 166.448 96.6162C159.066 91.2789 149.686 88.7946 142.034 87.3228C129.152 84.8273 119.146 104.345 114.21 116.035C111.298 122.989 113.287 126.199 115.402 127.744C116.79 128.77 118.237 128.998 118.369 129.018C118.997 131.88 121.099 134.366 124.426 135.495C127.368 136.497 129.631 136.246 131.202 135.684C133.274 134.931 134.29 133.609 134.29 133.609C135.634 134.494 137.627 134.672 140.45 133.431C146.607 130.693 146.058 118.747 146.058 118.747C146.026 117.664 149.489 120.499 158.107 126.974C161.479 129.525 166.062 130.38 169.981 129.446C169.735 155.888 166.347 169.303 174.37 175.28C182.756 181.516 197.981 190.107 197.082 213.414C196.332 232.769 188.329 242.966 186.011 247.857C185.848 248.034 183.172 250.915 183.698 255.714C184.269 260.655 179.939 258.628 175.359 256.897C170.856 255.112 171.126 255.963 169.017 257.383C166.962 258.88 164.699 259.131 159.672 255.106C156.441 252.51 154.54 250.459 152.304 250.108C151.6 248.583 151.741 247.257 152.744 245.595C155.094 241.787 152.486 239.087 145.31 240.587C141.203 241.424 133.438 237.239 126.735 231.874C121.707 227.85 117.253 223.175 115.271 219.494C111.217 211.85 115.006 216.892 102.383 226.902C100.765 228.198 98.7969 229.573 96.5452 231.039C85.2317 238.29 78.2635 239.756 73.7273 240.323C71.9622 239.978 70.0758 239.547 68.1548 238.909C62.0423 237.072 61.9484 241.1 55.9826 245.621C50.0825 250.152 49.8907 243.653 43.6073 244.62C39.1162 245.329 36.0895 242.293 35.4496 238.217C37.1367 236.057 38.464 234.042 39.176 232.941C41.4398 229.254 39.4351 227.861 35.6003 217.96ZM140.989 51.5149C150.687 49.4001 153.085 40.1416 151.028 33.0804C151.028 33.0804 151 32.4022 150.421 31.3679C149.541 29.6799 147.272 26.9652 141.747 24.817C136.663 22.8727 128.758 21.2938 116.546 21.3965C104.334 21.4993 96.4594 23.1594 91.4225 25.1979C85.9498 27.4376 83.7094 30.1177 82.8284 31.8659C82.2582 32.9217 82.2206 33.5896 82.2206 33.5896C80.3055 40.6331 82.8214 49.9225 92.5571 51.8564C106.996 54.7314 110.394 49.4031 110.867 48.5342C110.902 48.7418 111.068 48.97 111.421 49.2951C112.426 50.194 113.935 51.3072 114.943 52.611C115.951 53.9148 116.782 53.7757 116.782 53.7757C116.782 53.7757 117.571 53.8997 118.587 52.5771C119.603 51.2544 121.004 50.0595 122.014 49.2074C122.329 48.92 122.501 48.6776 122.598 48.4907C123.132 49.3831 126.617 54.6472 140.989 51.5149ZM116.863 60.1221C117.649 61.1216 119.512 62.5597 123.889 62.5737C124.294 62.5699 124.633 62.5558 125.104 62.5624C125.509 62.5586 125.858 62.4788 126.263 62.475C134.9 61.541 136.429 56.5257 136.46 56.3284C136.567 56.0757 136.411 55.7817 136.092 55.6643C135.84 55.5572 135.535 55.7789 135.428 56.0316C135.397 56.2288 133.971 60.5867 126.089 61.437C118.339 62.3081 117.236 59.0352 117.246 58.9695C117.246 58.9695 117.246 58.9695 117.19 58.8934C117.201 58.8277 117.135 58.8173 117.135 58.8173C117.135 58.8173 117.069 58.807 117.08 58.7413C117.014 58.7309 117.024 58.6652 116.958 58.6549L116.893 58.6445L116.827 58.6342C116.827 58.6342 116.827 58.6342 116.761 58.6239L116.695 58.6135C116.63 58.6032 116.63 58.6032 116.554 58.6586C116.488 58.6483 116.478 58.714 116.412 58.7037C116.412 58.7037 116.412 58.7037 116.336 58.7591C116.325 58.8249 116.26 58.8146 116.249 58.8803L116.239 58.9461L116.229 59.0118C116.218 59.0776 115.165 62.3485 107.465 61.6104C99.4918 60.8967 98.0488 56.3577 98.0488 56.3577C97.9586 56.074 97.6505 55.8908 97.4326 55.9914C97.1489 56.0816 97.0314 56.4 97.0662 56.6076C97.101 56.8152 98.7451 61.7901 107.376 62.6071C107.771 62.6691 108.175 62.6653 108.504 62.717C108.975 62.7235 109.38 62.7197 109.709 62.7714C114.248 62.6087 116.095 61.147 116.863 60.1221ZM93.9853 191.152C97.4518 199.108 106.456 208.272 114.762 209.442C114.762 209.442 132.199 205.242 134.976 193.145C137.752 181.049 131.091 181.417 124.733 183.72C118.364 186.088 115.413 187.713 108.472 183.86C101.465 179.997 90.5187 183.196 93.9853 191.152Z"/>
</mask>
<path d="M35.6003 217.96C31.8002 208.266 22.8422 168.79 59.0742 152.179C60.3818 151.576 61.2563 150.299 61.276 148.887C61.3182 145.188 61.5096 137.536 62.1772 128.141C65.8117 129.453 69.2366 128.239 69.5108 124.779C70.0977 118.47 74.375 95.9633 75.4394 98.6236C75.4394 98.6236 79.8792 112.393 88.4566 110.978C92.6086 110.282 94.3792 108.876 94.8902 107.339C94.8902 107.339 95.607 107.924 96.9325 108.065C98.1818 108.261 100.03 108.079 102.184 106.801C104.339 105.522 105.203 103.03 104.533 100.432C104.609 100.376 105.542 99.5799 106.427 98.2365C107.851 96.0346 109.118 92.2583 106.011 87.5926C100.949 79.9246 97.7283 80.6987 92.1859 77.8065C87.7097 75.4188 80.3271 73.5177 72.7943 74.2882C72.9013 74.0355 73.0085 73.7828 73.1813 73.5405C75.6866 73.4624 78.3441 73.2735 81.0532 72.7558C88.229 71.2555 85.425 69.8042 85.425 69.8042C82.7214 68.5709 79.3341 69.1168 76.5648 67.8732C73.1586 66.3947 70.5601 62.3479 71.1628 49.5058C72.2039 26.1539 80.8376 21.3788 80.8376 21.3788C80.8376 21.3788 81.7271 21.7207 82.9868 21.8512C83.0423 21.9273 83.0423 21.9273 83.0977 22.0034C83.1531 22.0795 83.1531 22.0795 83.2085 22.1556C83.264 22.2317 83.3852 22.3181 83.4406 22.3942C83.496 22.4703 83.6172 22.5567 83.683 22.567C83.7487 22.5773 83.8041 22.6534 83.8699 22.6637C83.9356 22.6741 83.9911 22.7501 84.0568 22.7605C84.178 22.8469 84.3752 22.8779 84.5725 22.9089C84.704 22.9296 84.8356 22.9503 84.9671 22.9709C85.0986 22.9916 85.2301 23.0123 85.3616 23.0329C85.4931 23.0536 85.6246 23.0742 85.7561 23.0949C85.8877 23.1156 86.0191 23.1362 86.2164 23.1672C86.4794 23.2085 86.8186 23.1944 87.1474 23.246C87.2789 23.2667 87.3446 23.277 87.4761 23.2977C87.881 23.2939 88.2756 23.3559 88.7359 23.4282C88.9331 23.4592 89.1304 23.4902 89.3277 23.5212C89.4592 23.5419 89.5907 23.5626 89.7222 23.5832C89.788 23.5935 89.8537 23.6039 89.9195 23.6142C90.1825 23.6555 90.4558 23.6311 90.7292 23.6067C90.9368 23.5719 91.1444 23.5371 91.352 23.5024C91.5596 23.4676 91.7775 23.3671 91.9194 23.322C92.203 23.2318 92.4971 23.0759 92.7254 22.9096C92.8015 22.8542 92.8775 22.7987 92.9536 22.7433C93.0297 22.6879 93.1058 22.6325 93.1819 22.5771C93.2476 22.5874 93.2579 22.5216 93.334 22.4662C93.4101 22.4108 93.4102 22.4108 93.4759 22.4211C93.552 22.3657 93.6281 22.3102 93.6384 22.2445C93.7145 22.1891 93.8009 22.0679 93.877 22.0125C93.9531 21.9571 94.0292 21.9016 94.1052 21.8462C94.1917 21.725 94.3335 21.6799 94.4199 21.5587L94.5063 21.4376C94.5824 21.3822 94.6586 21.3267 94.6689 21.261C94.745 21.2055 94.7553 21.1397 94.8314 21.0843C94.9075 21.0289 94.9835 20.9735 95.0042 20.842C95.0803 20.7866 95.0906 20.7208 95.1667 20.6654C95.2428 20.61 95.2531 20.5442 95.3292 20.4887C95.4156 20.3676 95.5021 20.2464 95.5782 20.191C95.7613 19.8828 95.9445 19.5748 96.0516 19.3221C96.0619 19.2563 96.0722 19.1905 96.0722 19.1905C96.0826 19.1248 96.1032 18.9932 96.1136 18.9275C97.5386 18.0059 98.5549 16.6833 98.5549 16.6833C103.418 13.6067 116.44 13.4964 116.44 13.4964C116.44 13.4964 129.461 13.3861 134.381 16.3826C134.381 16.3826 135.389 17.6864 136.874 18.5261C136.864 18.5919 136.919 18.668 136.909 18.7338C136.898 18.7995 136.964 18.8098 136.954 18.8756C136.943 18.9413 137.009 18.9517 136.999 19.0175C136.988 19.0832 137.054 19.0935 137.044 19.1593C137.099 19.2354 137.089 19.3011 137.155 19.3114C137.2 19.4533 137.321 19.5397 137.366 19.6815C137.411 19.8234 137.532 19.9098 137.643 20.062C137.754 20.2142 137.865 20.3663 137.986 20.4527C138.042 20.5288 138.097 20.605 138.163 20.6153C138.395 20.8539 138.682 21.1686 138.98 21.4175C139.035 21.4936 139.101 21.5039 139.222 21.5903C139.222 21.5903 139.288 21.6006 139.278 21.6664C139.278 21.6664 139.344 21.6768 139.333 21.7425C139.399 21.7529 139.454 21.8289 139.51 21.905C139.631 21.9914 139.752 22.0779 139.808 22.154C139.873 22.1643 139.929 22.2404 139.995 22.2507C140.182 22.3474 140.368 22.4441 140.49 22.5306C140.555 22.5409 140.677 22.6274 140.742 22.6377C140.874 22.6584 140.995 22.7448 141.126 22.7654C141.192 22.7758 141.248 22.8518 141.379 22.8725C141.511 22.8932 141.576 22.9035 141.708 22.9242C141.905 22.9551 142.103 22.9861 142.3 23.0171C142.366 23.0275 142.431 23.0378 142.563 23.0585C142.892 23.1101 143.307 23.0406 143.712 23.0368C144.334 22.9325 145.013 22.9043 145.57 22.7897C145.777 22.755 146.051 22.7305 146.248 22.7615C146.379 22.7821 146.456 22.7267 146.587 22.7474C146.795 22.7126 147.002 22.6779 147.2 22.7089L147.265 22.7192C147.407 22.6741 147.539 22.6948 147.681 22.6497C147.822 22.6046 147.954 22.6253 148.096 22.5802C148.369 22.5557 148.587 22.4552 148.795 22.4204C148.936 22.3753 149.013 22.32 149.089 22.2645C149.154 22.2749 149.165 22.209 149.23 22.2194C149.307 22.1639 149.306 22.164 149.383 22.1086C149.459 22.0531 149.535 21.9977 149.611 21.9422C149.687 21.8868 149.763 21.8315 149.839 21.776C149.839 21.776 149.849 21.7103 149.915 21.7206C149.991 21.6652 150.002 21.5994 150.012 21.5336C151.247 21.3908 152.109 21.0545 152.185 20.999C152.185 20.999 160.895 25.6018 162.349 48.9414C163.144 61.4641 160.797 65.6772 157.508 67.3165C154.664 68.689 151.169 68.2072 148.467 69.5347C148.467 69.5347 143.624 71.1993 151.702 73.8162C155.029 74.9452 158.47 76.6314 161.631 78.8125C163.154 83.7009 164.961 89.7795 166.448 96.6162C159.066 91.2789 149.686 88.7946 142.034 87.3228C129.152 84.8273 119.146 104.345 114.21 116.035C111.298 122.989 113.287 126.199 115.402 127.744C116.79 128.77 118.237 128.998 118.369 129.018C118.997 131.88 121.099 134.366 124.426 135.495C127.368 136.497 129.631 136.246 131.202 135.684C133.274 134.931 134.29 133.609 134.29 133.609C135.634 134.494 137.627 134.672 140.45 133.431C146.607 130.693 146.058 118.747 146.058 118.747C146.026 117.664 149.489 120.499 158.107 126.974C161.479 129.525 166.062 130.38 169.981 129.446C169.735 155.888 166.347 169.303 174.37 175.28C182.756 181.516 197.981 190.107 197.082 213.414C196.332 232.769 188.329 242.966 186.011 247.857C185.848 248.034 183.172 250.915 183.698 255.714C184.269 260.655 179.939 258.628 175.359 256.897C170.856 255.112 171.126 255.963 169.017 257.383C166.962 258.88 164.699 259.131 159.672 255.106C156.441 252.51 154.54 250.459 152.304 250.108C151.6 248.583 151.741 247.257 152.744 245.595C155.094 241.787 152.486 239.087 145.31 240.587C141.203 241.424 133.438 237.239 126.735 231.874C121.707 227.85 117.253 223.175 115.271 219.494C111.217 211.85 115.006 216.892 102.383 226.902C100.765 228.198 98.7969 229.573 96.5452 231.039C85.2317 238.29 78.2635 239.756 73.7273 240.323C71.9622 239.978 70.0758 239.547 68.1548 238.909C62.0423 237.072 61.9484 241.1 55.9826 245.621C50.0825 250.152 49.8907 243.653 43.6073 244.62C39.1162 245.329 36.0895 242.293 35.4496 238.217C37.1367 236.057 38.464 234.042 39.176 232.941C41.4398 229.254 39.4351 227.861 35.6003 217.96ZM140.989 51.5149C150.687 49.4001 153.085 40.1416 151.028 33.0804C151.028 33.0804 151 32.4022 150.421 31.3679C149.541 29.6799 147.272 26.9652 141.747 24.817C136.663 22.8727 128.758 21.2938 116.546 21.3965C104.334 21.4993 96.4594 23.1594 91.4225 25.1979C85.9498 27.4376 83.7094 30.1177 82.8284 31.8659C82.2582 32.9217 82.2206 33.5896 82.2206 33.5896C80.3055 40.6331 82.8214 49.9225 92.5571 51.8564C106.996 54.7314 110.394 49.4031 110.867 48.5342C110.902 48.7418 111.068 48.97 111.421 49.2951C112.426 50.194 113.935 51.3072 114.943 52.611C115.951 53.9148 116.782 53.7757 116.782 53.7757C116.782 53.7757 117.571 53.8997 118.587 52.5771C119.603 51.2544 121.004 50.0595 122.014 49.2074C122.329 48.92 122.501 48.6776 122.598 48.4907C123.132 49.3831 126.617 54.6472 140.989 51.5149ZM116.863 60.1221C117.649 61.1216 119.512 62.5597 123.889 62.5737C124.294 62.5699 124.633 62.5558 125.104 62.5624C125.509 62.5586 125.858 62.4788 126.263 62.475C134.9 61.541 136.429 56.5257 136.46 56.3284C136.567 56.0757 136.411 55.7817 136.092 55.6643C135.84 55.5572 135.535 55.7789 135.428 56.0316C135.397 56.2288 133.971 60.5867 126.089 61.437C118.339 62.3081 117.236 59.0352 117.246 58.9695C117.246 58.9695 117.246 58.9695 117.19 58.8934C117.201 58.8277 117.135 58.8173 117.135 58.8173C117.135 58.8173 117.069 58.807 117.08 58.7413C117.014 58.7309 117.024 58.6652 116.958 58.6549L116.893 58.6445L116.827 58.6342C116.827 58.6342 116.827 58.6342 116.761 58.6239L116.695 58.6135C116.63 58.6032 116.63 58.6032 116.554 58.6586C116.488 58.6483 116.478 58.714 116.412 58.7037C116.412 58.7037 116.412 58.7037 116.336 58.7591C116.325 58.8249 116.26 58.8146 116.249 58.8803L116.239 58.9461L116.229 59.0118C116.218 59.0776 115.165 62.3485 107.465 61.6104C99.4918 60.8967 98.0488 56.3577 98.0488 56.3577C97.9586 56.074 97.6505 55.8908 97.4326 55.9914C97.1489 56.0816 97.0314 56.4 97.0662 56.6076C97.101 56.8152 98.7451 61.7901 107.376 62.6071C107.771 62.6691 108.175 62.6653 108.504 62.717C108.975 62.7235 109.38 62.7197 109.709 62.7714C114.248 62.6087 116.095 61.147 116.863 60.1221ZM93.9853 191.152C97.4518 199.108 106.456 208.272 114.762 209.442C114.762 209.442 132.199 205.242 134.976 193.145C137.752 181.049 131.091 181.417 124.733 183.72C118.364 186.088 115.413 187.713 108.472 183.86C101.465 179.997 90.5187 183.196 93.9853 191.152Z" fill="#F5F0EB" stroke="#BABABA" stroke-width="0.526034" mask="url(#path-15-inside-1_1519_2209)"/>
<path d="M80.9239 21.2576C80.9239 21.2576 81.8135 21.5995 83.0732 21.7301C83.0177 21.654 82.9623 21.5779 82.9727 21.5121C82.9172 21.436 82.9276 21.3703 82.8722 21.2942C82.8168 21.2181 82.827 21.1523 82.7716 21.0763C82.7819 21.0105 82.7265 20.9344 82.7369 20.8686C82.6918 20.7268 82.7021 20.661 82.657 20.5192C82.6674 20.4534 82.6119 20.3774 82.6222 20.3116C82.6325 20.2459 82.6326 20.2458 82.5771 20.1697C82.5771 20.1697 82.5875 20.104 82.5978 20.0383C82.6081 19.9725 82.6081 19.9725 82.6185 19.9068C82.6288 19.841 82.6391 19.7752 82.5837 19.6991C82.6044 19.5676 82.549 19.4915 82.5696 19.36C82.5423 15.2456 82.6491 5.55971 85.2042 7.30875C87.7039 8.9817 96.1407 18.3254 96.1407 18.3254C96.1961 18.4015 96.1858 18.4672 96.1651 18.5987C97.5901 17.6771 98.6065 16.3545 98.6065 16.3545C98.6065 16.3545 91.3375 9.0135 85.362 5.44688C79.3105 1.93568 80.9239 21.2576 80.9239 21.2576Z" fill="#513934"/>
<path d="M82.5593 19.4258C82.5386 19.5573 82.594 19.6334 82.5734 19.7649C82.563 19.8306 82.5527 19.8964 82.6081 19.9725C82.5978 20.0383 82.5978 20.0382 82.5874 20.104C82.5771 20.1697 82.5771 20.1698 82.5668 20.2355C82.5564 20.3013 82.5461 20.367 82.6119 20.3773C82.6015 20.4431 82.657 20.5192 82.6467 20.585C82.6918 20.7268 82.6711 20.8583 82.7265 20.9344C82.7162 21.0002 82.7716 21.0762 82.7613 21.142C82.8167 21.2181 82.8064 21.2839 82.8618 21.36C82.9172 21.436 82.9069 21.5017 82.9623 21.5778C83.0177 21.6539 83.0731 21.73 83.0628 21.7958C83.1182 21.8719 83.1183 21.8719 83.1737 21.9479C83.2291 22.024 83.2291 22.0241 83.2845 22.1002C83.3399 22.1762 83.4611 22.2626 83.5166 22.3387C83.572 22.4148 83.6932 22.5013 83.7589 22.5116C83.8247 22.5219 83.8801 22.598 83.9458 22.6083C84.0116 22.6187 84.0671 22.6947 84.1328 22.7051C84.254 22.7915 84.4513 22.8225 84.6486 22.8535C84.7801 22.8741 84.9116 22.8948 85.0431 22.9154C85.1746 22.9361 85.3061 22.9568 85.4376 22.9774C85.5691 22.9981 85.7006 23.0187 85.8321 23.0394C85.9636 23.0601 86.0952 23.0807 86.2925 23.1117C86.5555 23.1531 86.8945 23.139 87.2233 23.1906C87.3548 23.2113 87.4206 23.2216 87.5521 23.2423C87.957 23.2385 88.3515 23.3005 88.8118 23.3728C89.0091 23.4038 89.2064 23.4348 89.4036 23.4658C89.5352 23.4865 89.6667 23.5071 89.7982 23.5278C89.8639 23.5381 89.9297 23.5485 89.9955 23.5588C90.2585 23.6001 90.5318 23.5757 90.8052 23.5513C91.0128 23.5165 91.2204 23.4817 91.428 23.447C91.6356 23.4122 91.8536 23.3117 91.9954 23.2666C92.2791 23.1764 92.5731 23.0205 92.8013 22.8542C92.8774 22.7988 92.9535 22.7433 93.0296 22.6879C93.1057 22.6325 93.1818 22.577 93.2579 22.5216C93.3236 22.5319 93.3339 22.4662 93.41 22.4108C93.4861 22.3554 93.4861 22.3554 93.5519 22.3657C93.628 22.3103 93.704 22.2548 93.7144 22.1891C93.7905 22.1336 93.8769 22.0124 93.953 21.957C94.0291 21.9016 94.1051 21.8462 94.1812 21.7908C94.2676 21.6696 94.4095 21.6245 94.4959 21.5033L94.5823 21.3821C94.6584 21.3267 94.7345 21.2713 94.7449 21.2055C94.8209 21.1501 94.8313 21.0843 94.9073 21.0289C94.9834 20.9735 95.0596 20.918 95.0802 20.7865C95.1563 20.7311 95.1666 20.6654 95.2427 20.61C95.3188 20.5545 95.3291 20.4887 95.4052 20.4333C95.4916 20.3121 95.578 20.191 95.6541 20.1355C95.8373 19.8274 96.0205 19.5193 96.1276 19.2666C96.1379 19.2008 96.1482 19.1351 96.1482 19.1351C96.1585 19.0694 96.1792 18.9378 96.1895 18.8721C96.2102 18.7406 96.2205 18.6748 96.1651 18.5987C96.1651 18.5987 87.7283 9.25505 85.2286 7.5821C82.6387 5.62546 82.5422 15.2456 82.5593 19.4258Z" fill="#C9A7A8"/>
<path d="M134.356 16.1092C134.356 16.1092 135.364 17.413 136.849 18.2527C136.804 18.1109 136.815 18.0452 136.891 17.9898C136.891 17.9898 145.185 8.51215 147.61 6.8043C150.1 5.10679 150.408 14.7232 150.436 18.8376C150.415 18.9691 150.47 19.0452 150.45 19.1767C150.439 19.2425 150.429 19.3082 150.419 19.374C150.408 19.4397 150.408 19.4398 150.398 19.5055C150.388 19.5713 150.388 19.5712 150.377 19.637C150.367 19.7028 150.357 19.7686 150.357 19.7686C150.346 19.8343 150.336 19.9 150.326 19.9658C150.315 20.0315 150.295 20.1631 150.284 20.2288C150.274 20.2946 150.264 20.3603 150.264 20.3603C150.253 20.4261 150.243 20.4919 150.233 20.5576C150.212 20.6891 150.202 20.7549 150.115 20.8761C150.105 20.9418 150.029 20.9973 150.019 21.063C150.008 21.1288 149.932 21.1842 149.922 21.2499C151.157 21.1071 152.018 20.7708 152.095 20.7154C152.095 20.7154 153.381 1.3774 147.418 5.02234C141.531 8.61186 134.356 16.1092 134.356 16.1092Z" fill="#513934"/>
<path d="M136.849 18.2528C136.839 18.3185 136.895 18.3946 136.874 18.5261C136.864 18.5919 136.929 18.6023 136.919 18.668C136.909 18.7338 136.974 18.7441 136.964 18.8098C136.954 18.8756 137.02 18.8859 137.009 18.9516C137.065 19.0277 137.054 19.0935 137.12 19.1039C137.165 19.2457 137.286 19.3321 137.331 19.474C137.377 19.6158 137.498 19.7022 137.609 19.8544C137.719 20.0066 137.83 20.1588 137.951 20.2452C138.007 20.3213 138.062 20.3973 138.128 20.4077C138.36 20.6462 138.648 20.9609 138.945 21.2099C139.001 21.2859 139.067 21.2963 139.188 21.3827C139.188 21.3827 139.253 21.3931 139.243 21.4588C139.243 21.4588 139.309 21.4691 139.299 21.5349C139.364 21.5452 139.42 21.6213 139.475 21.6974C139.596 21.7838 139.718 21.8702 139.773 21.9463C139.839 21.9566 139.894 22.0327 139.96 22.043C140.147 22.1398 140.334 22.2366 140.455 22.323C140.521 22.3333 140.642 22.4197 140.708 22.4301C140.839 22.4507 140.96 22.5371 141.092 22.5578C141.158 22.5681 141.213 22.6442 141.345 22.6649C141.476 22.6855 141.542 22.6959 141.673 22.7165C141.871 22.7475 142.068 22.7785 142.265 22.8095C142.331 22.8198 142.397 22.8302 142.528 22.8508C142.857 22.9025 143.272 22.833 143.677 22.8292C144.3 22.7249 144.978 22.6967 145.535 22.5821C145.743 22.5473 146.016 22.5229 146.213 22.5539C146.345 22.5746 146.421 22.5192 146.552 22.5398C146.76 22.5051 146.968 22.4703 147.165 22.5013L147.231 22.5116C147.372 22.4665 147.504 22.4872 147.646 22.4421C147.788 22.397 147.919 22.4176 148.061 22.3725C148.334 22.3481 148.552 22.2476 148.76 22.2129C148.902 22.1678 148.978 22.1123 149.054 22.0569C149.12 22.0672 149.13 22.0015 149.196 22.0118C149.272 21.9564 149.272 21.9563 149.348 21.9009C149.424 21.8455 149.5 21.7901 149.576 21.7347C149.652 21.6793 149.728 21.6238 149.804 21.5684C149.804 21.5684 149.815 21.5026 149.881 21.513C149.957 21.4576 149.967 21.3918 149.977 21.326C149.988 21.2602 150.064 21.2049 150.074 21.1391C150.084 21.0734 150.16 21.0179 150.171 20.9521C150.181 20.8864 150.268 20.7652 150.288 20.6337C150.299 20.5679 150.309 20.5022 150.319 20.4365C150.33 20.3707 150.34 20.3049 150.34 20.3049C150.35 20.2391 150.361 20.1734 150.381 20.0419C150.392 19.9761 150.402 19.9104 150.412 19.8446C150.423 19.7789 150.423 19.7788 150.433 19.7131C150.433 19.7131 150.443 19.6474 150.454 19.5816C150.464 19.5158 150.464 19.5159 150.474 19.4501C150.485 19.3844 150.495 19.3186 150.505 19.2528C150.526 19.1213 150.536 19.0556 150.491 18.9137C150.464 14.7993 150.155 5.18295 147.665 6.88046C145.175 8.57798 136.946 18.0659 136.946 18.0659C136.815 18.0452 136.804 18.1109 136.849 18.2528Z" fill="#C9A7A8"/>
<path d="M73.2675 73.4193C75.7728 73.3413 78.4303 73.1524 81.1395 72.6347C88.3153 71.1343 85.5112 69.6831 85.5112 69.6831C82.8077 68.4498 79.4204 68.9956 76.6511 67.752C75.3858 69.3724 74.2764 71.2869 73.2675 73.4193Z" fill="#D7B397"/>
<path d="M151.567 73.3907C154.894 74.5197 158.335 76.2058 161.496 78.3869C159.241 71.2947 157.438 66.9013 157.438 66.9013C154.595 68.2738 151.099 67.7921 148.398 69.1195C148.398 69.1195 143.554 70.7842 151.567 73.3907Z" fill="#D7B397"/>
<path d="M93.9852 191.152C97.4518 199.109 106.456 208.272 114.762 209.442C114.762 209.442 132.199 205.242 134.976 193.145C137.752 181.049 131.091 181.417 124.733 183.72C118.364 186.088 115.413 187.713 108.472 183.86C101.465 179.997 90.5187 183.196 93.9852 191.152Z" fill="#D8CFC7"/>
<path d="M131.066 135.258C133.138 134.506 134.155 133.183 134.155 133.183C132.569 132.126 131.958 130.008 131.995 128.06C132.01 124.963 129.85 129.273 131.066 135.258Z" fill="#191818"/>
<path d="M118.233 128.593C117.56 125.59 118.492 122.232 121.282 119.908C125.996 116.067 118.218 117.54 115.267 127.318C116.655 128.345 118.102 128.572 118.233 128.593Z" fill="#191818"/>
<path d="M115.267 127.318C118.294 117.485 126.006 116.001 121.282 119.908C118.426 122.222 117.494 125.579 118.233 128.593C118.862 131.454 120.964 133.941 124.291 135.07C127.233 136.071 129.496 135.82 131.066 135.258C129.84 129.338 132.076 124.973 131.995 128.06C131.948 130.074 132.569 132.125 134.155 133.183C135.498 134.068 137.491 134.246 140.314 133.005C146.472 130.267 145.923 118.322 145.923 118.322C145.891 117.239 149.353 120.074 157.971 126.549C161.344 129.1 165.926 129.955 169.846 129.021C175.873 127.542 180.527 121.939 177.487 111.692C175.465 104.838 171.326 99.8757 166.302 96.2564C158.92 90.9191 149.54 88.4348 141.888 86.963C129.007 84.4674 119 103.985 114.064 115.675C111.173 122.497 113.151 125.773 115.267 127.318Z" fill="#513934"/>
<path d="M93.4989 102.472C94.5727 103.786 95.4322 105.605 94.9006 107.274C94.9006 107.274 95.6174 107.858 96.9428 107.999C94.9371 100.609 91.6286 100.224 93.4989 102.472Z" fill="#191818"/>
<path d="M97.4093 93.4507C101.57 94.8455 103.894 97.6363 104.533 100.432C104.609 100.376 105.543 99.5798 106.427 98.2365C104.089 95.1066 100.977 93.4722 98.6202 93.0345C95.3427 92.4522 97.4093 93.4507 97.4093 93.4507Z" fill="#191818"/>
<path d="M54.4816 119.655C56.0458 124.28 59.1796 127.063 62.1772 128.141C65.8117 129.453 69.2366 128.239 69.5108 124.779C70.0977 118.47 74.375 95.9633 75.4394 98.6236C75.4394 98.6236 79.8792 112.393 88.4566 110.978C92.6086 110.282 94.3792 108.876 94.8902 107.339C95.4218 105.671 94.5623 103.852 93.4885 102.537C91.6285 100.224 94.9267 100.675 96.9324 108.065C98.1818 108.261 100.03 108.079 102.184 106.801C104.339 105.522 105.203 103.03 104.533 100.432C103.884 97.7021 101.504 94.8352 97.4092 93.4507C97.4092 93.4507 95.3426 92.4522 98.6858 93.0448C101.043 93.4825 104.155 95.117 106.493 98.2469C107.917 96.0449 109.184 92.2687 106.077 87.6029C101.015 79.9349 97.794 80.7091 92.2516 77.8169C87.7754 75.4291 80.3929 73.5281 72.8601 74.2986C71.0781 74.4903 69.3515 74.758 67.6597 75.2334C58.4361 77.7596 55.6971 84.4716 55.4586 89.4202C55.2305 94.303 51.0272 109.477 54.4816 119.655Z" fill="#513934"/>
</g>
<g clip-path="url(#clip1_1519_2209)">
<path d="M127.558 37.0744C128.177 36.5652 128.623 36.2984 129.201 36.0523C129.267 36.0626 129.277 35.9969 129.343 36.0072C130.194 35.7366 131.419 35.6595 134.107 35.2734C138.654 34.6401 145.239 29.6105 141.88 30.8346C141.88 30.8346 139.05 32.5462 134.4 32.5567C129.749 32.5672 127.406 32.4686 126.785 35.1336C126.775 35.1994 126.764 35.2651 126.754 35.3309C126.754 35.3309 126.754 35.3309 126.744 35.3966C126.078 37.9198 125.929 38.4356 127.558 37.0744Z" fill="#191818"/>
<path d="M125.966 41.2039C127.251 38.1716 128.395 36.4647 129.191 36.118C128.624 36.2984 128.243 36.5756 127.548 37.1401C125.919 38.5013 126.078 37.9198 126.657 35.5178C126.402 36.2862 124.566 42.3988 123.993 44.3302C123.465 46.4034 124.584 44.4232 125.966 41.2039Z" fill="#3A2823"/>
<path d="M99.2128 35.653C101.919 36.0108 103.123 36.0652 103.968 36.2653C104.034 36.2756 104.099 36.286 104.099 36.286C104.615 36.4344 105.1 36.78 105.695 37.2779C107.316 38.5432 107.191 38.0519 106.601 35.8031C106.601 35.8031 106.611 35.7373 106.546 35.727L106.556 35.6612C106.5 35.5851 106.521 35.4536 106.466 35.3775C105.73 32.7689 103.422 32.878 98.7608 32.9542C94.0997 33.0304 91.2608 31.3716 91.2608 31.3716C87.9448 30.1768 94.5995 34.9956 99.2128 35.653Z" fill="#191818"/>
<path d="M110.857 48.6001C110.891 48.8077 111.058 49.0359 111.411 49.3609C112.415 50.2599 113.925 51.373 114.933 52.6768C115.941 53.9806 116.771 53.8415 116.771 53.8415C116.771 53.8415 117.56 53.9655 118.577 52.6429C119.593 51.3202 120.993 50.1252 122.003 49.2732C122.318 48.9857 122.491 48.7434 122.588 48.5565C122.715 48.1723 122.407 47.9891 122.407 47.9891C122.407 47.9891 122.044 47.7298 121.116 48.0558C121.051 48.0455 121.04 48.1112 120.975 48.1009C119.83 48.5274 117.937 48.567 116.722 48.5783C115.507 48.5896 113.559 48.553 112.472 48.1801C112.407 48.1698 112.341 48.1595 112.341 48.1595C111.451 47.8176 111.071 48.0946 111.071 48.0946C111.071 48.0946 110.721 48.1745 110.857 48.6001Z" fill="#191818"/>
<path d="M104.1 36.286C104.858 36.6072 106.001 38.3366 107.418 41.3219C108.871 44.5148 110.049 46.4517 109.428 44.4001C108.852 42.4904 106.937 36.6644 106.677 35.7476C107.267 37.9964 107.392 38.4877 105.772 37.2225C105.1 36.78 104.605 36.5001 104.1 36.286Z" fill="#3A2823"/>
<path d="M97.1418 56.5522C97.1766 56.7598 98.8207 61.7347 107.452 62.5517C107.846 62.6137 108.251 62.6098 108.58 62.6615C109.05 62.6681 109.455 62.6643 109.784 62.716C114.172 62.6642 116.019 61.2024 116.786 60.1776C117.572 61.177 119.435 62.6152 123.813 62.6291C124.218 62.6254 124.557 62.6113 125.027 62.6179C125.432 62.6141 125.782 62.5342 126.186 62.5305C134.823 61.5965 136.352 56.5811 136.383 56.3839C136.49 56.1312 136.334 55.8371 136.016 55.7197C135.763 55.6126 135.459 55.8343 135.352 56.087C135.321 56.2843 133.895 60.6421 126.013 61.4925C118.262 62.3635 117.159 59.0908 117.169 59.025C117.169 59.025 117.169 59.0249 117.114 58.9489C117.124 58.8831 117.059 58.8728 117.059 58.8728C117.059 58.8728 116.993 58.8625 117.003 58.7967C116.937 58.7864 116.948 58.7206 116.882 58.7103L116.816 58.7L116.75 58.6896C116.75 58.6896 116.75 58.6896 116.685 58.6793L116.619 58.669C116.553 58.6586 116.553 58.6586 116.477 58.7141C116.411 58.7037 116.401 58.7695 116.335 58.7591C116.335 58.7591 116.335 58.7591 116.259 58.8145C116.249 58.8803 116.183 58.87 116.173 58.9358L116.162 59.0015L116.152 59.0673C116.142 59.133 115.089 62.4039 107.389 61.6658C99.4152 60.9521 97.9723 56.4132 97.9723 56.4132C97.8821 56.1295 97.574 55.9463 97.356 56.0468C97.2349 55.9604 97.0516 56.2685 97.1418 56.5522Z" fill="#513934"/>
<path d="M91.9052 22.9829C92.1888 22.8927 92.4828 22.7368 92.7111 22.5705C92.4828 22.7368 92.1888 22.8927 91.9052 22.9829Z" fill="#D7B397"/>
<path d="M83.9663 22.4769C84.0321 22.4872 84.0875 22.5633 84.219 22.5839C84.0875 22.5633 84.0217 22.553 83.9663 22.4769Z" fill="#D7B397"/>
<path d="M151.028 33.0804C150.847 32.513 150.667 31.9456 150.421 31.3679C150.934 32.3918 151.028 33.0804 151.028 33.0804ZM92.7111 22.5705C92.4828 22.7368 92.1991 22.8269 91.9051 22.9828C92.1888 22.8927 92.4828 22.7368 92.7111 22.5705ZM82.8179 31.9316C82.5934 32.5027 82.3689 33.0739 82.2101 33.6554C82.2101 33.6554 82.2477 32.9875 82.8179 31.9316Z" fill="#D7B397"/>
<mask id="path-38-inside-2_1519_2209" fill="white">
<path d="M35.6 217.96C31.8 208.266 22.8419 168.79 59.074 152.179C60.3816 151.576 61.2561 150.299 61.2758 148.887C61.3179 145.188 61.5093 137.536 62.177 128.141C65.8114 129.453 69.2363 128.239 69.5105 124.779C70.0974 118.47 74.3747 95.9633 75.4391 98.6236C75.4391 98.6236 79.879 112.393 88.4563 110.978C92.6083 110.282 94.379 108.876 94.89 107.339C94.89 107.339 95.6068 107.924 96.9322 108.065C98.1816 108.261 100.029 108.079 102.184 106.801C104.339 105.522 105.202 103.03 104.532 100.432C104.609 100.376 105.542 99.5799 106.427 98.2365C107.851 96.0346 109.118 92.2583 106.011 87.5926C100.949 79.9246 97.728 80.6987 92.1857 77.8065C87.7095 75.4188 80.3268 73.5177 72.794 74.2882C72.9011 74.0355 73.0082 73.7828 73.181 73.5405C75.6863 73.4624 78.3438 73.2735 81.053 72.7558C88.2288 71.2555 85.4247 69.8042 85.4247 69.8042C82.7212 68.5709 79.3338 69.1168 76.5645 67.8732C73.1583 66.3947 70.5599 62.3479 71.1626 49.5058C72.2037 26.1539 80.8373 21.3788 80.8373 21.3788C80.8373 21.3788 81.7269 21.7207 82.9866 21.8512C83.042 21.9273 83.0421 21.9273 83.0975 22.0034C83.1529 22.0795 83.1529 22.0795 83.2083 22.1556C83.2637 22.2317 83.3849 22.3181 83.4403 22.3942C83.4958 22.4703 83.617 22.5567 83.6827 22.567C83.7485 22.5773 83.8039 22.6534 83.8696 22.6637C83.9354 22.6741 83.9908 22.7501 84.0566 22.7605C84.1778 22.8469 84.375 22.8779 84.5723 22.9089C84.7038 22.9296 84.8353 22.9503 84.9669 22.9709C85.0984 22.9916 85.2299 23.0123 85.3614 23.0329C85.4929 23.0536 85.6244 23.0742 85.7559 23.0949C85.8874 23.1156 86.0189 23.1362 86.2162 23.1672C86.4792 23.2085 86.8183 23.1944 87.1471 23.246C87.2786 23.2667 87.3444 23.277 87.4759 23.2977C87.8808 23.2939 88.2753 23.3559 88.7356 23.4282C88.9329 23.4592 89.1302 23.4902 89.3274 23.5212C89.4589 23.5419 89.5904 23.5626 89.722 23.5832C89.7877 23.5935 89.8535 23.6039 89.9193 23.6142C90.1823 23.6555 90.4556 23.6311 90.729 23.6067C90.9366 23.5719 91.1442 23.5371 91.3518 23.5024C91.5594 23.4676 91.7773 23.3671 91.9191 23.322C92.2028 23.2318 92.4969 23.0759 92.7251 22.9096C92.8012 22.8542 92.8773 22.7987 92.9534 22.7433C93.0294 22.6879 93.1056 22.6325 93.1816 22.5771C93.2474 22.5874 93.2577 22.5216 93.3338 22.4662C93.4099 22.4108 93.4099 22.4108 93.4757 22.4211C93.5518 22.3657 93.6278 22.3102 93.6382 22.2445C93.7142 22.1891 93.8007 22.0679 93.8768 22.0125C93.9529 21.9571 94.0289 21.9016 94.105 21.8462C94.1914 21.725 94.3333 21.6799 94.4197 21.5587L94.5061 21.4376C94.5822 21.3822 94.6583 21.3267 94.6686 21.261C94.7447 21.2055 94.755 21.1397 94.8311 21.0843C94.9072 21.0289 94.9833 20.9735 95.0039 20.842C95.08 20.7866 95.0904 20.7208 95.1665 20.6654C95.2426 20.61 95.2529 20.5442 95.329 20.4887C95.4154 20.3676 95.5018 20.2464 95.5779 20.191C95.7611 19.8828 95.9442 19.5748 96.0513 19.3221C96.0617 19.2563 96.072 19.1905 96.072 19.1905C96.0823 19.1248 96.103 18.9932 96.1133 18.9275C97.5383 18.0059 98.5547 16.6833 98.5547 16.6833C103.418 13.6067 116.439 13.4964 116.439 13.4964C116.439 13.4964 129.461 13.3861 134.38 16.3826C134.38 16.3826 135.388 17.6864 136.874 18.5261C136.863 18.5919 136.919 18.668 136.908 18.7338C136.898 18.7995 136.964 18.8098 136.953 18.8756C136.943 18.9413 137.009 18.9517 136.999 19.0175C136.988 19.0832 137.054 19.0935 137.044 19.1593C137.099 19.2354 137.089 19.3011 137.155 19.3114C137.2 19.4533 137.321 19.5397 137.366 19.6815C137.411 19.8234 137.532 19.9098 137.643 20.062C137.754 20.2142 137.865 20.3663 137.986 20.4527C138.041 20.5288 138.097 20.605 138.162 20.6153C138.394 20.8539 138.682 21.1686 138.98 21.4175C139.035 21.4936 139.101 21.5039 139.222 21.5903C139.222 21.5903 139.288 21.6006 139.278 21.6664C139.278 21.6664 139.343 21.6768 139.333 21.7425C139.399 21.7529 139.454 21.8289 139.51 21.905C139.631 21.9914 139.752 22.0779 139.807 22.154C139.873 22.1643 139.929 22.2404 139.994 22.2507C140.181 22.3474 140.368 22.4441 140.489 22.5306C140.555 22.5409 140.676 22.6274 140.742 22.6377C140.874 22.6584 140.995 22.7448 141.126 22.7654C141.192 22.7758 141.247 22.8518 141.379 22.8725C141.51 22.8932 141.576 22.9035 141.708 22.9242C141.905 22.9551 142.102 22.9861 142.3 23.0171C142.365 23.0275 142.431 23.0378 142.563 23.0585C142.891 23.1101 143.307 23.0406 143.711 23.0368C144.334 22.9325 145.012 22.9043 145.569 22.7897C145.777 22.755 146.05 22.7305 146.248 22.7615C146.379 22.7821 146.455 22.7267 146.587 22.7474C146.794 22.7126 147.002 22.6779 147.199 22.7089L147.265 22.7192C147.407 22.6741 147.538 22.6948 147.68 22.6497C147.822 22.6046 147.954 22.6253 148.095 22.5802C148.369 22.5557 148.587 22.4552 148.794 22.4204C148.936 22.3753 149.012 22.32 149.088 22.2645C149.154 22.2749 149.164 22.209 149.23 22.2194C149.306 22.1639 149.306 22.164 149.382 22.1086C149.458 22.0531 149.535 21.9977 149.611 21.9422C149.687 21.8868 149.763 21.8315 149.839 21.776C149.839 21.776 149.849 21.7103 149.915 21.7206C149.991 21.6652 150.001 21.5994 150.012 21.5336C151.247 21.3908 152.108 21.0545 152.184 20.999C152.184 20.999 160.894 25.6018 162.348 48.9414C163.143 61.4641 160.797 65.6772 157.507 67.3165C154.664 68.689 151.169 68.2072 148.467 69.5347C148.467 69.5347 143.624 71.1993 151.702 73.8162C155.029 74.9452 158.47 76.6314 161.631 78.8125C163.153 83.7009 164.961 89.7795 166.447 96.6162C159.066 91.2789 149.686 88.7946 142.034 87.3228C129.152 84.8273 119.145 104.345 114.209 116.035C111.298 122.989 113.286 126.199 115.402 127.744C116.79 128.77 118.237 128.998 118.368 129.018C118.997 131.88 121.099 134.366 124.426 135.495C127.368 136.497 129.631 136.246 131.201 135.684C133.274 134.931 134.29 133.609 134.29 133.609C135.633 134.494 137.627 134.672 140.449 133.431C146.607 130.693 146.058 118.747 146.058 118.747C146.026 117.664 149.489 120.499 158.107 126.974C161.479 129.525 166.061 130.38 169.981 129.446C169.735 155.888 166.347 169.303 174.369 175.28C182.755 181.516 197.981 190.107 197.082 213.414C196.332 232.769 188.329 242.966 186.01 247.857C185.848 248.034 183.172 250.915 183.698 255.714C184.269 260.655 179.939 258.628 175.359 256.897C170.856 255.112 171.126 255.963 169.016 257.383C166.962 258.88 164.699 259.131 159.672 255.106C156.441 252.51 154.54 250.459 152.304 250.108C151.6 248.583 151.741 247.257 152.743 245.595C155.094 241.787 152.486 239.087 145.31 240.587C141.203 241.424 133.438 237.239 126.735 231.874C121.707 227.85 117.253 223.175 115.271 219.494C111.216 211.85 115.006 216.892 102.383 226.902C100.765 228.198 98.7966 229.573 96.545 231.039C85.2314 238.29 78.2632 239.756 73.727 240.323C71.9619 239.978 70.0756 239.547 68.1546 238.909C62.042 237.072 61.9482 241.1 55.9824 245.621C50.0823 250.152 49.8905 243.653 43.6071 244.62C39.1159 245.329 36.0892 242.293 35.4494 238.217C37.1364 236.057 38.4637 234.042 39.1758 232.941C41.4395 229.254 39.4348 227.861 35.6 217.96ZM140.989 51.5149C150.687 49.4001 153.085 40.1416 151.027 33.0804C151.027 33.0804 150.999 32.4022 150.421 31.3679C149.54 29.6799 147.272 26.9652 141.747 24.817C136.662 22.8727 128.758 21.2938 116.546 21.3965C104.334 21.4993 96.4591 23.1594 91.4223 25.1979C85.9496 27.4376 83.7092 30.1177 82.8281 31.8659C82.2579 32.9217 82.2204 33.5896 82.2204 33.5896C80.3052 40.6331 82.8212 49.9225 92.5569 51.8564C106.996 54.7314 110.394 49.4031 110.867 48.5342C110.902 48.7418 111.068 48.97 111.421 49.2951C112.425 50.194 113.935 51.3072 114.943 52.611C115.951 53.9148 116.781 53.7757 116.781 53.7757C116.781 53.7757 117.571 53.8997 118.587 52.5771C119.603 51.2544 121.004 50.0595 122.014 49.2074C122.328 48.92 122.501 48.6776 122.598 48.4907C123.131 49.3831 126.617 54.6472 140.989 51.5149ZM116.862 60.1221C117.649 61.1216 119.512 62.5597 123.889 62.5737C124.294 62.5699 124.633 62.5558 125.104 62.5624C125.508 62.5586 125.858 62.4788 126.263 62.475C134.899 61.541 136.428 56.5257 136.459 56.3284C136.567 56.0757 136.411 55.7817 136.092 55.6643C135.84 55.5572 135.535 55.7789 135.428 56.0316C135.397 56.2288 133.971 60.5867 126.089 61.437C118.338 62.3081 117.235 59.0352 117.246 58.9695C117.246 58.9695 117.246 58.9695 117.19 58.8934C117.201 58.8277 117.135 58.8173 117.135 58.8173C117.135 58.8173 117.069 58.807 117.079 58.7413C117.014 58.7309 117.024 58.6652 116.958 58.6549L116.892 58.6445L116.827 58.6342C116.827 58.6342 116.827 58.6342 116.761 58.6239L116.695 58.6135C116.629 58.6032 116.629 58.6032 116.553 58.6586C116.488 58.6483 116.477 58.714 116.412 58.7037C116.412 58.7037 116.411 58.7037 116.335 58.7591C116.325 58.8249 116.259 58.8146 116.249 58.8803L116.239 58.9461L116.228 59.0118C116.218 59.0776 115.165 62.3485 107.465 61.6104C99.4915 60.8967 98.0486 56.3577 98.0486 56.3577C97.9584 56.074 97.6502 55.8908 97.4323 55.9914C97.1486 56.0816 97.0312 56.4 97.066 56.6076C97.1007 56.8152 98.7448 61.7901 107.376 62.6071C107.77 62.6691 108.175 62.6653 108.504 62.717C108.975 62.7235 109.379 62.7197 109.708 62.7714C114.248 62.6087 116.095 61.147 116.862 60.1221ZM93.985 191.152C97.4515 199.108 106.456 208.272 114.762 209.442C114.762 209.442 132.199 205.242 134.975 193.145C137.752 181.049 131.091 181.417 124.732 183.72C118.363 186.088 115.413 187.713 108.472 183.86C101.465 179.997 90.5185 183.196 93.985 191.152Z"/>
</mask>
<path d="M35.6 217.96C31.8 208.266 22.8419 168.79 59.074 152.179C60.3816 151.576 61.2561 150.299 61.2758 148.887C61.3179 145.188 61.5093 137.536 62.177 128.141C65.8114 129.453 69.2363 128.239 69.5105 124.779C70.0974 118.47 74.3747 95.9633 75.4391 98.6236C75.4391 98.6236 79.879 112.393 88.4563 110.978C92.6083 110.282 94.379 108.876 94.89 107.339C94.89 107.339 95.6068 107.924 96.9322 108.065C98.1816 108.261 100.029 108.079 102.184 106.801C104.339 105.522 105.202 103.03 104.532 100.432C104.609 100.376 105.542 99.5799 106.427 98.2365C107.851 96.0346 109.118 92.2583 106.011 87.5926C100.949 79.9246 97.728 80.6987 92.1857 77.8065C87.7095 75.4188 80.3268 73.5177 72.794 74.2882C72.9011 74.0355 73.0082 73.7828 73.181 73.5405C75.6863 73.4624 78.3438 73.2735 81.053 72.7558C88.2288 71.2555 85.4247 69.8042 85.4247 69.8042C82.7212 68.5709 79.3338 69.1168 76.5645 67.8732C73.1583 66.3947 70.5599 62.3479 71.1626 49.5058C72.2037 26.1539 80.8373 21.3788 80.8373 21.3788C80.8373 21.3788 81.7269 21.7207 82.9866 21.8512C83.042 21.9273 83.0421 21.9273 83.0975 22.0034C83.1529 22.0795 83.1529 22.0795 83.2083 22.1556C83.2637 22.2317 83.3849 22.3181 83.4403 22.3942C83.4958 22.4703 83.617 22.5567 83.6827 22.567C83.7485 22.5773 83.8039 22.6534 83.8696 22.6637C83.9354 22.6741 83.9908 22.7501 84.0566 22.7605C84.1778 22.8469 84.375 22.8779 84.5723 22.9089C84.7038 22.9296 84.8353 22.9503 84.9669 22.9709C85.0984 22.9916 85.2299 23.0123 85.3614 23.0329C85.4929 23.0536 85.6244 23.0742 85.7559 23.0949C85.8874 23.1156 86.0189 23.1362 86.2162 23.1672C86.4792 23.2085 86.8183 23.1944 87.1471 23.246C87.2786 23.2667 87.3444 23.277 87.4759 23.2977C87.8808 23.2939 88.2753 23.3559 88.7356 23.4282C88.9329 23.4592 89.1302 23.4902 89.3274 23.5212C89.4589 23.5419 89.5904 23.5626 89.722 23.5832C89.7877 23.5935 89.8535 23.6039 89.9193 23.6142C90.1823 23.6555 90.4556 23.6311 90.729 23.6067C90.9366 23.5719 91.1442 23.5371 91.3518 23.5024C91.5594 23.4676 91.7773 23.3671 91.9191 23.322C92.2028 23.2318 92.4969 23.0759 92.7251 22.9096C92.8012 22.8542 92.8773 22.7987 92.9534 22.7433C93.0294 22.6879 93.1056 22.6325 93.1816 22.5771C93.2474 22.5874 93.2577 22.5216 93.3338 22.4662C93.4099 22.4108 93.4099 22.4108 93.4757 22.4211C93.5518 22.3657 93.6278 22.3102 93.6382 22.2445C93.7142 22.1891 93.8007 22.0679 93.8768 22.0125C93.9529 21.9571 94.0289 21.9016 94.105 21.8462C94.1914 21.725 94.3333 21.6799 94.4197 21.5587L94.5061 21.4376C94.5822 21.3822 94.6583 21.3267 94.6686 21.261C94.7447 21.2055 94.755 21.1397 94.8311 21.0843C94.9072 21.0289 94.9833 20.9735 95.0039 20.842C95.08 20.7866 95.0904 20.7208 95.1665 20.6654C95.2426 20.61 95.2529 20.5442 95.329 20.4887C95.4154 20.3676 95.5018 20.2464 95.5779 20.191C95.7611 19.8828 95.9442 19.5748 96.0513 19.3221C96.0617 19.2563 96.072 19.1905 96.072 19.1905C96.0823 19.1248 96.103 18.9932 96.1133 18.9275C97.5383 18.0059 98.5547 16.6833 98.5547 16.6833C103.418 13.6067 116.439 13.4964 116.439 13.4964C116.439 13.4964 129.461 13.3861 134.38 16.3826C134.38 16.3826 135.388 17.6864 136.874 18.5261C136.863 18.5919 136.919 18.668 136.908 18.7338C136.898 18.7995 136.964 18.8098 136.953 18.8756C136.943 18.9413 137.009 18.9517 136.999 19.0175C136.988 19.0832 137.054 19.0935 137.044 19.1593C137.099 19.2354 137.089 19.3011 137.155 19.3114C137.2 19.4533 137.321 19.5397 137.366 19.6815C137.411 19.8234 137.532 19.9098 137.643 20.062C137.754 20.2142 137.865 20.3663 137.986 20.4527C138.041 20.5288 138.097 20.605 138.162 20.6153C138.394 20.8539 138.682 21.1686 138.98 21.4175C139.035 21.4936 139.101 21.5039 139.222 21.5903C139.222 21.5903 139.288 21.6006 139.278 21.6664C139.278 21.6664 139.343 21.6768 139.333 21.7425C139.399 21.7529 139.454 21.8289 139.51 21.905C139.631 21.9914 139.752 22.0779 139.807 22.154C139.873 22.1643 139.929 22.2404 139.994 22.2507C140.181 22.3474 140.368 22.4441 140.489 22.5306C140.555 22.5409 140.676 22.6274 140.742 22.6377C140.874 22.6584 140.995 22.7448 141.126 22.7654C141.192 22.7758 141.247 22.8518 141.379 22.8725C141.51 22.8932 141.576 22.9035 141.708 22.9242C141.905 22.9551 142.102 22.9861 142.3 23.0171C142.365 23.0275 142.431 23.0378 142.563 23.0585C142.891 23.1101 143.307 23.0406 143.711 23.0368C144.334 22.9325 145.012 22.9043 145.569 22.7897C145.777 22.755 146.05 22.7305 146.248 22.7615C146.379 22.7821 146.455 22.7267 146.587 22.7474C146.794 22.7126 147.002 22.6779 147.199 22.7089L147.265 22.7192C147.407 22.6741 147.538 22.6948 147.68 22.6497C147.822 22.6046 147.954 22.6253 148.095 22.5802C148.369 22.5557 148.587 22.4552 148.794 22.4204C148.936 22.3753 149.012 22.32 149.088 22.2645C149.154 22.2749 149.164 22.209 149.23 22.2194C149.306 22.1639 149.306 22.164 149.382 22.1086C149.458 22.0531 149.535 21.9977 149.611 21.9422C149.687 21.8868 149.763 21.8315 149.839 21.776C149.839 21.776 149.849 21.7103 149.915 21.7206C149.991 21.6652 150.001 21.5994 150.012 21.5336C151.247 21.3908 152.108 21.0545 152.184 20.999C152.184 20.999 160.894 25.6018 162.348 48.9414C163.143 61.4641 160.797 65.6772 157.507 67.3165C154.664 68.689 151.169 68.2072 148.467 69.5347C148.467 69.5347 143.624 71.1993 151.702 73.8162C155.029 74.9452 158.47 76.6314 161.631 78.8125C163.153 83.7009 164.961 89.7795 166.447 96.6162C159.066 91.2789 149.686 88.7946 142.034 87.3228C129.152 84.8273 119.145 104.345 114.209 116.035C111.298 122.989 113.286 126.199 115.402 127.744C116.79 128.77 118.237 128.998 118.368 129.018C118.997 131.88 121.099 134.366 124.426 135.495C127.368 136.497 129.631 136.246 131.201 135.684C133.274 134.931 134.29 133.609 134.29 133.609C135.633 134.494 137.627 134.672 140.449 133.431C146.607 130.693 146.058 118.747 146.058 118.747C146.026 117.664 149.489 120.499 158.107 126.974C161.479 129.525 166.061 130.38 169.981 129.446C169.735 155.888 166.347 169.303 174.369 175.28C182.755 181.516 197.981 190.107 197.082 213.414C196.332 232.769 188.329 242.966 186.01 247.857C185.848 248.034 183.172 250.915 183.698 255.714C184.269 260.655 179.939 258.628 175.359 256.897C170.856 255.112 171.126 255.963 169.016 257.383C166.962 258.88 164.699 259.131 159.672 255.106C156.441 252.51 154.54 250.459 152.304 250.108C151.6 248.583 151.741 247.257 152.743 245.595C155.094 241.787 152.486 239.087 145.31 240.587C141.203 241.424 133.438 237.239 126.735 231.874C121.707 227.85 117.253 223.175 115.271 219.494C111.216 211.85 115.006 216.892 102.383 226.902C100.765 228.198 98.7966 229.573 96.545 231.039C85.2314 238.29 78.2632 239.756 73.727 240.323C71.9619 239.978 70.0756 239.547 68.1546 238.909C62.042 237.072 61.9482 241.1 55.9824 245.621C50.0823 250.152 49.8905 243.653 43.6071 244.62C39.1159 245.329 36.0892 242.293 35.4494 238.217C37.1364 236.057 38.4637 234.042 39.1758 232.941C41.4395 229.254 39.4348 227.861 35.6 217.96ZM140.989 51.5149C150.687 49.4001 153.085 40.1416 151.027 33.0804C151.027 33.0804 150.999 32.4022 150.421 31.3679C149.54 29.6799 147.272 26.9652 141.747 24.817C136.662 22.8727 128.758 21.2938 116.546 21.3965C104.334 21.4993 96.4591 23.1594 91.4223 25.1979C85.9496 27.4376 83.7092 30.1177 82.8281 31.8659C82.2579 32.9217 82.2204 33.5896 82.2204 33.5896C80.3052 40.6331 82.8212 49.9225 92.5569 51.8564C106.996 54.7314 110.394 49.4031 110.867 48.5342C110.902 48.7418 111.068 48.97 111.421 49.2951C112.425 50.194 113.935 51.3072 114.943 52.611C115.951 53.9148 116.781 53.7757 116.781 53.7757C116.781 53.7757 117.571 53.8997 118.587 52.5771C119.603 51.2544 121.004 50.0595 122.014 49.2074C122.328 48.92 122.501 48.6776 122.598 48.4907C123.131 49.3831 126.617 54.6472 140.989 51.5149ZM116.862 60.1221C117.649 61.1216 119.512 62.5597 123.889 62.5737C124.294 62.5699 124.633 62.5558 125.104 62.5624C125.508 62.5586 125.858 62.4788 126.263 62.475C134.899 61.541 136.428 56.5257 136.459 56.3284C136.567 56.0757 136.411 55.7817 136.092 55.6643C135.84 55.5572 135.535 55.7789 135.428 56.0316C135.397 56.2288 133.971 60.5867 126.089 61.437C118.338 62.3081 117.235 59.0352 117.246 58.9695C117.246 58.9695 117.246 58.9695 117.19 58.8934C117.201 58.8277 117.135 58.8173 117.135 58.8173C117.135 58.8173 117.069 58.807 117.079 58.7413C117.014 58.7309 117.024 58.6652 116.958 58.6549L116.892 58.6445L116.827 58.6342C116.827 58.6342 116.827 58.6342 116.761 58.6239L116.695 58.6135C116.629 58.6032 116.629 58.6032 116.553 58.6586C116.488 58.6483 116.477 58.714 116.412 58.7037C116.412 58.7037 116.411 58.7037 116.335 58.7591C116.325 58.8249 116.259 58.8146 116.249 58.8803L116.239 58.9461L116.228 59.0118C116.218 59.0776 115.165 62.3485 107.465 61.6104C99.4915 60.8967 98.0486 56.3577 98.0486 56.3577C97.9584 56.074 97.6502 55.8908 97.4323 55.9914C97.1486 56.0816 97.0312 56.4 97.066 56.6076C97.1007 56.8152 98.7448 61.7901 107.376 62.6071C107.77 62.6691 108.175 62.6653 108.504 62.717C108.975 62.7235 109.379 62.7197 109.708 62.7714C114.248 62.6087 116.095 61.147 116.862 60.1221ZM93.985 191.152C97.4515 199.108 106.456 208.272 114.762 209.442C114.762 209.442 132.199 205.242 134.975 193.145C137.752 181.049 131.091 181.417 124.732 183.72C118.363 186.088 115.413 187.713 108.472 183.86C101.465 179.997 90.5185 183.196 93.985 191.152Z" fill="#F5F0EB" stroke="#BABABA" stroke-width="0.526034" mask="url(#path-38-inside-2_1519_2209)"/>
<path d="M80.9237 21.2576C80.9237 21.2576 81.8132 21.5996 83.0729 21.7301C83.0175 21.654 82.9621 21.5779 82.9724 21.5121C82.917 21.436 82.9274 21.3703 82.8719 21.2943C82.8165 21.2182 82.8268 21.1524 82.7714 21.0763C82.7817 21.0105 82.7263 20.9344 82.7366 20.8687C82.6915 20.7268 82.7019 20.6611 82.6568 20.5192C82.6671 20.4535 82.6116 20.3774 82.622 20.3117C82.6323 20.2459 82.6323 20.2459 82.5769 20.1698C82.5769 20.1698 82.5872 20.104 82.5976 20.0383C82.6079 19.9725 82.6079 19.9726 82.6182 19.9068C82.6285 19.841 82.6389 19.7753 82.5835 19.6992C82.6041 19.5677 82.5487 19.4916 82.5694 19.3601C82.542 15.2456 82.6488 5.55974 85.204 7.30878C87.7037 8.98173 96.1405 18.3255 96.1405 18.3255C96.1959 18.4015 96.1856 18.4672 96.1649 18.5987C97.5899 17.6772 98.6062 16.3546 98.6062 16.3546C98.6062 16.3546 91.3372 9.01353 85.3618 5.44691C79.3102 1.93571 80.9237 21.2576 80.9237 21.2576Z" fill="#513934"/>
<path d="M82.559 19.4257C82.5384 19.5572 82.5938 19.6333 82.5731 19.7648C82.5628 19.8306 82.5524 19.8964 82.6079 19.9725C82.5975 20.0382 82.5975 20.0382 82.5872 20.1039C82.5769 20.1697 82.5769 20.1698 82.5665 20.2355C82.5562 20.3013 82.5459 20.367 82.6116 20.3773C82.6013 20.4431 82.6568 20.5192 82.6464 20.585C82.6915 20.7268 82.6708 20.8583 82.7263 20.9344C82.7159 21.0002 82.7713 21.0762 82.761 21.142C82.8164 21.218 82.8062 21.2838 82.8616 21.3599C82.917 21.436 82.9066 21.5017 82.9621 21.5778C83.0175 21.6539 83.0729 21.73 83.0626 21.7958C83.118 21.8718 83.118 21.8718 83.1735 21.9479C83.2289 22.024 83.2288 22.024 83.2843 22.1001C83.3397 22.1762 83.4609 22.2626 83.5163 22.3387C83.5718 22.4148 83.6929 22.5012 83.7587 22.5116C83.8245 22.5219 83.8798 22.598 83.9456 22.6083C84.0113 22.6186 84.0668 22.6947 84.1326 22.705C84.2537 22.7914 84.451 22.8224 84.6483 22.8534C84.7798 22.8741 84.9113 22.8947 85.0428 22.9154C85.1744 22.9361 85.3058 22.9567 85.4374 22.9774C85.5689 22.9981 85.7004 23.0187 85.8319 23.0394C85.9634 23.06 86.095 23.0807 86.2922 23.1117C86.5553 23.153 86.8943 23.1389 87.2231 23.1906C87.3546 23.2113 87.4203 23.2216 87.5519 23.2422C87.9567 23.2385 88.3513 23.3005 88.8116 23.3728C89.0088 23.4038 89.2061 23.4348 89.4034 23.4658C89.5349 23.4864 89.6664 23.5071 89.7979 23.5278C89.8637 23.5381 89.9295 23.5484 89.9952 23.5588C90.2582 23.6001 90.5316 23.5757 90.8049 23.5513C91.0125 23.5165 91.2201 23.4817 91.4277 23.4469C91.6353 23.4122 91.8533 23.3116 91.9952 23.2665C92.2788 23.1764 92.5728 23.0205 92.8011 22.8542C92.8772 22.7988 92.9532 22.7433 93.0293 22.6879C93.1054 22.6324 93.1815 22.577 93.2576 22.5216C93.3234 22.5319 93.3337 22.4662 93.4098 22.4107C93.4858 22.3553 93.4859 22.3553 93.5516 22.3657C93.6277 22.3102 93.7038 22.2548 93.7141 22.189C93.7902 22.1336 93.8767 22.0124 93.9528 21.957C94.0288 21.9016 94.1049 21.8462 94.181 21.7908C94.2674 21.6696 94.4092 21.6245 94.4957 21.5033L94.5821 21.3821C94.6582 21.3266 94.7343 21.2713 94.7446 21.2055C94.8207 21.1501 94.831 21.0843 94.9071 21.0289C94.9832 20.9734 95.0593 20.918 95.08 20.7865C95.1561 20.7311 95.1664 20.6654 95.2425 20.6099C95.3185 20.5545 95.3288 20.4887 95.4049 20.4333C95.4913 20.3121 95.5778 20.1909 95.6539 20.1355C95.8371 19.8274 96.0202 19.5193 96.1273 19.2666C96.1376 19.2008 96.148 19.1351 96.148 19.1351C96.1583 19.0693 96.179 18.9378 96.1893 18.872C96.21 18.7405 96.2203 18.6748 96.1649 18.5987C96.1649 18.5987 87.7281 9.25502 85.2283 7.58207C82.6384 5.62543 82.542 15.2455 82.559 19.4257Z" fill="#EBABAB"/>
<path d="M134.356 16.1092C134.356 16.1092 135.364 17.413 136.849 18.2527C136.804 18.1109 136.814 18.0452 136.89 17.9898C136.89 17.9898 145.185 8.51215 147.609 6.8043C150.1 5.10679 150.408 14.7232 150.435 18.8376C150.415 18.9691 150.47 19.0452 150.449 19.1767C150.439 19.2425 150.429 19.3082 150.418 19.374C150.408 19.4397 150.408 19.4398 150.398 19.5055C150.387 19.5713 150.387 19.5712 150.377 19.637C150.367 19.7028 150.356 19.7686 150.356 19.7686C150.346 19.8343 150.336 19.9 150.325 19.9658C150.315 20.0315 150.294 20.1631 150.284 20.2288C150.274 20.2946 150.263 20.3603 150.263 20.3603C150.253 20.4261 150.243 20.4919 150.232 20.5576C150.212 20.6891 150.201 20.7549 150.115 20.8761C150.105 20.9418 150.029 20.9973 150.018 21.063C150.008 21.1288 149.932 21.1842 149.922 21.2499C151.157 21.1071 152.018 20.7708 152.094 20.7154C152.094 20.7154 153.381 1.3774 147.418 5.02234C141.531 8.61186 134.356 16.1092 134.356 16.1092Z" fill="#513934"/>
<path d="M136.849 18.2527C136.839 18.3185 136.894 18.3946 136.874 18.5261C136.863 18.5919 136.929 18.6022 136.919 18.668C136.908 18.7338 136.974 18.744 136.964 18.8098C136.954 18.8756 137.019 18.8859 137.009 18.9516C137.064 19.0277 137.054 19.0935 137.12 19.1038C137.165 19.2457 137.286 19.3321 137.331 19.4739C137.376 19.6158 137.497 19.7022 137.608 19.8544C137.719 20.0066 137.83 20.1587 137.951 20.2452C138.007 20.3212 138.062 20.3973 138.128 20.4076C138.36 20.6462 138.647 20.9609 138.945 21.2098C139.001 21.2859 139.066 21.2963 139.187 21.3827C139.187 21.3827 139.253 21.393 139.243 21.4588C139.243 21.4588 139.309 21.4691 139.298 21.5349C139.364 21.5452 139.42 21.6212 139.475 21.6973C139.596 21.7837 139.717 21.8702 139.773 21.9463C139.838 21.9566 139.894 22.0327 139.96 22.043C140.147 22.1398 140.334 22.2366 140.455 22.323C140.52 22.3333 140.642 22.4197 140.707 22.43C140.839 22.4507 140.96 22.5371 141.092 22.5578C141.157 22.5681 141.213 22.6442 141.344 22.6648C141.476 22.6855 141.542 22.6958 141.673 22.7165C141.87 22.7475 142.068 22.7785 142.265 22.8095C142.331 22.8198 142.396 22.8301 142.528 22.8508C142.857 22.9024 143.272 22.833 143.677 22.8292C144.3 22.7249 144.978 22.6967 145.535 22.5821C145.742 22.5473 146.016 22.5229 146.213 22.5539C146.345 22.5745 146.421 22.5191 146.552 22.5398C146.76 22.505 146.967 22.4702 147.165 22.5012L147.23 22.5116C147.372 22.4665 147.504 22.4871 147.646 22.4421C147.787 22.397 147.919 22.4176 148.061 22.3725C148.334 22.3481 148.552 22.2476 148.76 22.2128C148.902 22.1677 148.978 22.1123 149.054 22.0569C149.119 22.0672 149.13 22.0015 149.196 22.0118C149.272 21.9564 149.272 21.9563 149.348 21.9009C149.424 21.8455 149.5 21.7901 149.576 21.7347C149.652 21.6792 149.728 21.6238 149.804 21.5683C149.804 21.5683 149.815 21.5026 149.88 21.5129C149.956 21.4575 149.967 21.3917 149.977 21.326C149.987 21.2602 150.064 21.2048 150.074 21.1391C150.084 21.0733 150.16 21.0179 150.171 20.9521C150.181 20.8864 150.267 20.7652 150.288 20.6337C150.298 20.5679 150.309 20.5022 150.319 20.4364C150.329 20.3707 150.34 20.3049 150.34 20.3049C150.35 20.2391 150.36 20.1733 150.381 20.0418C150.391 19.9761 150.402 19.9104 150.412 19.8446C150.422 19.7789 150.422 19.7788 150.433 19.7131C150.433 19.7131 150.443 19.6473 150.453 19.5816C150.464 19.5158 150.464 19.5158 150.474 19.4501C150.484 19.3843 150.495 19.3185 150.505 19.2528C150.526 19.1213 150.536 19.0555 150.491 18.9137C150.463 14.7992 150.155 5.18292 147.665 6.88043C145.175 8.57795 136.946 18.0658 136.946 18.0658C136.815 18.0452 136.804 18.1109 136.849 18.2527Z" fill="#EBABAB"/>
<path d="M73.2673 73.4193C75.7726 73.3413 78.4301 73.1524 81.1392 72.6347C88.315 71.1343 85.511 69.6831 85.511 69.6831C82.8075 68.4498 79.4201 68.9956 76.6508 67.752C75.3855 69.3724 74.2761 71.2869 73.2673 73.4193Z" fill="#D8CFC7"/>
<path d="M151.567 73.3907C154.893 74.5197 158.334 76.2058 161.495 78.3869C159.241 71.2947 157.438 66.9013 157.438 66.9013C154.594 68.2738 151.099 67.7921 148.397 69.1195C148.397 69.1195 143.554 70.7842 151.567 73.3907Z" fill="#D8CFC7"/>
<path d="M131.066 135.258C133.138 134.506 134.155 133.183 134.155 133.183C132.569 132.126 131.958 130.008 131.995 128.06C132.01 124.963 129.85 129.273 131.066 135.258Z" fill="#191818"/>
<path d="M118.233 128.593C117.56 125.59 118.491 122.232 121.282 119.908C125.996 116.067 118.218 117.54 115.267 127.318C116.655 128.345 118.102 128.572 118.233 128.593Z" fill="#191818"/>
<path d="M115.266 127.318C118.294 117.485 126.006 116.001 121.282 119.908C118.425 122.222 117.494 125.579 118.233 128.593C118.862 131.454 120.964 133.941 124.29 135.07C127.232 136.071 129.495 135.82 131.066 135.258C129.84 129.338 132.075 124.973 131.995 128.06C131.948 130.074 132.569 132.126 134.155 133.183C135.498 134.068 137.491 134.246 140.314 133.005C146.471 130.267 145.923 118.322 145.923 118.322C145.891 117.239 149.353 120.074 157.971 126.549C161.344 129.1 165.926 129.955 169.846 129.021C175.873 127.542 180.526 121.939 177.487 111.692C175.465 104.838 171.325 99.8757 166.302 96.2564C158.92 90.9191 149.54 88.4348 141.888 86.963C129.006 84.4675 119 103.985 114.064 115.675C111.172 122.498 113.151 125.773 115.266 127.318Z" fill="#423929"/>
<path d="M93.4987 102.472C94.5724 103.786 95.432 105.605 94.9003 107.274C94.9003 107.274 95.6171 107.858 96.9426 107.999C94.9368 100.609 91.6283 100.224 93.4987 102.472Z" fill="#191818"/>
<path d="M97.409 93.4507C101.57 94.8455 103.894 97.6363 104.533 100.432C104.609 100.376 105.542 99.5798 106.427 98.2365C104.089 95.1066 100.977 93.4722 98.6199 93.0345C95.3424 92.4522 97.409 93.4507 97.409 93.4507Z" fill="#191818"/>
<path d="M54.4813 119.655C56.0455 124.28 59.1794 127.063 62.1769 128.141C65.8114 129.453 69.2363 128.239 69.5105 124.779C70.0974 118.47 74.3747 95.9633 75.4391 98.6236C75.4391 98.6236 79.879 112.393 88.4563 110.978C92.6083 110.282 94.379 108.876 94.8899 107.339C95.4216 105.671 94.562 103.852 93.4883 102.537C91.6283 100.224 94.9264 100.675 96.9322 108.065C98.1816 108.261 100.029 108.079 102.184 106.801C104.339 105.522 105.202 103.03 104.532 100.432C103.883 97.7021 101.504 94.8352 97.4089 93.4507C97.4089 93.4507 95.3423 92.4522 98.6856 93.0448C101.042 93.4825 104.155 95.117 106.493 98.2469C107.917 96.0449 109.184 92.2687 106.076 87.6029C101.015 79.9349 97.7938 80.7091 92.2514 77.8169C87.7752 75.4291 80.3926 73.5281 72.8598 74.2986C71.0778 74.4903 69.3513 74.758 67.6595 75.2334C58.4359 77.7596 55.6968 84.4716 55.4584 89.4202C55.2302 94.303 51.027 109.477 54.4813 119.655Z" fill="#423929"/>
<path d="M82.2099 33.6554C82.3686 33.0739 82.5931 32.5027 82.8176 31.9316C83.6987 30.1834 85.8733 27.493 91.4118 25.2637C96.4486 23.2251 104.323 21.565 116.535 21.4622C128.747 21.3595 136.662 22.8726 141.737 24.8827C147.261 27.0309 149.54 29.6799 150.41 31.4336C150.656 32.0113 150.837 32.5787 151.017 33.1461C153.085 40.1416 150.676 49.4658 140.978 51.5806C126.54 54.7026 123.055 49.4385 122.587 48.5564C122.715 48.1722 122.407 47.989 122.407 47.989C122.407 47.989 122.043 47.7298 121.116 48.0558C121.051 48.0454 121.04 48.1112 120.974 48.1008C119.829 48.5273 117.937 48.5669 116.722 48.5782C115.507 48.5895 113.559 48.5529 112.472 48.18C112.406 48.1697 112.341 48.1594 112.341 48.1594C111.451 47.8175 111.071 48.0946 111.071 48.0946C111.071 48.0946 110.777 48.2505 110.912 48.6761C110.439 49.545 107.041 54.8732 92.6018 51.9982C82.8106 49.9882 80.2947 40.6989 82.2099 33.6554ZM125.966 41.2039C127.251 38.1715 128.395 36.4646 129.191 36.118C129.257 36.1283 129.267 36.0626 129.333 36.0729C130.184 35.8023 131.409 35.7252 134.097 35.3391C138.644 34.7058 145.228 29.6763 141.869 30.9004C141.869 30.9004 139.04 32.6119 134.389 32.6224C129.738 32.6329 127.396 32.5343 126.775 35.1993C126.764 35.2651 126.754 35.3309 126.744 35.3966C126.744 35.3966 126.744 35.3966 126.733 35.4624C126.478 36.2308 124.642 42.3434 124.069 44.2747C123.465 46.4034 124.584 44.4231 125.966 41.2039ZM99.2126 35.653C101.919 36.0108 103.123 36.0652 103.968 36.2652C104.033 36.2756 104.099 36.2859 104.099 36.2859C104.857 36.6072 106.001 38.3366 107.418 41.3218C108.871 44.5147 110.049 46.4516 109.428 44.4001C108.852 42.4904 106.937 36.6644 106.677 35.7476C106.677 35.7476 106.687 35.6818 106.621 35.6715L106.632 35.6057C106.576 35.5297 106.597 35.3981 106.542 35.322C105.806 32.7134 103.498 32.8225 98.8367 32.8987C94.1756 32.9749 91.3367 31.316 91.3367 31.316C87.9446 30.1767 94.5993 34.9955 99.2126 35.653Z" fill="#393023"/>
<path d="M140.877 27.5936C142.477 27.5787 144.235 30.2289 144.914 31.5558L143.23 42.2738L127.645 46.1485L110.501 45.1189L104.075 45.7733C99.8806 44.2269 91.1874 40.953 89.9699 40.2292C88.7524 39.5054 88.2499 33.5247 88.1508 30.6249L96.558 27.9521L127.682 26.8516C131.414 27.1051 139.278 27.6084 140.877 27.5936Z" fill="#393023"/>
<path d="M130.987 31.1693C127.592 32.1559 126.557 35.0768 126.319 37.8313C126.394 37.571 127.98 30.6574 134.163 32.4115C139.173 33.8567 138.924 38.5849 138.587 40.4801C138.726 40.2881 138.865 40.0961 139.004 39.9041C141.121 36.2356 137.839 29.2644 130.987 31.1693Z" fill="#231F1C"/>
<path d="M134.163 32.4115C127.982 30.5917 126.394 37.571 126.318 37.8313C126.301 38.2912 126.285 38.6854 126.267 39.1454C127.39 37.3466 129.342 36.2379 131.576 36.3249C132.561 36.3632 133.471 36.6618 134.244 37.0867C135.209 37.6507 136.033 38.4724 136.586 39.481C136.954 40.1534 137.186 40.9521 137.287 41.7456C137.762 41.3693 138.172 40.9904 138.518 40.5432C138.855 38.648 139.105 33.9199 134.163 32.4115Z" fill="#B5CDDC"/>
<path d="M137.355 41.6825C137.254 40.889 137.022 40.0903 136.653 39.4179C136.1 38.4093 135.277 37.5876 134.312 37.0236C133.539 36.5987 132.629 36.3001 131.644 36.2618C129.41 36.1748 127.39 37.3465 126.335 39.0822C126.38 41.3213 126.834 43.1815 126.834 43.1815C127.331 43.9247 128.835 44.1806 130.685 43.9894C130.035 43.7667 129.459 43.3494 129.154 42.7453C128.906 42.3408 128.793 41.8758 128.813 41.3502C128.816 41.2845 128.821 41.1531 128.824 41.0873C129.009 39.7127 130.167 38.7049 131.546 38.7586C132.992 38.8148 134.129 40.0435 134.072 41.489C134.042 42.2775 133.617 43.0506 133.008 43.4875C134.597 43.2203 136.137 42.5564 137.355 41.6825Z" fill="#246EED"/>
<path d="M134.068 41.6204C134.124 40.1749 132.987 38.9462 131.542 38.8899C130.162 38.8363 129.004 39.8441 128.819 41.2188C128.816 41.2845 128.814 41.3501 128.809 41.4816C128.788 42.0072 128.902 42.4723 129.149 42.8768C129.455 43.4809 130.031 43.8981 130.68 44.1207C131.471 44.0857 132.267 43.9193 133.066 43.6872C133.612 43.182 134.034 42.4745 134.068 41.6204Z" fill="#231F1C"/>
<path d="M133.945 37.9964C133.909 38.9162 134.601 39.7328 135.587 39.7711C136.507 39.8069 137.324 39.1149 137.362 38.1293C137.4 37.1437 136.706 36.3929 135.72 36.3545C134.732 36.3819 133.981 37.0765 133.945 37.9964Z" fill="white"/>
<path d="M128.364 41.0694C127.783 41.0468 127.294 41.4992 127.272 42.0798C127.249 42.6604 127.701 43.1494 128.282 43.172C128.863 43.1946 129.352 42.7422 129.374 42.1616C129.397 41.581 128.944 41.092 128.364 41.0694Z" fill="white"/>
<path d="M109.301 37.1691C109.277 34.4044 108.472 31.4119 105.165 30.1645C98.4817 27.7329 94.6678 34.4282 96.5564 38.3183C96.6801 38.5205 96.7381 38.7201 96.9276 38.9249C96.7389 37.0093 96.8573 32.276 101.965 31.2244C108.203 29.8878 109.246 36.9037 109.301 37.1691Z" fill="#231F1C"/>
<path d="M109.301 37.1691C109.246 36.9037 108.203 29.8878 101.902 31.1562C96.794 32.2077 96.6757 36.941 96.8643 38.8567C97.175 39.3294 97.5538 39.739 97.9984 40.1511C98.1605 39.3677 98.454 38.5895 98.8738 37.9478C99.5035 36.9852 100.388 36.23 101.394 35.7427C102.198 35.3792 103.128 35.1521 104.114 35.1905C106.348 35.2774 108.27 36.6025 109.187 38.4149C109.268 38.0232 109.283 37.629 109.301 37.1691Z" fill="#B5CDDC"/>
<path d="M109.25 38.4832C108.27 36.6025 106.411 35.3456 104.177 35.2587C103.191 35.2204 102.261 35.4474 101.458 35.811C100.452 36.2982 99.5668 37.0535 98.9371 38.016C98.5173 38.6577 98.2238 39.436 98.0617 40.2193C99.2086 41.1852 100.692 41.9668 102.185 42.4855C101.612 42.0026 101.248 41.1987 101.279 40.4103C101.335 38.9648 102.564 37.8281 104.009 37.8844C105.389 37.938 106.465 39.0328 106.543 40.4177C106.54 40.4834 106.538 40.5492 106.532 40.6806C106.512 41.2062 106.363 41.661 106.085 42.045C105.733 42.6236 105.126 42.9947 104.462 43.1663C106.225 43.4981 107.81 43.3624 108.364 42.6601C108.435 42.5312 109.032 40.712 109.25 38.4832Z" fill="#246EED"/>
<path d="M106.603 40.5517C106.606 40.486 106.611 40.3546 106.613 40.2889C106.536 38.9039 105.46 37.8092 104.08 37.7556C102.634 37.6993 101.406 38.836 101.349 40.2815C101.319 41.0699 101.682 41.8737 102.256 42.3567C103.034 42.6501 103.883 42.8148 104.601 42.9744C105.265 42.8028 105.872 42.4316 106.224 41.853C106.433 41.5321 106.583 41.0773 106.603 40.5517Z" fill="#231F1C"/>
<path d="M100.043 34.9663C99.0993 34.9296 98.3047 35.6647 98.268 36.6081C98.2313 37.5516 98.9663 38.3462 99.9098 38.3829C100.853 38.4196 101.648 37.6845 101.685 36.7411C101.721 35.7976 100.986 35.003 100.043 34.9663Z" fill="white"/>
<path d="M107.01 40.2385C106.43 40.2159 105.941 40.6682 105.918 41.2488C105.895 41.8294 106.348 42.3185 106.928 42.3411C107.509 42.3637 107.998 41.9113 108.021 41.3307C108.043 40.75 107.591 40.2611 107.01 40.2385Z" fill="white"/>
<path d="M94.5409 43.6937C87.202 43.925 74.6368 40.3685 62.9312 44.6847" stroke="black" stroke-width="0.526034"/>
<path d="M140.029 46.2107C147.227 47.6616 160.209 46.2483 171.032 52.4545" stroke="black" stroke-width="0.526034"/>
<path d="M68.0144 55.6268C71.7564 53.9716 85.8828 49.8023 95.827 48.6697" stroke="black" stroke-width="0.526034"/>
<path d="M164.197 62.3967C160.783 60.1412 147.549 53.6765 137.933 50.9029" stroke="black" stroke-width="0.526034"/>
<path d="M91.8788 46.3135C84.537 46.4174 70.1554 46.606 58.3766 50.7183" stroke="black" stroke-width="0.526034"/>
<path d="M142.218 49.2374C149.44 50.5631 163.589 53.1453 174.518 59.1626" stroke="black" stroke-width="0.526034"/>
<g opacity="0.64" filter="url(#filter0_f_1519_2209)">
<path d="M97.0123 58.7153C94.4457 60.2803 85.9471 56.1754 85.0898 54.8815C83.7764 53.9095 82.5462 51.5342 88.1326 49.8089C95.1155 47.6522 100.221 56.7591 97.0123 58.7153Z" fill="#FE9898"/>
</g>
<g opacity="0.64" filter="url(#filter1_f_1519_2209)">
<path d="M135.111 56.7138C137.074 58.9904 146.422 57.6894 147.634 56.7208C149.183 56.1984 151.082 54.3148 146.294 50.9595C140.309 46.7654 132.657 53.868 135.111 56.7138Z" fill="#FE9898"/>
</g>
</g>
<g clip-path="url(#clip2_1519_2209)">
<path d="M61.5679 163.776L61.4486 163.718C51.2791 158.833 30.4731 145.775 28.885 119.642L28.8849 119.642C27.8704 102.386 27.1073 90.8424 24.9161 81.4226C22.7267 72.0107 19.1108 64.7177 12.3826 55.9704C5.63756 47.2012 3.16586 40.5917 3.17743 35.7025C3.18902 30.802 5.69502 27.6501 8.84268 25.8083C10.4478 24.869 13.1808 24.8218 16.4401 25.8341C19.7072 26.8487 23.5295 28.9353 27.3355 32.3063C34.949 39.0499 42.5006 50.936 45.422 69.6854L45.422 69.6854C46.8257 78.7236 47.2338 87.5519 47.4828 95.9527C47.5266 97.4306 47.5654 98.895 47.6039 100.345C47.7843 107.14 47.9562 113.618 48.5871 119.664C50.1175 134.332 54.345 146.428 67.9181 154.298L68.0575 154.379L67.9504 154.499L66.6084 156.008L61.5679 163.776ZM61.5679 163.776L61.6244 163.656M61.5679 163.776L61.6244 163.656M61.6244 163.656C62.884 160.989 64.5379 158.368 66.6078 156.009L61.6244 163.656Z" fill="#F5F0EB" stroke="#B1B1B1" stroke-width="0.263017"/>
<mask id="mask2_1519_2209" style="mask-type:alpha" maskUnits="userSpaceOnUse" x="3" y="25" width="65" height="139">
<path d="M67.647 154.445L66.4113 155.834L66.4107 155.835C64.3538 158.179 62.7053 160.778 61.4434 163.424C51.2521 158.504 30.7205 145.507 29.1475 119.627C28.1334 102.378 27.3696 90.8092 25.1723 81.363C22.9731 71.909 19.3386 64.5824 12.5911 55.81C5.86047 47.0596 3.42908 40.5071 3.44044 35.7031C3.45178 30.9105 5.89474 27.8379 8.97551 26.0353C10.4846 25.1523 13.1272 25.0806 16.3621 26.0852C19.589 27.0874 23.3792 29.1535 27.1611 32.5032C34.7232 39.2012 42.2489 51.0292 45.1621 69.7258C46.5632 78.747 46.971 87.5617 47.2199 95.9605C47.2636 97.4362 47.3024 98.8992 47.3409 100.348C47.5212 107.144 47.6934 113.634 48.3255 119.692C49.8546 134.347 54.0787 146.512 67.647 154.445Z" fill="#F5F0EB" stroke="#B1B1B1" stroke-width="0.263017"/>
</mask>
<g mask="url(#mask2_1519_2209)">
<path d="M-2.51521 39.5416C-1.70062 24.4888 14.0127 16.6869 20.6741 16.0632C34.6681 12.7118 63.188 66.3259 45.7933 51.8132C20.7251 30.8985 8.58334 53.6818 20.1418 68.6681C17.6853 69.423 -3.32981 54.5944 -2.51521 39.5416Z" fill="#393023"/>
</g>
</g>
</g>
<defs>
<filter id="filter0_f_1519_2209" x="77.4016" y="42.9053" width="27.167" height="22.7361" filterUnits="userSpaceOnUse" color-interpolation-filters="sRGB">
<feFlood flood-opacity="0" result="BackgroundImageFix"/>
<feBlend mode="normal" in="SourceGraphic" in2="BackgroundImageFix" result="shape"/>
<feGaussianBlur stdDeviation="3.28771" result="effect1_foregroundBlur_1519_2209"/>
</filter>
<filter id="filter1_f_1519_2209" x="128.065" y="43.0906" width="27.8554" height="21.4642" filterUnits="userSpaceOnUse" color-interpolation-filters="sRGB">
<feFlood flood-opacity="0" result="BackgroundImageFix"/>
<feBlend mode="normal" in="SourceGraphic" in2="BackgroundImageFix" result="shape"/>
<feGaussianBlur stdDeviation="3.28771" result="effect1_foregroundBlur_1519_2209"/>
</filter>
<clipPath id="clip0_1519_2209">
<rect width="202" height="206" fill="white"/>
</clipPath>
<clipPath id="clip1_1519_2209">
<rect width="196.605" height="153.208" fill="white" transform="translate(50.7388 -10.8631) rotate(8.92892)"/>
</clipPath>
<clipPath id="clip2_1519_2209">
<rect width="115.728" height="77.5901" fill="white" transform="translate(-8.92798 13.0428) rotate(8.92892)"/>
</clipPath>
</defs>
</svg>
