<svg width="202" height="58" viewBox="0 0 202 58" fill="none" xmlns="http://www.w3.org/2000/svg">
<path d="M60.9772 34.6031V22.1756H63.3562L68.6468 30.9459H67.3863L72.5881 22.1756H74.9671L74.9848 34.6031H72.2863L72.2685 26.3122H72.7834L68.6113 33.2893H67.333L63.0721 26.3122H63.6757V34.6031H60.9772ZM83.8775 34.6031V31.4252L84.268 31.8691H81.6228C80.2498 31.8691 79.1727 31.585 78.3916 31.0169C77.6104 30.4488 77.2198 29.6321 77.2198 28.5669C77.2198 27.4306 77.6282 26.5607 78.4448 25.9571C79.2734 25.3535 80.3859 25.0516 81.7825 25.0516H86.3452V34.6031H83.8775ZM77.0778 34.6031L79.6166 30.9636H82.4394L80.0249 34.6031H77.0778ZM83.8775 30.573V26.5962L84.268 27.3064H81.8358C81.2677 27.3064 80.8238 27.4129 80.5043 27.6259C80.1965 27.839 80.0427 28.1822 80.0427 28.6556C80.0427 29.567 80.6285 30.0227 81.8003 30.0227H84.268L83.8775 30.573ZM90.303 38.1894C89.8059 38.1894 89.3148 38.1124 88.8295 37.9586C88.3442 37.8047 87.9477 37.5917 87.64 37.3194L88.652 35.3488C88.865 35.5381 89.1076 35.6861 89.3799 35.7926C89.6639 35.8991 89.9421 35.9524 90.2143 35.9524C90.6049 35.9524 90.9126 35.8577 91.1375 35.6683C91.3742 35.4908 91.5872 35.189 91.7766 34.7629L92.2737 33.5912L92.4867 33.2893L95.9132 25.0516H98.5762L94.2621 35.189C93.9544 35.9583 93.5993 36.5619 93.1969 36.9999C92.8063 37.4378 92.3684 37.7455 91.8831 37.9231C91.4097 38.1006 90.883 38.1894 90.303 38.1894ZM91.9364 34.9759L87.6755 25.0516H90.5338L93.836 33.0408L91.9364 34.9759ZM99.2093 30.7151V28.4959H104.234V30.7151H99.2093ZM106.466 34.6031V25.0516H109.36L112.964 31.585H111.81L115.662 25.0516H118.254L118.29 34.6031H115.787V27.8922L116.213 28.1763L112.928 33.6799H111.757L108.454 27.981L108.969 27.8567V34.6031H106.466ZM126.961 34.6031V31.4252L127.352 31.8691H124.707C123.334 31.8691 122.257 31.585 121.475 31.0169C120.694 30.4488 120.304 29.6321 120.304 28.5669C120.304 27.4306 120.712 26.5607 121.529 25.9571C122.357 25.3535 123.47 25.0516 124.866 25.0516H129.429V34.6031H126.961ZM120.162 34.6031L122.7 30.9636H125.523L123.109 34.6031H120.162ZM126.961 30.573V26.5962L127.352 27.3064H124.92C124.352 27.3064 123.908 27.4129 123.588 27.6259C123.28 27.839 123.127 28.1822 123.127 28.6556C123.127 29.567 123.712 30.0227 124.884 30.0227H127.352L126.961 30.573ZM133.387 38.1894C132.89 38.1894 132.399 38.1124 131.913 37.9586C131.428 37.8047 131.032 37.5917 130.724 37.3194L131.736 35.3488C131.949 35.5381 132.191 35.6861 132.464 35.7926C132.748 35.8991 133.026 35.9524 133.298 35.9524C133.689 35.9524 133.996 35.8577 134.221 35.6683C134.458 35.4908 134.671 35.189 134.86 34.7629L135.358 33.5912L135.571 33.2893L138.997 25.0516H141.66L137.346 35.189C137.038 35.9583 136.683 36.5619 136.281 36.9999C135.89 37.4378 135.452 37.7455 134.967 37.9231C134.494 38.1006 133.967 38.1894 133.387 38.1894ZM135.02 34.9759L130.759 25.0516H133.618L136.92 33.0408L135.02 34.9759Z" fill="white"/>
<rect x="0.657543" y="0.657543" width="200.551" height="55.8912" rx="27.9456" stroke="white" stroke-width="1.31509"/>
</svg>
