<svg width="202" height="58" viewBox="0 0 202 58" fill="none" xmlns="http://www.w3.org/2000/svg">
<path d="M30.4989 22.1756H33.375V34.6031H30.4989V22.1756ZM24.8533 34.6031H21.9772V22.1756H24.8533V34.6031ZM30.712 29.5078H24.6402V27.0756H30.712V29.5078ZM40.9449 34.7452C39.856 34.7452 38.8973 34.5321 38.0688 34.106C37.2521 33.68 36.6189 33.1 36.1692 32.3662C35.7194 31.6205 35.4945 30.7743 35.4945 29.8274C35.4945 28.8687 35.7135 28.0225 36.1514 27.2886C36.6012 26.543 37.2107 25.963 37.98 25.5488C38.7494 25.1227 39.6193 24.9097 40.5898 24.9097C41.5248 24.9097 42.3652 25.1109 43.1108 25.5133C43.8683 25.9039 44.466 26.472 44.904 27.2176C45.3419 27.9514 45.5608 28.8332 45.5608 29.8629C45.5608 29.9694 45.5549 30.0937 45.5431 30.2357C45.5313 30.3659 45.5194 30.4902 45.5076 30.6086H37.7492V28.993H44.0518L42.9866 29.4723C42.9866 28.9752 42.886 28.5432 42.6847 28.1763C42.4835 27.8094 42.2054 27.5254 41.8503 27.3241C41.4953 27.1111 41.081 27.0046 40.6076 27.0046C40.1341 27.0046 39.714 27.1111 39.3471 27.3241C38.992 27.5254 38.7138 27.8153 38.5126 28.1941C38.3114 28.561 38.2108 28.9989 38.2108 29.5078V29.9339C38.2108 30.4547 38.3233 30.9163 38.5481 31.3187C38.7849 31.7093 39.1103 32.0111 39.5246 32.2242C39.9507 32.4254 40.4478 32.526 41.0159 32.526C41.5248 32.526 41.9687 32.449 42.3474 32.2952C42.738 32.1413 43.0931 31.9105 43.4127 31.6028L44.8862 33.2006C44.4483 33.6977 43.8979 34.0824 43.2351 34.3546C42.5723 34.615 41.8089 34.7452 40.9449 34.7452ZM49.396 34.6031V26.685L50.0174 27.3241H46.1649V25.0517H55.379V27.3241H51.5265L52.1479 26.685V34.6031H49.396ZM66.6235 34.8162C65.8423 34.8162 65.1322 34.7038 64.493 34.4789C63.8539 34.2422 63.2976 33.8812 62.8242 33.3959C62.3626 32.8988 62.0016 32.2656 61.7412 31.4963C61.4927 30.7269 61.3684 29.8097 61.3684 28.7444C61.3684 27.987 61.4335 27.2946 61.5637 26.6673C61.6939 26.04 61.8892 25.4718 62.1496 24.9629C62.4099 24.4421 62.7413 23.9865 63.1438 23.5959C63.558 23.1935 64.0374 22.8621 64.5818 22.6017C65.1381 22.3295 65.7654 22.1223 66.4637 21.9803L71.0086 21.0749L71.3815 23.4539L67.3691 24.2528C67.1324 24.3001 66.8602 24.3652 66.5525 24.4481C66.2566 24.5191 65.9548 24.6315 65.647 24.7854C65.3511 24.9392 65.073 25.1582 64.8126 25.4423C64.5641 25.7145 64.3628 26.0755 64.209 26.5252C64.0551 26.9632 63.9782 27.5076 63.9782 28.1586C63.9782 28.3598 63.9841 28.5136 63.9959 28.6202C64.0196 28.7267 64.0374 28.8391 64.0492 28.9575C64.0729 29.0758 64.0847 29.2593 64.0847 29.5078L63.197 28.6379C63.4574 28.0816 63.7888 27.6082 64.1912 27.2176C64.6055 26.827 65.0789 26.5312 65.6115 26.3299C66.156 26.1169 66.7596 26.0104 67.4224 26.0104C68.3219 26.0104 69.109 26.1938 69.7836 26.5607C70.4701 26.9158 71.0027 27.4188 71.3815 28.0698C71.7602 28.7208 71.9496 29.4605 71.9496 30.289C71.9496 31.1885 71.7247 31.9815 71.2749 32.668C70.8252 33.3426 70.1979 33.8693 69.3931 34.2481C68.6001 34.6268 67.6769 34.8162 66.6235 34.8162ZM66.7655 32.668C67.2271 32.668 67.6354 32.5674 67.9905 32.3662C68.3456 32.1531 68.6178 31.875 68.8072 31.5318C69.0084 31.1767 69.109 30.7802 69.109 30.3423C69.109 29.9162 69.0084 29.5374 68.8072 29.206C68.6178 28.8746 68.3456 28.6142 67.9905 28.4249C67.6354 28.2355 67.2212 28.1408 66.7478 28.1408C66.2862 28.1408 65.8719 28.2355 65.505 28.4249C65.1381 28.6024 64.854 28.851 64.6528 29.1705C64.4516 29.4901 64.351 29.8629 64.351 30.289C64.351 30.7269 64.4516 31.1293 64.6528 31.4963C64.8659 31.8513 65.1499 32.1354 65.505 32.3484C65.8719 32.5615 66.2921 32.668 66.7655 32.668ZM78.498 34.7452C77.4092 34.7452 76.4505 34.5321 75.622 34.106C74.8053 33.68 74.1721 33.1 73.7223 32.3662C73.2726 31.6205 73.0477 30.7743 73.0477 29.8274C73.0477 28.8687 73.2666 28.0225 73.7046 27.2886C74.1543 26.543 74.7639 25.963 75.5332 25.5488C76.3025 25.1227 77.1724 24.9097 78.143 24.9097C79.078 24.9097 79.9183 25.1109 80.664 25.5133C81.4215 25.9039 82.0192 26.472 82.4571 27.2176C82.895 27.9514 83.114 28.8332 83.114 29.8629C83.114 29.9694 83.1081 30.0937 83.0962 30.2357C83.0844 30.3659 83.0726 30.4902 83.0607 30.6086H75.3024V28.993H81.6049L80.5397 29.4723C80.5397 28.9752 80.4391 28.5432 80.2379 28.1763C80.0367 27.8094 79.7586 27.5254 79.4035 27.3241C79.0484 27.1111 78.6342 27.0046 78.1607 27.0046C77.6873 27.0046 77.2671 27.1111 76.9002 27.3241C76.5451 27.5254 76.267 27.8153 76.0658 28.1941C75.8646 28.561 75.764 28.9989 75.764 29.5078V29.9339C75.764 30.4547 75.8764 30.9163 76.1013 31.3187C76.338 31.7093 76.6635 32.0111 77.0778 32.2242C77.5038 32.4254 78.0009 32.526 78.5691 32.526C79.078 32.526 79.5218 32.449 79.9006 32.2952C80.2912 32.1413 80.6462 31.9105 80.9658 31.6028L82.4394 33.2006C82.0014 33.6977 81.4511 34.0824 80.7883 34.3546C80.1255 34.615 79.3621 34.7452 78.498 34.7452ZM89.7819 34.7452C88.7522 34.7452 87.8349 34.5381 87.0301 34.1238C86.2252 33.6977 85.592 33.1118 85.1304 32.3662C84.6807 31.6205 84.4558 30.7743 84.4558 29.8274C84.4558 28.8687 84.6807 28.0225 85.1304 27.2886C85.592 26.543 86.2252 25.963 87.0301 25.5488C87.8349 25.1227 88.7522 24.9097 89.7819 24.9097C90.7879 24.9097 91.6638 25.1227 92.4094 25.5488C93.1551 25.963 93.7054 26.5607 94.0605 27.3419L91.9123 28.4959C91.6638 28.0461 91.3501 27.7147 90.9714 27.5017C90.6045 27.2886 90.2021 27.1821 89.7641 27.1821C89.2907 27.1821 88.8646 27.2886 88.4859 27.5017C88.1071 27.7147 87.8053 28.0165 87.5804 28.4071C87.3674 28.7977 87.2609 29.2711 87.2609 29.8274C87.2609 30.3837 87.3674 30.8571 87.5804 31.2477C87.8053 31.6383 88.1071 31.9401 88.4859 32.1531C88.8646 32.3662 89.2907 32.4727 89.7641 32.4727C90.2021 32.4727 90.6045 32.3721 90.9714 32.1709C91.3501 31.9579 91.6638 31.6205 91.9123 31.1589L94.0605 32.3307C93.7054 33.1 93.1551 33.6977 92.4094 34.1238C91.6638 34.5381 90.7879 34.7452 89.7819 34.7452ZM95.7435 34.6031V25.0517H105.242V34.6031H102.472V26.7028L103.094 27.3241H97.8739L98.4953 26.7028V34.6031H95.7435ZM112.371 34.7452C111.353 34.7452 110.448 34.5321 109.655 34.106C108.874 33.68 108.252 33.1 107.791 32.3662C107.341 31.6205 107.116 30.7743 107.116 29.8274C107.116 28.8687 107.341 28.0225 107.791 27.2886C108.252 26.543 108.874 25.963 109.655 25.5488C110.448 25.1227 111.353 24.9097 112.371 24.9097C113.377 24.9097 114.277 25.1227 115.07 25.5488C115.863 25.963 116.484 26.5371 116.934 27.2709C117.384 28.0047 117.608 28.8569 117.608 29.8274C117.608 30.7743 117.384 31.6205 116.934 32.3662C116.484 33.1 115.863 33.68 115.07 34.106C114.277 34.5321 113.377 34.7452 112.371 34.7452ZM112.371 32.4727C112.833 32.4727 113.247 32.3662 113.614 32.1531C113.981 31.9401 114.271 31.6383 114.484 31.2477C114.697 30.8453 114.803 30.3719 114.803 29.8274C114.803 29.2711 114.697 28.7977 114.484 28.4071C114.271 28.0165 113.981 27.7147 113.614 27.5017C113.247 27.2886 112.833 27.1821 112.371 27.1821C111.909 27.1821 111.495 27.2886 111.128 27.5017C110.761 27.7147 110.465 28.0165 110.241 28.4071C110.028 28.7977 109.921 29.2711 109.921 29.8274C109.921 30.3719 110.028 30.8453 110.241 31.2477C110.465 31.6383 110.761 31.9401 111.128 32.1531C111.495 32.3662 111.909 32.4727 112.371 32.4727ZM125.141 34.7452C124.336 34.7452 123.632 34.5676 123.029 34.2126C122.425 33.8575 121.951 33.319 121.608 32.597C121.277 31.8632 121.111 30.94 121.111 29.8274C121.111 28.703 121.271 27.7798 121.59 27.0578C121.91 26.3359 122.372 25.7973 122.975 25.4423C123.579 25.0872 124.301 24.9097 125.141 24.9097C126.041 24.9097 126.846 25.1168 127.556 25.531C128.278 25.9334 128.846 26.5016 129.26 27.2354C129.686 27.9692 129.899 28.8332 129.899 29.8274C129.899 30.8335 129.686 31.7034 129.26 32.4372C128.846 33.171 128.278 33.7391 127.556 34.1416C126.846 34.544 126.041 34.7452 125.141 34.7452ZM119.496 38.0474V25.0517H122.141V27.0046L122.088 29.8452L122.265 32.668V38.0474H119.496ZM124.662 32.4727C125.123 32.4727 125.532 32.3662 125.887 32.1531C126.254 31.9401 126.544 31.6383 126.757 31.2477C126.982 30.8453 127.094 30.3719 127.094 29.8274C127.094 29.2711 126.982 28.7977 126.757 28.4071C126.544 28.0165 126.254 27.7147 125.887 27.5017C125.532 27.2886 125.123 27.1821 124.662 27.1821C124.2 27.1821 123.786 27.2886 123.419 27.5017C123.052 27.7147 122.762 28.0165 122.549 28.4071C122.336 28.7977 122.23 29.2711 122.23 29.8274C122.23 30.3719 122.336 30.8453 122.549 31.2477C122.762 31.6383 123.052 31.9401 123.419 32.1531C123.786 32.3662 124.2 32.4727 124.662 32.4727ZM137.564 34.6031V31.4252L137.955 31.8691H135.309C133.936 31.8691 132.859 31.585 132.078 31.0169C131.297 30.4488 130.906 29.6321 130.906 28.5669C130.906 27.4307 131.315 26.5607 132.131 25.9571C132.96 25.3535 134.072 25.0517 135.469 25.0517H140.032V34.6031H137.564ZM130.764 34.6031L133.303 30.9636H136.126L133.712 34.6031H130.764ZM137.564 30.5731V26.5962L137.955 27.3064H135.522C134.954 27.3064 134.51 27.4129 134.191 27.626C133.883 27.839 133.729 28.1822 133.729 28.6557C133.729 29.567 134.315 30.0227 135.487 30.0227H137.955L137.564 30.5731ZM149.262 33.3604V27.3241H146.138L146.085 28.5492C146.061 29.0581 146.031 29.5434 145.996 30.005C145.96 30.4665 145.889 30.8867 145.783 31.2655C145.688 31.6324 145.546 31.946 145.357 32.2064C145.167 32.455 144.913 32.6266 144.593 32.7213L141.859 32.3307C142.202 32.3307 142.481 32.2301 142.694 32.0289C142.907 31.8158 143.072 31.5258 143.191 31.1589C143.309 30.7802 143.398 30.3541 143.457 29.8807C143.516 29.3954 143.558 28.8865 143.581 28.3539L143.706 25.0517H152.032V33.3604H149.262ZM141.54 36.6626V32.3307H153.399V36.6626H150.825V34.6031H144.114V36.6626H141.54ZM161.906 34.6031L158.71 30.076L160.965 28.7444L165.173 34.6031H161.906ZM155.142 34.6031V25.0517H157.912V34.6031H155.142ZM157.095 30.9814V28.7622H160.433V30.9814H157.095ZM161.231 30.147L158.639 29.8629L161.995 25.0517H164.942L161.231 30.147ZM167.291 38.1894C166.794 38.1894 166.303 38.1125 165.818 37.9586C165.332 37.8047 164.936 37.5917 164.628 37.3195L165.64 35.3488C165.853 35.5382 166.096 35.6861 166.368 35.7926C166.652 35.8992 166.93 35.9524 167.203 35.9524C167.593 35.9524 167.901 35.8577 168.126 35.6684C168.362 35.4908 168.575 35.189 168.765 34.7629L169.262 33.5912L169.475 33.2894L172.901 25.0517H175.565L171.25 35.189C170.943 35.9583 170.588 36.562 170.185 36.9999C169.795 37.4378 169.357 37.7455 168.871 37.9231C168.398 38.1006 167.871 38.1894 167.291 38.1894ZM168.925 34.976L164.664 25.0517H167.522L170.824 33.0408L168.925 34.976ZM177.043 30.289L176.492 22.1756H179.794L179.244 30.289H177.043ZM178.143 34.7452C177.646 34.7452 177.238 34.5854 176.918 34.2658C176.599 33.9463 176.439 33.5675 176.439 33.1296C176.439 32.6798 176.599 32.307 176.918 32.0111C177.238 31.7034 177.646 31.5495 178.143 31.5495C178.652 31.5495 179.061 31.7034 179.368 32.0111C179.688 32.307 179.848 32.6798 179.848 33.1296C179.848 33.5675 179.688 33.9463 179.368 34.2658C179.061 34.5854 178.652 34.7452 178.143 34.7452Z" fill="white"/>
<rect x="0.657543" y="0.657543" width="200.551" height="55.8912" rx="27.9456" stroke="white" stroke-width="1.31509"/>
</svg>
