<svg width="75" height="23" viewBox="0 0 75 23" fill="none" xmlns="http://www.w3.org/2000/svg">
<path d="M10.1807 5.51352C10.2662 5.08612 10.3602 4.65871 10.4628 4.23131C10.5654 3.78681 10.6594 3.3936 10.7449 3.05168C10.3346 3.23974 9.85591 3.48763 9.30883 3.79536C8.77885 4.10309 8.24033 4.42792 7.69326 4.76984C7.14618 5.09467 6.63329 5.41949 6.1546 5.74432C5.67591 6.05205 5.29125 6.29994 5.00062 6.488L4.38515 6.89831C4.00904 6.89831 3.69276 6.78718 3.43632 6.56493C3.17988 6.32559 3.05166 6.03495 3.05166 5.69303C3.05166 5.53917 3.08585 5.3853 3.15423 5.23143C3.23971 5.07757 3.3252 4.9408 3.41068 4.82113C3.94066 4.20567 4.58176 3.61585 5.33399 3.05168C6.08622 2.48751 6.88119 1.99172 7.7189 1.56432C8.5737 1.11982 9.44561 0.769349 10.3346 0.512907C11.2236 0.239369 12.0699 0.1026 12.8734 0.1026C13.7966 0.1026 14.7112 0.230821 15.6173 0.487262C16.5405 0.743705 17.3611 1.12837 18.0791 1.64125C18.8143 2.15413 19.4041 2.80379 19.8486 3.59021C20.2931 4.37663 20.5153 5.29982 20.5153 6.35978C20.5153 7.62489 20.2247 8.64211 19.6434 9.41144C19.0793 10.1637 18.3527 10.7535 17.4637 11.1809C16.5918 11.6083 15.6259 11.8904 14.5659 12.0271C13.5059 12.1639 12.4802 12.2323 11.4886 12.2323L11.3604 12.181L11.3091 12.3605C11.1552 12.8905 10.9672 13.506 10.7449 14.2069C10.5398 14.9078 10.3004 15.6259 10.0269 16.361C9.75333 17.0961 9.43706 17.8142 9.07804 18.5151C8.71902 19.2161 8.32581 19.8401 7.89841 20.3871C7.471 20.9342 6.99231 21.3787 6.46233 21.7206C5.94945 22.0626 5.38528 22.2335 4.76981 22.2335C4.17145 22.2335 3.65857 22.1651 3.23117 22.0284C2.80376 21.9087 2.42765 21.7292 2.10282 21.4898C1.77799 21.2505 1.47881 20.9599 1.20528 20.6179C0.931738 20.2589 0.641107 19.8572 0.333377 19.4127C0.247896 19.293 0.17096 19.1648 0.102576 19.028C0.0341911 18.8912 0 18.7374 0 18.5664C0 18.2245 0.119671 17.9339 0.359017 17.6945C0.598363 17.4552 0.888999 17.3355 1.23092 17.3355C1.65832 17.3355 2.00025 17.4723 2.25669 17.7458C2.53022 18.0193 2.78667 18.3185 3.02601 18.6433C3.21407 18.9169 3.41068 19.1648 3.61583 19.387C3.82098 19.5922 4.06888 19.6948 4.35951 19.6948C4.82111 19.6948 5.25706 19.464 5.66736 19.0024C6.09477 18.5408 6.48798 17.9339 6.847 17.1816C7.22311 16.4294 7.57358 15.5575 7.89841 14.5659C8.22323 13.5743 8.52241 12.5571 8.79595 11.5143C9.06949 10.4714 9.31739 9.42853 9.53963 8.38567C9.77898 7.34281 9.99268 6.38542 10.1807 5.51352ZM13.335 2.64137C13.335 3.73552 13.2153 4.82113 12.976 5.89818C12.7366 6.97524 12.4716 8.0523 12.181 9.12935L12.0271 9.64223C12.3178 9.59095 12.6169 9.55675 12.9247 9.53966C13.2495 9.50547 13.5658 9.47127 13.8735 9.43708C14.3864 9.40289 14.8907 9.3516 15.3865 9.28322C15.8994 9.21483 16.3439 9.07806 16.72 8.87291C17.1132 8.66776 17.4295 8.37712 17.6688 8.00101C17.9082 7.62489 18.0279 7.11201 18.0279 6.46236C18.0279 5.8298 17.8911 5.28272 17.6175 4.82113C17.344 4.35953 16.9764 3.97487 16.5149 3.66714C16.0704 3.34231 15.566 3.09442 15.0018 2.92346C14.4548 2.7525 13.8991 2.64992 13.335 2.61573V2.64137Z" fill="white"/>
<path d="M25.5638 9.69352C25.9229 9.69352 26.2049 9.83029 26.4101 10.1038C26.6323 10.3774 26.7435 10.668 26.7435 10.9757C26.7435 11.2151 26.6665 11.5485 26.5127 11.9759C26.3588 12.4033 26.1878 12.8478 25.9998 13.3094C25.8459 13.6684 25.6921 14.053 25.5382 14.4633C25.3843 14.8566 25.239 15.2583 25.1022 15.6686C24.9826 16.0789 24.88 16.4892 24.7945 16.8995C24.709 17.2927 24.6663 17.6689 24.6663 18.0279C24.6663 18.1134 24.6663 18.233 24.6663 18.3869C24.6663 18.5237 24.6748 18.669 24.6919 18.8228C24.709 18.9767 24.7261 19.1135 24.7432 19.2332C24.7774 19.3357 24.8202 19.387 24.8714 19.387C25.5382 19.387 26.1366 19.1819 26.6665 18.7716C27.1965 18.3613 27.6752 17.8398 28.1026 17.2073C28.5471 16.5747 28.9403 15.8823 29.2822 15.1301C29.6242 14.3608 29.9404 13.6342 30.2311 12.9503C30.6072 12.0442 30.9662 11.2835 31.3081 10.668C31.6501 10.0354 32.0347 9.71917 32.4621 9.71917C32.8553 9.71917 33.1545 9.86448 33.3597 10.1551C33.5819 10.4458 33.693 10.762 33.693 11.104C33.693 11.5143 33.5648 12.0186 33.3084 12.617C33.0519 13.2153 32.7698 13.8735 32.4621 14.5916C32.2741 15.0019 32.086 15.4122 31.8979 15.8225C31.727 16.2328 31.5646 16.6345 31.4107 17.0278C31.2739 17.4039 31.1628 17.7629 31.0773 18.1048C30.9919 18.4296 30.9491 18.7117 30.9491 18.9511C30.9491 19.0195 30.9491 19.0878 30.9491 19.1562C30.9491 19.2246 30.9577 19.2759 30.9748 19.3101C31.368 19.3101 31.7783 19.1733 32.2057 18.8998C32.6331 18.6091 33.0434 18.3185 33.4366 18.0279C33.7785 17.7714 34.0862 17.5492 34.3598 17.3611C34.6504 17.1731 34.9411 17.079 35.2317 17.079C35.6078 17.079 35.83 17.1902 35.8984 17.4124C35.9839 17.6347 36.0267 17.8655 36.0267 18.1048C36.0267 18.5322 35.8301 18.9682 35.4368 19.4127C35.0436 19.8401 34.5735 20.2333 34.0264 20.5923C33.4793 20.9513 32.9152 21.2419 32.3339 21.4642C31.7697 21.7035 31.2996 21.8232 30.9235 21.8232C30.3251 21.8232 29.8464 21.6694 29.4874 21.3616C29.1284 21.071 28.8805 20.6949 28.7437 20.2333C28.2992 20.6778 27.7863 21.0624 27.2051 21.3873C26.6409 21.7121 26.0169 21.8745 25.333 21.8745C24.1705 21.8745 23.3499 21.5668 22.8712 20.9513C22.4096 20.3359 22.1788 19.4896 22.1788 18.4125C22.1788 17.9168 22.2301 17.3868 22.3327 16.8226C22.4523 16.2413 22.5977 15.6601 22.7686 15.0788C22.9396 14.4804 23.1276 13.8906 23.3328 13.3094C23.5379 12.7281 23.7346 12.181 23.9226 11.6681V11.6938C23.991 11.4886 24.0594 11.2835 24.1278 11.0783C24.2132 10.8561 24.2902 10.6424 24.3586 10.4372C24.444 10.1979 24.6065 10.0183 24.8458 9.89868C25.1022 9.76191 25.3416 9.69352 25.5638 9.69352Z" fill="white"/>
<path d="M37.6102 20.6692C37.6102 20.3102 37.7042 19.8315 37.8923 19.2332C38.0974 18.6348 38.3197 18.0193 38.559 17.3868C38.3026 17.7116 38.0461 18.0279 37.7897 18.3356C37.5333 18.6262 37.2854 18.8912 37.046 19.1306C36.8067 19.3528 36.5844 19.5409 36.3793 19.6948C36.1741 19.8315 36.0032 19.8999 35.8664 19.8999C35.5416 19.8999 35.2937 19.7717 35.1227 19.5152C34.9517 19.2588 34.8663 19.0024 34.8663 18.7459C34.8663 18.5921 34.8834 18.4638 34.9176 18.3613C34.9517 18.2587 35.003 18.1476 35.0714 18.0279C35.1911 17.8398 35.3364 17.6518 35.5074 17.4637C35.6783 17.2586 35.8664 17.0534 36.0715 16.8482C36.2083 16.7115 36.3365 16.5833 36.4562 16.4636C36.5759 16.3268 36.687 16.19 36.7896 16.0533C37.3708 15.301 37.935 14.5488 38.4821 13.7966C39.0463 13.0444 39.6019 12.2836 40.149 11.5143L41.0722 10.2064L41.0465 10.2833C41.0978 10.1637 41.2004 10.0611 41.3542 9.97561C41.491 9.85594 41.6278 9.779 41.7645 9.74481C41.9013 9.71062 42.0381 9.69352 42.1749 9.69352C42.5168 9.69352 42.7903 9.82174 42.9955 10.0782C43.2006 10.3346 43.3203 10.6082 43.3545 10.8988C43.7306 10.5911 44.1324 10.3346 44.5598 10.1295C45.0043 9.92432 45.4744 9.82174 45.9702 9.82174C46.4831 9.82174 46.9618 9.95851 47.4063 10.2321C47.8508 10.4885 48.1756 10.839 48.3808 11.2835C48.774 10.8903 49.227 10.5483 49.7399 10.2577C50.2528 9.94996 50.8084 9.7961 51.4068 9.7961C51.8854 9.7961 52.3043 9.88158 52.6633 10.0525C53.0223 10.2235 53.313 10.4543 53.5352 10.7449C53.7746 11.0356 53.9455 11.3775 54.0481 11.7707C54.1678 12.1639 54.2276 12.5742 54.2276 13.0016C54.2276 13.6 54.1507 14.1813 53.9968 14.7454C53.8601 15.3096 53.7062 15.8652 53.5352 16.4123C53.3643 16.9423 53.2104 17.4637 53.0736 17.9766C52.954 18.4895 52.8941 19.0195 52.8941 19.5665L52.8685 19.5922C52.9882 19.558 53.1506 19.4811 53.3557 19.3614C53.5609 19.2246 53.7746 19.0707 53.9968 18.8998C54.2362 18.7288 54.4755 18.5493 54.7149 18.3613C54.9542 18.1561 55.1765 17.968 55.3816 17.7971C55.6893 17.5577 55.9458 17.3526 56.1509 17.1816C56.3732 16.9936 56.5527 16.8995 56.6895 16.8995C57.4246 16.8995 57.7922 17.2671 57.7922 18.0022C57.7922 18.2074 57.6896 18.4467 57.4844 18.7203C57.2793 18.9938 57.0143 19.2844 56.6895 19.5922C56.3646 19.8828 55.9971 20.1734 55.5868 20.4641C55.1936 20.7547 54.8003 21.0112 54.4071 21.2334C54.031 21.4727 53.6805 21.6608 53.3557 21.7976C53.0309 21.9514 52.7745 22.0284 52.5864 22.0284C52.2103 22.0284 51.8854 21.96 51.6119 21.8232C51.3555 21.6864 51.1418 21.4984 50.9708 21.259C50.7999 21.0368 50.6716 20.7804 50.5861 20.4897C50.5007 20.182 50.4579 19.8657 50.4579 19.5409C50.4579 18.9767 50.5178 18.4125 50.6374 17.8484C50.7742 17.2671 50.9281 16.6858 51.099 16.1046C51.2358 15.5746 51.3726 15.0532 51.5093 14.5403C51.6461 14.0103 51.7145 13.4547 51.7145 12.8734C51.7145 12.7708 51.6974 12.6597 51.6632 12.54C51.6461 12.4033 51.5948 12.3349 51.5093 12.3349C51.099 12.3349 50.7229 12.4973 50.381 12.8221C50.0391 13.1469 49.7228 13.5743 49.4322 14.1043C49.1415 14.6343 48.868 15.2241 48.6115 15.8738C48.3551 16.5234 48.1158 17.1645 47.8935 17.7971C47.6884 18.3613 47.4747 18.9083 47.2524 19.4383C47.0473 19.9683 46.825 20.4384 46.5857 20.8487C46.3634 21.242 46.1241 21.5582 45.8676 21.7976C45.6112 22.0369 45.3205 22.1566 44.9957 22.1566C44.7735 22.1566 44.594 22.1139 44.4572 22.0284C44.3375 21.9429 44.2435 21.8318 44.1751 21.695C44.1067 21.5753 44.0554 21.43 44.0212 21.259C44.0041 21.1052 43.9956 20.9599 43.9956 20.8231C43.9956 20.2418 44.0982 19.6606 44.3033 19.0793C44.5256 18.4809 44.7735 17.874 45.047 17.2586V17.2842C45.3376 16.6175 45.6112 15.9507 45.8676 15.284C46.1241 14.6001 46.2523 13.9163 46.2523 13.2324C46.2523 13.0444 46.2352 12.8563 46.201 12.6682C46.1839 12.4631 46.107 12.3605 45.9702 12.3605C45.4573 12.3605 44.9786 12.5571 44.5341 12.9503C44.0896 13.3264 43.6708 13.8137 43.2776 14.4121C42.9014 14.9933 42.551 15.643 42.2262 16.361C41.9013 17.079 41.5936 17.7714 41.303 18.4382C41.0978 18.934 40.8926 19.3956 40.6875 19.823C40.4994 20.2504 40.3028 20.635 40.0977 20.977C39.9096 21.3018 39.7045 21.5582 39.4822 21.7463C39.2771 21.9343 39.0634 22.0284 38.8411 22.0284C38.4479 22.0284 38.1402 21.8831 37.9179 21.5924C37.7128 21.3189 37.6102 21.0112 37.6102 20.6692Z" fill="white"/>
<path d="M56.8241 18.2074C57.2002 17.7629 57.5763 17.3184 57.9524 16.8739C58.3456 16.4123 58.7389 15.9593 59.1321 15.5148C59.5766 15.019 60.004 14.5232 60.4143 14.0274C60.8417 13.5316 61.2691 13.0273 61.6965 12.5144C62.0213 12.1212 62.406 11.7536 62.8505 11.4117C63.3121 11.0698 63.7993 10.7706 64.3122 10.5141C64.8251 10.2577 65.3551 10.0611 65.9021 9.92432C66.4492 9.77046 66.9792 9.69352 67.4921 9.69352C67.9537 9.69352 68.3982 9.7961 68.8256 10.0013C69.2701 10.2064 69.6547 10.4543 69.9795 10.7449C70.1163 10.5056 70.2787 10.2919 70.4668 10.1038C70.672 9.89868 70.9455 9.7961 71.2874 9.7961C71.6635 9.7961 71.9541 9.94142 72.1593 10.2321C72.3645 10.5056 72.467 10.8048 72.467 11.1296C72.467 11.3177 72.4157 11.557 72.3132 11.8476C72.2106 12.1383 72.0738 12.4716 71.9029 12.8478C71.749 13.2068 71.5695 13.6 71.3643 14.0274C71.1592 14.4548 70.9455 14.8822 70.7232 15.3096C70.501 15.7541 70.2787 16.19 70.0565 16.6175C69.8513 17.0449 69.6633 17.4466 69.4923 17.8227C69.3214 18.1988 69.1846 18.5408 69.082 18.8485C68.9794 19.1562 68.9281 19.3956 68.9281 19.5665C69.3555 19.5665 69.8171 19.4041 70.3129 19.0793C70.8087 18.7545 71.2789 18.4211 71.7234 18.0792C72.0482 17.8398 72.3388 17.6347 72.5953 17.4637C72.8517 17.2757 73.0996 17.1816 73.3389 17.1816C73.4928 17.1816 73.6296 17.2329 73.7492 17.3355C73.8689 17.421 73.9715 17.5321 74.057 17.6689C74.1425 17.8056 74.2023 17.9509 74.2365 18.1048C74.2878 18.2416 74.3134 18.3613 74.3134 18.4638C74.3134 18.6861 74.2023 18.9254 73.98 19.1819C73.7578 19.4383 73.4757 19.7033 73.1338 19.9768C72.7919 20.2333 72.4072 20.4897 71.9798 20.7462C71.5695 20.9855 71.1592 21.1992 70.7489 21.3873C70.3386 21.5753 69.9625 21.7292 69.6205 21.8489C69.2786 21.9685 69.0136 22.0284 68.8256 22.0284C68.3982 22.0284 67.9793 21.9172 67.569 21.695C67.1587 21.4898 66.8424 21.2078 66.6202 20.8487C66.0047 21.2249 65.3294 21.5582 64.5943 21.8489C63.8762 22.1395 63.1497 22.2848 62.4145 22.2848C61.9016 22.2848 61.4486 22.1908 61.0554 22.0027C60.6793 21.8147 60.3544 21.5582 60.0809 21.2334C59.8074 20.9257 59.5937 20.5752 59.4398 20.182C59.303 19.7717 59.2175 19.3443 59.1834 18.8998C58.9611 19.1562 58.7218 19.387 58.4653 19.5922C58.2089 19.7802 57.9353 19.8743 57.6447 19.8743C57.3541 19.8743 57.1147 19.7717 56.9267 19.5665C56.7386 19.3443 56.6446 19.0964 56.6446 18.8228C56.6446 18.7374 56.6446 18.669 56.6446 18.6177C56.6617 18.5493 56.6788 18.4895 56.6959 18.4382V18.5408C56.6959 18.5237 56.6959 18.5151 56.6959 18.5151C56.713 18.498 56.7215 18.4809 56.7215 18.4638L56.8241 18.2074ZM66.6458 17.9253L66.9535 17.6945C67.039 17.5064 67.133 17.3098 67.2356 17.1047C67.3382 16.8824 67.4493 16.6516 67.569 16.4123C67.8083 15.9165 68.0391 15.4036 68.2614 14.8736C68.5007 14.3437 68.6204 13.8906 68.6204 13.5145C68.6204 13.1726 68.5264 12.8649 68.3383 12.5913C68.1503 12.3178 67.8853 12.181 67.5434 12.181C66.7398 12.181 65.9791 12.3691 65.261 12.7452C64.5601 13.1213 63.9361 13.6085 63.389 14.2069C62.859 14.8053 62.4316 15.4891 62.1068 16.2584C61.7991 17.0278 61.6452 17.7971 61.6452 18.5664C61.6452 19.3528 62.0299 19.746 62.7992 19.746C63.1582 19.746 63.5001 19.6948 63.8249 19.5922C64.1669 19.4725 64.5002 19.3272 64.8251 19.1562C65.1499 18.9853 65.4576 18.7887 65.7483 18.5664C66.056 18.3442 66.3552 18.1219 66.6458 17.8997V17.9253Z" fill="white"/>
</svg>
